<svg xmlns="http://www.w3.org/2000/svg" xmlns:xlink="http://www.w3.org/1999/xlink" viewBox="0 0 1577.12 1682.09"><defs><style>.cls-1,.cls-14,.cls-15,.cls-17,.cls-18,.cls-20,.cls-21,.cls-22,.cls-23,.cls-25,.cls-26{fill:none;}.cls-2{clip-path:url(#clip-path);}.cls-3{fill:#734d9c;}.cls-4{clip-path:url(#clip-path-2);}.cls-5{fill:#d6a4de;}.cls-6{fill:#e6bfec;}.cls-7{fill:#fff;}.cls-8{fill:#ffd3c2;}.cls-9{fill:#ff586b;}.cls-10{fill:#090f4d;}.cls-11{fill:#553973;}.cls-12{clip-path:url(#clip-path-3);}.cls-13{fill:#b22097;}.cls-14,.cls-17,.cls-18,.cls-20,.cls-21,.cls-26{stroke:#0c1153;}.cls-14,.cls-15,.cls-17,.cls-18,.cls-20,.cls-21,.cls-22,.cls-23,.cls-25,.cls-26{stroke-miterlimit:10;}.cls-14,.cls-15{stroke-width:2px;}.cls-15,.cls-22,.cls-23,.cls-25{stroke:#d25bbb;}.cls-16{fill:url(#linear-gradient);}.cls-17{stroke-width:0.44px;}.cls-18{stroke-width:0.45px;}.cls-19{fill:url(#linear-gradient-2);}.cls-20{stroke-width:0.52px;}.cls-21{stroke-width:0.53px;}.cls-22{stroke-width:2.35px;}.cls-23{stroke-width:2.08px;}.cls-24{clip-path:url(#clip-path-4);}.cls-25{stroke-width:1.94px;}.cls-26{stroke-width:2.85px;}.cls-27{fill:#0c1153;}</style><clipPath id="clip-path"><rect class="cls-1" x="345.22" y="455.15" width="784" height="768"/></clipPath><clipPath id="clip-path-2"><rect class="cls-1" x="74.22" y="1139.15" width="1032" height="284"/></clipPath><clipPath id="clip-path-3"><rect class="cls-1" x="108.82" y="272.62" width="1020.67" height="1146.17"/></clipPath><linearGradient id="linear-gradient" x1="-12779.84" y1="-7400.34" x2="-12673.99" y2="-7400.34" gradientTransform="translate(-13445.89 -399.63) rotate(153.25)" gradientUnits="userSpaceOnUse"><stop offset="0" stop-color="#bf0a5e"/><stop offset="1" stop-color="#0c1153"/></linearGradient><linearGradient id="linear-gradient-2" x1="-7856.04" y1="5645.33" x2="-8090.07" y2="5240.28" gradientTransform="matrix(0.51, -0.86, 0.86, 0.51, 667.57, -9037.73)" xlink:href="#linear-gradient"/><clipPath id="clip-path-4"><rect class="cls-1" x="522.51" y="882.87" width="608.64" height="538.06"/></clipPath></defs><title>Asset 8</title><g id="Layer_2" data-name="Layer 2"><g id="dizajn"><g class="cls-2"><path class="cls-3" d="M405.25,910.79S373,899.66,378.7,865.08s-35.12-104.91,64.52-145.93,16-84.64,117.75-82,137.71,86.51,261.6,4.86,395.58-243.63,456.54-62.73,62.06,232.69-17.35,279.45-116,76.78-107.18,151.67-40.48,180.2-165.21,138.16-99.31-171.48-239.78-100-153,39.35-190.36,19.55-61.77,6.28-76.71-44.24C457.41,939.07,465.43,933.07,405.25,910.79Z"/></g><g class="cls-4"><path class="cls-5" d="M1079,1357c-16.2,30.9-54.55,73.74-134.39,177.36-57,74-173.21,133.45-185.79,94.52-6.41-19.86,20.87-41.07,20.53-62.8-.44-28.21-34.74-10.78-52.36,5.89-125.62,118.91-286.66,153.82-250.52,43.21C496,1555.38,420,1543.32,389.78,1575c-64.12,67.23-137.55,84.85-137,17.06.58-66.63-25-102-61.61-83.31s-81.69,85.34-125.68,22.41C48.2,1506.4,73.67,1433,131,1403.1c32.69-17,146.62-42,72.47-94.72-76.44-54.31-5.37-112.73,45.11-99.77,18.82,4.82,195,57.19,164.55,7.12-35.91-59.1,14.59-95.18,95.22-56.89,36.6,17.37,103.75,79.28,117.4,46.71s37.81-60.19,98.75-46.2C989.89,1220.27,1073.05,1368.33,1079,1357Z"/></g><path class="cls-6" d="M6.31,1229.64s27.06,17.92,47.51,1.91,35-34.46,18.94-45.59S-22.67,1188.64,6.31,1229.64Z"/><path class="cls-7" d="M446.07,781.43A23.71,23.71,0,0,0,459,770.25c1.73-3.13,2.48-10.32.29-12.16s-5.54.76-7.81,5.16A61.27,61.27,0,0,0,446.07,781.43Z"/><path class="cls-7" d="M435.27,792.77c0,.06,5.5-7,5.3-14.9,0-2.84-2.29-7.16-4.76-6.53s-4.39,4.51-4.51,8.47A21.73,21.73,0,0,0,435.27,792.77Z"/><path class="cls-7" d="M422.57,806.24c.06,0,3.92-7.52,1.82-14-.73-2.33-4.14-5.21-6.73-4s-3.89,5.08-3,8.43C416.23,803.08,422.54,806.27,422.57,806.24Z"/><path class="cls-7" d="M437.42,794.33a16.42,16.42,0,0,0,10.89,5.35c2.45.14,7.24-1.93,7.81-4.64s-2.07-4.76-5.53-4.76C444,790.34,437.45,794.36,437.42,794.33Z"/><path class="cls-7" d="M424.23,807.67a16.8,16.8,0,0,0,10.55,6.62c2.54.43,7.82-1.09,8.79-3.75s-1.48-5-5.08-5.43C431.68,804.41,424.26,807.71,424.23,807.67Z"/><path class="cls-7" d="M404.23,823a11.3,11.3,0,0,0,7,6.9c2,.65,6.64-.1,8.1-2.34s.07-4.69-2.76-5.45C411.2,820.77,404.26,823.08,404.23,823Z"/><path class="cls-7" d="M402.72,821.08s4.54-4.65,4.62-10c.05-1.94-1.69-5-3.82-4.67s-3.92,2.9-4.09,5.63A13.25,13.25,0,0,0,402.72,821.08Z"/><path class="cls-7" d="M384.23,833.37c52.45-24,71.85-67.85,72.2-67.14l-.57-.64c-.35-.71-19.71,43.18-72.21,67.16Z"/><path class="cls-8" d="M428.68,936.45s58.43,52.39,93.12,41.85,56.77-40.64,54.13-55.43-12.66-42.47-21-35.69c-10.47,8.53-35.69,12.13-48.35,4.24-6.43-4-17.69-10.9-20.89-27.32-1.2-6.18-20.24,1.56-16.43,16.73,1.35,5.42,1.35,18.77-2,26C458.7,925,451.55,923.59,428.68,936.45Z"/><path class="cls-8" d="M459.81,764.47a100.39,100.39,0,0,1,6,12.95c11.67,30.64-40.18,26.22-10.39,75.09A153,153,0,0,1,468.61,890c2.87,13.07-3.41,32.22-3.41,32.22,8.05,21.44,91.37,12,88,9.78s-33.08-16-50.61-34.11c-12.21-12.63-14.35-27.6-13.53-39.25,3.41-18.25,18.67-26.75,18.67-26.75a5.82,5.82,0,0,0,2.77-3.72,36,36,0,0,0-3.86-9.93L486,782.11A35.66,35.66,0,0,0,459.81,764.47Z"/><path class="cls-8" d="M440.54,933.22c-.85-5.15-5.81-14.12-18-9.69-12.8,4.66-21.32,16.34-23,48.47s-8.31,57.6-13.3,75.32,17.73,52.07,30.47,31,19.94-73.67,21-88.08S441.1,936.54,440.54,933.22Z"/><path class="cls-8" d="M553.55,881.71S525.3,990.83,538,1059c9,48.16,26.41,15.56,40.71,10.8,0,0-.84-6.1-.84-28.53,0-37.17,1.29-71.32,4.44-91.94,5-32.68,5-53.18-1.67-60.93S568.5,876.17,553.55,881.71Z"/><path class="cls-8" d="M572.93,1056.74s1.11-8.86,13.3,41.55,19.93,137.36,32.67,154,17.17,6.64,15,8.86c-7.87,7.88-11.08,15.51-19.39,13.85s-26.59-34.9-45.42-92.5-30.46-96.93-27.13-114.66S571.27,1052.31,572.93,1056.74Z"/><path class="cls-8" d="M596.75,1251.16s8.31,20.5,13.29,22.16,18.28,0,26.59-2.77,14.4-6.65,18.83-7.2,29.37,7.4,36.56,7.75c7.57.38,9.79.38,13.85-1.1s2.59-4.43,2.59-4.43-3.52-.37-14.41-2.58c-15.33-3.12-36.56-13.64-42.1-16.63-9.6-5.17-10.29-5.92-15.88-3.69-6.46,2.59-15,4.58-22.89,6.27A86,86,0,0,1,596.75,1251.16Z"/><path class="cls-8" d="M604.68,1266.67s3.49,9.86,18.1,15.15c10.71,3.87,12.51,3.13,18.1,3a34.78,34.78,0,0,0,7.38-.74s.93-4.8-5.91-5.54c-3.83-.41-11.08-5.17-7.75-7.39S604.68,1266.67,604.68,1266.67Z"/><path class="cls-9" d="M432.8,1168.07s-11.09-42.09-11.64-65.91,2.22-65.91,1.66-67.57-16.06-12.19-14.95-23.27,15.51-40.43,18.27-49.3,2.77-39.88,2.77-39.88,25.48,6.09,55.95-5,68.69-35.45,68.69-35.45,20.49,2.21,5,94.72-20.3,98-21,125.18c-1.11,39.88,23.27,84.75,25.48,118.54S440.54,1180.26,432.8,1168.07Z"/><path class="cls-10" d="M453.29,1163.1c-43.68-17.59-72-16.07-176.14-5-23.87,2.54-72.35,5.83-96.38,19.39-21.61,12.18-27.67,44.08,80.45,65.38,98.76,19.48,226.26,28.68,259.09,2.19S495.93,1180.26,453.29,1163.1Z"/><path class="cls-8" d="M430.57,1285.51s4.44,2.77,6.65,1.1,8.32-8.86,18.28-3.32,12.74,12.19,22.16,12.74,32.68-3.32,39.33,2.22,17.17,26,14.4,40.43-7.2,16.07-11.64,9.42-8.3-10.53-10.52-11.63-27.14-10.53-35.44-15A219.08,219.08,0,0,0,450.52,1311c-3.32-1.1-21.61-4.43-23.26-4.43S430.57,1285.51,430.57,1285.51Z"/><path class="cls-9" d="M517,1298.25c-6.65-5.54-29.91-1.67-39.33-2.22s-12.19-7.2-22.16-12.74c-7.88-4.38-13.37-1.81-18.34,3.16.12.09,1.71-.82,3-.66,5.5.66,17.43,10.22,26.14,13.85,9.41,3.92,26.66,7,34.11,12.15,4.74,3.24,7.06,14.5,7.58,24.13.57.25,1,.44,1.24.55,2.22,1.1,6.09,5,10.52,11.63s8.87,5,11.64-9.42S523.63,1303.79,517,1298.25Z"/><path class="cls-11" d="M432.8,1309.32s-159.2-32-195-46-91.94-23.27-77.44-62.21c13.16-35.31,52.83-39.44,105-17.6s52.78,23.31,91.56,47.13c49.39,30.34,78.1,56.5,78.1,56.5Z"/><path class="cls-8" d="M232.84,1270s-3.88,3.87-1.12,8.3,8.31,7.76,7.21,13.3-2.22,6.65-8.31,11.08-16.62,10-22.71,22.7-14.41,24.93-29.36,27.15-26.59,1.11-33.78-2.22-3.33-7.2,1.65-9.41,15.51-7.76,22.72-18.83,15-20.51,19.93-29.36,11.08-18.28,16.07-27.14S232.84,1263.9,232.84,1270Z"/><path class="cls-9" d="M212.61,1301.87c-9.87,10.09-15.23,21.29-29.35,27.14-7.32,3-16.85,3.16-20.57.88a56.18,56.18,0,0,1-16.27,11c-5,2.21-8.86,6.09-1.65,9.41s18.82,4.44,33.78,2.22,23.26-14.41,29.36-27.15,16.62-18.28,22.71-22.7,7.19-5.54,8.31-11.08c.91-4.58-2.71-7.65-5.55-11.09C229.91,1285.92,222.07,1292.19,212.61,1301.87Z"/><path class="cls-3" d="M558.53,1192.45s-58.71-86.41-106.35-114.1-168.39-128.51-82,46.52c44.57,90.27,75.34,145.13,116.32,155.1S601.73,1280,558.53,1192.45Z"/><path class="cls-3" d="M191.84,1274.43s74.23-145.12,95.27-177.25,57.61-96.38,73.12-62,27.69,59.81-4.43,106.35S323.67,1188,282.68,1229s-54.28,48.74-54.28,48.74Z"/><g class="cls-12"><path class="cls-11" d="M1263.67,304.47s303.93,214.91,144.65,374.79C1259.22,828.94,1164.39,529,1176.14,451.74s119.22,255.23-9,262.89S882.27,446.85,922.73,372.08s165.48,271.12-18.31,311.43S735.86,507.39,778.8,403.92,787.53,658.14,677.24,635,617.71,378.14,651.16,345.3s5.65,349.21-185.81,261.28-33.1-247.81,7-278.38S377,605.78,212.74,438.53,265.31,5.87,439.41,58.29,1263.67,304.47,1263.67,304.47Z"/><path class="cls-10" d="M1027.52,1089.29c-7.51-97.71-82.38-303.4-170.44-384.12C765.26,621,786.09,335.4,787,323.28l15,1.15c-.22,2.9-21.23,290.41,65.23,369.66,90.51,83,167.5,227.1,175.27,328.13Z"/><path class="cls-10" d="M1072.8,1159.44l-25-3.34c-11.69-153.66,126.88-263.18,136.34-278.67,37.59-61.5,54.27-124.45,70.39-185.32,7.26-27.4,14.77-55.73,24.1-83.71,12.92-38.77,47.55-73.61,100.13-100.75a387.63,387.63,0,0,1,75.53-29.43l3.65,14.59c-1.36.34-136.66,35.16-165.05,120.34-9.18,27.53-16.62,55.63-23.83,82.81-16.4,61.91-33.37,125.94-72.09,189.31-9.53,15.59-19.69,31.62-29.51,47.12C1119.91,1007.34,1080.91,1086.52,1072.8,1159.44Z"/><path class="cls-10" d="M1202.49,858.15c-48.33-21.47-45.08-161.57-44.55-177.47l15,.5a614.16,614.16,0,0,0,3.1,76.74c5.36,48.84,16.91,79.56,32.52,86.5Z"/><path class="cls-10" d="M1016.93,672.69c-41.28-19.55-68.94-72.21-80-142.8a472,472,0,0,1-4.46-100.1l15,1.21c-.15,1.81-13.5,180.75,75.89,223.09Z"/><path class="cls-10" d="M942.51,578.72c-30.75,0-55.74-9.34-74.41-27.85-40.4-40.05-36-108.11-35.83-111l15,1.07c0,.64-4,64.16,31.47,99.3,18,17.81,43.46,25.53,75.68,23l1.2,15Q948.91,578.71,942.51,578.72Z"/><path class="cls-10" d="M804.69,578.21C674,578.21,662,452.34,661.92,451.06l15-1.25c.41,4.63,11.12,113.37,127.8,113.37Z"/><path class="cls-10" d="M870.86,707.82a64.65,64.65,0,0,1-9.82-.76l2.24-14.86c49.8,7.53,64.17-62.13,64.31-62.84l14.75,2.92C936.94,659.58,915.27,707.82,870.86,707.82Z"/><path class="cls-10" d="M1059.39,742.3l-8.34-17.52c41.38-27.59,66.86-50.07,71.83-129.5,5.11-81.82,45.27-127.87,47-129.79l11.23,10-5.62-5,5.63,5c-.38.43-38.45,44.38-43.22,120.75C1132.49,682.37,1103.31,713,1059.39,742.3Z"/><rect class="cls-10" x="1002.61" y="440.42" width="85.18" height="901.9"/><path class="cls-13" d="M295.56,505.18c33.66,2.2,64.36-10.59,83.74-31.94-16.44-23.67-45.22-40.34-78.89-42.53s-64.36,10.59-83.74,31.93C233.11,486.32,261.89,503,295.56,505.18Z"/><line class="cls-14" x1="229.47" y1="463.92" x2="373.1" y2="473.28"/><line class="cls-14" x1="259.1" y1="465.71" x2="244.18" y2="448.71"/><line class="cls-14" x1="283.59" y1="467.3" x2="265.21" y2="446.35"/><line class="cls-14" x1="308.08" y1="468.9" x2="277.35" y2="433.88"/><line class="cls-14" x1="332.57" y1="470.5" x2="302.67" y2="436.42"/><line class="cls-14" x1="357.06" y1="472.09" x2="340.41" y2="453.12"/><line class="cls-14" x1="256.12" y1="465.88" x2="239.13" y2="480.8"/><line class="cls-14" x1="280.61" y1="467.48" x2="254.11" y2="490.74"/><line class="cls-14" x1="305.1" y1="469.08" x2="271.93" y2="498.19"/><line class="cls-14" x1="329.59" y1="470.67" x2="295.52" y2="500.58"/><line class="cls-14" x1="354.08" y1="472.27" x2="324.81" y2="497.96"/><path class="cls-10" d="M420.21,514.75c29.71-16,49-43.12,54.06-71.49C447.78,431.91,414.54,433,384.83,449s-48.95,43.12-54.06,71.49C357.27,531.87,390.5,530.74,420.21,514.75Z"/><line class="cls-15" x1="342.3" y1="514.82" x2="469.03" y2="446.58"/><line class="cls-15" x1="368.37" y1="500.61" x2="346.71" y2="494.11"/><line class="cls-15" x1="389.98" y1="488.98" x2="363.28" y2="480.97"/><line class="cls-15" x1="411.59" y1="477.34" x2="366.96" y2="463.95"/><line class="cls-15" x1="433.2" y1="465.71" x2="389.78" y2="452.68"/><line class="cls-15" x1="454.81" y1="454.07" x2="430.63" y2="446.82"/><line class="cls-15" x1="365.94" y1="502.34" x2="359.44" y2="524"/><line class="cls-15" x1="387.55" y1="490.71" x2="377.41" y2="524.48"/><line class="cls-15" x1="409.16" y1="479.07" x2="396.47" y2="521.34"/><line class="cls-15" x1="430.77" y1="467.44" x2="417.74" y2="510.86"/><line class="cls-15" x1="452.38" y1="455.8" x2="441.18" y2="493.11"/><path class="cls-13" d="M293.53,368.72c29.64-16.11,48.78-43.31,53.77-71.69-26.54-11.25-59.77-10-89.41,6.12s-48.78,43.32-53.77,71.7C230.65,386.1,263.89,384.84,293.53,368.72Z"/><line class="cls-14" x1="215.62" y1="369.11" x2="342.08" y2="300.37"/><line class="cls-14" x1="241.63" y1="354.8" x2="219.95" y2="348.39"/><line class="cls-14" x1="263.19" y1="343.08" x2="236.46" y2="335.17"/><line class="cls-14" x1="284.76" y1="331.36" x2="240.08" y2="318.14"/><line class="cls-14" x1="306.32" y1="319.64" x2="262.85" y2="306.78"/><line class="cls-14" x1="327.88" y1="307.91" x2="303.68" y2="300.76"/><line class="cls-14" x1="239.21" y1="356.54" x2="232.79" y2="378.22"/><line class="cls-14" x1="260.77" y1="344.82" x2="250.77" y2="378.63"/><line class="cls-14" x1="282.33" y1="333.1" x2="269.82" y2="375.42"/><line class="cls-14" x1="303.89" y1="321.38" x2="291.04" y2="364.85"/><line class="cls-14" x1="325.46" y1="309.66" x2="314.42" y2="347"/><path class="cls-16" d="M1265.86,446.65c-30.6-14.22-63.85-13.39-89.62-.49,6.77,28,27.57,54,58.17,68.17s63.85,13.39,89.62.49C1317.26,486.81,1296.46,460.87,1265.86,446.65Z"/><line class="cls-17" x1="1312.57" y1="509.01" x2="1182.03" y2="448.36"/><line class="cls-18" x1="1285.58" y1="496.63" x2="1293.34" y2="517.87"/><line class="cls-18" x1="1263.32" y1="486.29" x2="1272.89" y2="512.47"/><line class="cls-18" x1="1241.06" y1="475.95" x2="1257.06" y2="519.71"/><line class="cls-18" x1="1218.81" y1="465.61" x2="1234.37" y2="508.19"/><line class="cls-18" x1="1196.55" y1="455.27" x2="1205.22" y2="478.98"/><line class="cls-18" x1="1288.42" y1="497.54" x2="1309.66" y2="489.78"/><line class="cls-18" x1="1266.16" y1="487.2" x2="1299.28" y2="475.1"/><line class="cls-18" x1="1243.91" y1="476.86" x2="1285.36" y2="461.71"/><line class="cls-18" x1="1221.65" y1="466.52" x2="1264.22" y2="450.96"/><line class="cls-18" x1="1199.39" y1="456.18" x2="1235.97" y2="442.81"/><ellipse class="cls-19" cx="1339.66" cy="601" rx="96.24" ry="44.07" transform="matrix(0.94, -0.34, 0.34, 0.94, -124.76, 494.39)"/><line class="cls-20" x1="1415.65" y1="572.79" x2="1255.91" y2="630.93"/><line class="cls-21" x1="1382.76" y1="584.94" x2="1406.97" y2="596.23"/><line class="cls-21" x1="1355.53" y1="594.86" x2="1385.36" y2="608.77"/><line class="cls-21" x1="1328.29" y1="604.77" x2="1378.16" y2="628.03"/><line class="cls-21" x1="1301.05" y1="614.68" x2="1349.57" y2="637.31"/><line class="cls-21" x1="1273.81" y1="624.6" x2="1300.83" y2="637.2"/><line class="cls-21" x1="1385.9" y1="583.34" x2="1397.19" y2="559.13"/><line class="cls-21" x1="1358.66" y1="593.25" x2="1376.26" y2="555.51"/><line class="cls-21" x1="1331.42" y1="603.16" x2="1353.45" y2="555.93"/><line class="cls-21" x1="1304.19" y1="613.07" x2="1326.81" y2="564.55"/><line class="cls-21" x1="1276.95" y1="622.99" x2="1296.39" y2="581.3"/><path class="cls-10" d="M515.45,0S158.2,104.51,256.89,307.47c92.39,190,279.53-62.89,293.5-139.76S354.72,370.37,473.52,419.28,829.91,258.56,815.94,174.7,571.36,377.36,732.08,475.19,948.71,363.38,941.72,251.57s-90.84,237.59,21,251.57,139.76-223.62,118.79-265.55S962.69,566,1172.33,545.07s111.81-223.62,83.86-265.55,0,293.5,209.64,188.68S1556.67,41.93,1375,34.94,515.45,0,515.45,0Z"/><path class="cls-13" d="M646.21,541.11c19.81-10.67,32.65-28.76,36.06-47.68-17.67-7.58-39.85-6.82-59.66,3.85S590,526,586.55,545C604.22,552.54,626.39,551.78,646.21,541.11Z"/><line class="cls-14" x1="594.23" y1="541.16" x2="678.77" y2="495.64"/><line class="cls-14" x1="611.62" y1="531.68" x2="597.18" y2="527.35"/><line class="cls-14" x1="626.04" y1="523.92" x2="608.23" y2="518.58"/><line class="cls-14" x1="640.46" y1="516.16" x2="610.68" y2="507.23"/><line class="cls-14" x1="654.87" y1="508.4" x2="625.91" y2="499.71"/><line class="cls-14" x1="669.29" y1="500.64" x2="653.16" y2="495.8"/><line class="cls-14" x1="610" y1="532.84" x2="605.67" y2="547.29"/><line class="cls-14" x1="624.42" y1="525.08" x2="617.66" y2="547.61"/><line class="cls-14" x1="638.83" y1="517.32" x2="630.37" y2="545.51"/><line class="cls-14" x1="653.25" y1="509.56" x2="644.56" y2="538.52"/><line class="cls-14" x1="667.66" y1="501.79" x2="660.2" y2="526.68"/><path class="cls-10" d="M626.76,432.61c28.26-27.81,41-64.75,37.48-98.43-33.62-4.1-70.75,8.11-99,35.93s-41.05,64.75-37.48,98.43C561.37,472.64,598.5,460.43,626.76,432.61Z"/><line class="cls-22" x1="538.88" y1="458.32" x2="659.43" y2="339.65"/><line class="cls-22" x1="563.62" y1="433.72" x2="537.04" y2="433.51"/><line class="cls-22" x1="584.18" y1="413.48" x2="551.42" y2="413.23"/><line class="cls-22" x1="604.73" y1="393.25" x2="549.97" y2="392.82"/><line class="cls-22" x1="625.29" y1="373.01" x2="572.01" y2="372.59"/><line class="cls-22" x1="645.84" y1="352.78" x2="616.17" y2="352.54"/><line class="cls-22" x1="561.45" y1="436.47" x2="561.24" y2="463.05"/><line class="cls-22" x1="582" y1="416.24" x2="581.68" y2="457.67"/><line class="cls-22" x1="602.56" y1="396" x2="602.15" y2="447.86"/><line class="cls-22" x1="623.11" y1="375.77" x2="622.7" y2="429.04"/><line class="cls-22" x1="643.67" y1="355.53" x2="643.31" y2="401.3"/><path class="cls-10" d="M741.9,384c-17.39-25.78-47.13-38.86-78.36-37.75-12.72,28.54-11.75,61,5.65,86.8s47.13,38.86,78.36,37.75C760.27,442.22,759.3,409.74,741.9,384Z"/><line class="cls-23" x1="741.35" y1="460.64" x2="667.16" y2="350.65"/><line class="cls-23" x1="725.91" y1="438.05" x2="718.57" y2="460.78"/><line class="cls-23" x1="713.26" y1="419.3" x2="704.21" y2="447.31"/><line class="cls-23" x1="700.61" y1="400.54" x2="685.49" y2="447.37"/><line class="cls-23" x1="687.96" y1="381.79" x2="673.25" y2="427.35"/><line class="cls-23" x1="675.31" y1="363.03" x2="667.11" y2="388.4"/><line class="cls-23" x1="727.8" y1="440.07" x2="751.62" y2="441.78"/><line class="cls-23" x1="715.15" y1="421.32" x2="752.29" y2="423.98"/><line class="cls-23" x1="702.5" y1="402.56" x2="748.98" y2="405.9"/><line class="cls-23" x1="689.84" y1="383.81" x2="737.6" y2="387.23"/><line class="cls-23" x1="677.19" y1="365.05" x2="718.22" y2="367.99"/></g><path class="cls-13" d="M864.54,520.41c20.64-14.8,35.2-34.12,42.7-50.49,7.52-16.58,8-30.22.86-38.66s-20.88-11.08-37.38-11.21a170.77,170.77,0,0,0-54.29,9c-36.46,11.69-58.73,44-49.1,79C776.81,542.94,822.86,551.58,864.54,520.41Z"/><path class="cls-13" d="M1129.48,273.73V518.47c-41.14,24.5-92.67,29.07-143.28-15.66-34.15-30.17-43-74.26-86.82-99.95C853.5,376,769.34,452,658.64,405.25c-46-19.41-110.67-64.52-159.22-131.52Z"/><g class="cls-24"><path class="cls-13" d="M831.84,1534.27s163.33-172.9,158-269.62S879.42,1060,847.13,1239.17,875.11,1462.07,831.84,1534.27Z"/><path class="cls-25" d="M924.44,1184.86s20.74,207.41-92.6,349.41"/><path class="cls-13" d="M1041.59,1150.64s14.39-5.94,21.18-19c2.46-4.73,2.74-15-2.17-17.51s-12,1.39-15.59,8.25C1038.22,1135.44,1041.59,1150.64,1041.59,1150.64Z"/><path class="cls-13" d="M1028.69,1171.54s4.72-12.78.25-24.65c-1.62-4.3-8.15-10.32-12.76-8.59s-6.29,8.62-3.93,14.87C1016.72,1165.05,1028.69,1171.54,1028.69,1171.54Z"/><path class="cls-13" d="M1018.65,1198.37s-.89-13.58-9.82-22.6c-3.24-3.26-11.66-6.08-15.16-2.62s-2.22,10.43,2.48,15.18C1005.08,1197.34,1018.65,1198.37,1018.65,1198.37Z"/><path class="cls-13" d="M1028.71,1172.32s11.24,5.73,23.79,3.89c4.55-.66,11.93-5,11.35-9s-6.84-6.37-13.45-5.4C1037.84,1163.62,1028.71,1172.32,1028.71,1172.32Z"/><path class="cls-13" d="M1017,1197.7s11.29,6.15,23.84,4.31c4.55-.66,11.9-5.22,11.29-9.44s-6.9-6.79-13.52-5.82C1026,1188.58,1017,1197.7,1017,1197.7Z"/><path class="cls-13" d="M1007.4,1235.06s8.89,6.51,18.47,5.11c3.48-.51,9-4.81,8.35-9s-5.53-7-10.57-6.25C1014.06,1226.29,1007.4,1235.06,1007.4,1235.06Z"/><path class="cls-13" d="M1006,1234.52s.23-10.51-5.85-18.82c-2.21-3-8.32-6.53-11.16-4.44s-2.36,7.6.84,12C995.87,1231.55,1006,1234.52,1006,1234.52Z"/><path class="cls-13" d="M937,1373.93a13.26,13.26,0,0,1-5.27-1.53l1.34-2.21-.67,1.1.67-1.1c.21.13,5.26,3,13.28-.47,9-3.92,17.83-14.07,26.29-30.14,11.6-22,22.07-54.74,31.13-97.19,10.52-49.3,24.84-72.73,34.32-88.24,2.43-4,4.53-7.41,6-10.47l2.32,1.14c-1.55,3.17-3.68,6.65-6.14,10.68-9.39,15.35-23.58,38.56-34,87.43-20.16,94.49-43.24,122.43-59,129.22A20.46,20.46,0,0,1,937,1373.93Z"/><path class="cls-7" d="M975.62,1400.27a556.73,556.73,0,0,1-64.72-272.61c1.68-71,16.93-117.54,17.08-118l4.15,1.38c-.15.46-15.21,46.48-16.86,116.9a552.42,552.42,0,0,0,64.22,270.28Z"/><path class="cls-7" d="M927.75,1015.85s-4-13.61.94-26.68c1.77-4.73,8.42-11.58,12.82-9.92s5.71,9,3.12,15.91C939.71,1008.23,927.75,1015.85,927.75,1015.85Z"/><path class="cls-7" d="M923,1039.6s4.22-11.92,14.62-19.2c3.77-2.64,12.16-4.5,14.49-1.18s-.58,9.37-6.06,13.21C935.64,1039.71,923,1039.6,923,1039.6Z"/><path class="cls-7" d="M918.52,1080.54s4.54-10.7,14.23-15.35c3.52-1.68,11.07-1.49,12.91,2.34s-1.15,9.07-6.26,11.52C929.71,1083.7,918.52,1080.54,918.52,1080.54Z"/><path class="cls-7" d="M924.66,1038.43s-11.55-.26-19.41-7.49c-2.85-2.64-5.44-9.68-2.59-12.77s8.8-2.29,12.94,1.53C923.45,1027,924.66,1038.43,924.66,1038.43Z"/><path class="cls-7" d="M934.74,1295.9s-11.24,3.71-22.28,0c-4-1.36-9.87-6.72-8.6-10.45s7.37-5,13.19-3.05C928.08,1286.11,934.74,1295.9,934.74,1295.9Z"/><path class="cls-7" d="M916,1080.14s-13.18-1.33-22.78-10.18c-3.48-3.21-7.08-11.37-4.11-14.6s9.81-1.76,14.87,2.91C913.58,1067.12,916,1080.14,916,1080.14Z"/><path class="cls-7" d="M911.59,1123.87s-13.19.65-21.58-7.09c-3-2.8-5.45-10.74-1.93-14.56s10.24-3.35,14.66.73C911.14,1110.69,911.59,1123.87,911.59,1123.87Z"/><path class="cls-7" d="M914.89,1123.24s2.75-12.7,12.38-19.4c3.49-2.42,11.78-3.35,14.57.67s.63,10.37-4.45,13.89C927.76,1125.1,914.89,1123.24,914.89,1123.24Z"/><path class="cls-7" d="M936.41,1297.24a35.4,35.4,0,0,1,4.14-21.86c2.23-4,9.24-10.1,13.13-9.08s4.2,6.94,1,12.76C948.46,1290.12,936.41,1297.24,936.41,1297.24Z"/><path class="cls-7" d="M916.86,1208.64s3.95-7.56,14.17-12c3.7-1.61,12-2.62,14.44-.44s-.38,6-5.76,8.35C929.49,1209,916.86,1208.64,916.86,1208.64Z"/><path class="cls-7" d="M912,1169.12a25.57,25.57,0,0,1-14.66-8.27c-2.42-2.68-5.47-9.59-4.08-12.41s5.63-1.7,9.16,2.19C909.11,1158,912,1169.12,912,1169.12Z"/><path class="cls-7" d="M926.33,1255.43s-1.84-13.65,2.45-22.9c1.55-3.35,6.61-6.38,9.55-3s3.34,10.41,1.08,15.28A18.7,18.7,0,0,1,926.33,1255.43Z"/><path class="cls-7" d="M918.05,1210.11s-16.08,0-27.47-6.27c-4.13-2.28-8.19-8.49-4.4-11.31s12.09-2.2,18.09,1.11C915.67,1199.92,918.05,1210.11,918.05,1210.11Z"/><path class="cls-7" d="M925,1257.58s-15.25,0-25.32-6.09c-3.65-2.19-6.78-8.18-2.88-10.89s11.72-2.08,17,1.1A23.15,23.15,0,0,1,925,1257.58Z"/><path class="cls-7" d="M1056.42,1058.23s-11.24,3.72-22.28,0c-4-1.36-9.87-6.73-8.6-10.46s7.38-5,13.19-3C1049.77,1048.44,1056.42,1058.23,1056.42,1058.23Z"/><path class="cls-7" d="M948.66,1335.36s-.55-8.54,6-17.58c2.36-3.28,9-8.41,12.28-7.75s2.83,5.38-.6,10.14C959.79,1329.22,948.66,1335.36,948.66,1335.36Z"/><path class="cls-7" d="M962,1158.57s3.22-12.39,10.29-19.66c2.57-2.63,8.1-4.27,9.49-.68s-.75,9.85-4.48,13.68A20.87,20.87,0,0,1,962,1158.57Z"/><path class="cls-7" d="M913.59,1171.74a44.65,44.65,0,0,1,12.52-19.86c3.6-3.38,12.3-7.88,15.33-6.21s.94,7.3-4.32,12.2C927.18,1167.19,913.59,1171.74,913.59,1171.74Z"/><path class="cls-9" d="M994.16,1316.15C935.79,1363.6,905,1431,905.66,1495.3c62.76,13.79,135.08-2.58,193.46-50s89.18-114.9,88.5-179.15C1124.86,1252.33,1052.54,1268.7,994.16,1316.15Z"/><line class="cls-26" x1="1164.77" y1="1283.43" x2="915.73" y2="1485.84"/><line class="cls-26" x1="1113.61" y1="1325.43" x2="1163.76" y2="1330.61"/><line class="cls-26" x1="1071.15" y1="1359.95" x2="1132.96" y2="1366.33"/><line class="cls-26" x1="1028.68" y1="1394.46" x2="1132.02" y2="1405.13"/><line class="cls-26" x1="986.22" y1="1428.97" x2="1086.76" y2="1439.36"/><line class="cls-26" x1="943.76" y1="1463.48" x2="999.74" y2="1469.27"/><line class="cls-26" x1="1118.21" y1="1320.62" x2="1123.39" y2="1270.47"/><line class="cls-26" x1="1075.75" y1="1355.14" x2="1083.83" y2="1276.94"/><line class="cls-26" x1="1033.28" y1="1389.65" x2="1043.39" y2="1291.78"/><line class="cls-26" x1="990.82" y1="1424.17" x2="1001.2" y2="1323.63"/><line class="cls-26" x1="948.36" y1="1458.68" x2="957.28" y2="1372.3"/><path class="cls-27" d="M765.67,1151.48c-11,12.84-18,32.51-18,54.61,0,33,15.76,60.69,37,68.08,11-12.84,18-32.51,18-54.6C802.63,1186.53,786.87,1158.86,765.67,1151.48Z"/><path class="cls-27" d="M755.6,1282.72c-16.66-20.52-39-32-58-31.92.87,15.71,7.72,33.33,20.3,48.82,16.65,20.52,39,32,58,31.93C775,1315.83,768.17,1298.22,755.6,1282.72Z"/><path class="cls-27" d="M781.62,1351.77c-9.8-11.48-24.12-20.57-41.24-24.93-27.68-7-54.88.33-70.32,16.84,9.79,11.48,24.11,20.58,41.22,24.93C739,1375.64,766.16,1368.29,781.62,1351.77Z"/><path class="cls-27" d="M841.94,1315.81c-25.67,7.75-44.44,26.11-50.54,46.64,16.18,9.43,38.21,12,60.12,5.44,25.66-7.74,44.43-26.11,50.54-46.63C885.86,1311.83,863.85,1309.2,841.94,1315.81Z"/><path class="cls-27" d="M832.31,1241.6c-19.68,11.16-32,29.76-34.63,48.79,15.31,3.29,32.66.89,48.32-8,19.72-11.19,32-29.93,34.36-49.1C865.1,1230.24,847.89,1232.77,832.31,1241.6Z"/><rect class="cls-27" x="782.04" y="1267.3" width="3.16" height="258.47"/><polygon class="cls-27" points="782.14 1303.06 784.18 1305.47 802.54 1290.11 800.53 1287.69 782.14 1303.06"/><path class="cls-27" d="M704.7,1425.11c18.55,13,40.66,16.08,58.95,10.21-3.63-15.24-13.28-29.85-28-40.16-18.6-13-40.8-15.94-59.11-9.83C680.3,1400.43,690,1414.86,704.7,1425.11Z"/><polygon class="cls-27" points="781.78 1443.87 783.08 1441 761.3 1431.05 759.98 1433.91 781.78 1443.87"/><rect class="cls-27" x="777.54" y="1365.66" width="23.96" height="3.16" transform="translate(-789.02 1336.89) rotate(-58.89)"/><polygon class="cls-27" points="783.2 1340.18 785.22 1337.75 774.19 1328.57 772.18 1330.99 783.2 1340.18"/><polygon class="cls-27" points="782.94 1355.79 784.06 1352.83 779.99 1351.3 778.88 1354.26 782.94 1355.79"/><path class="cls-27" d="M811.62,1386.89c16.66-20.51,39-32,58-31.91-.88,15.71-7.73,33.32-20.3,48.82-16.66,20.52-39,32-58,31.92C792.2,1420,799.06,1402.39,811.62,1386.89Z"/><path class="cls-27" d="M785.6,1455.94c9.8-11.48,24.12-20.56,41.24-24.93,27.68-7,54.88.33,70.32,16.84-9.79,11.48-24.11,20.59-41.22,24.93C828.26,1479.81,801.05,1472.46,785.6,1455.94Z"/><polygon class="cls-27" points="784.02 1444.36 782 1441.93 793.03 1432.75 795.04 1435.16 784.02 1444.36"/><rect class="cls-27" x="783.58" y="1456.14" width="4.34" height="3.16" transform="translate(-463.58 370.74) rotate(-20.65)"/><path class="cls-27" d="M768.8,1488.1A57,57,0,0,0,743.48,1465c-18.34-8.74-38.35-7.4-51.42,2a56.9,56.9,0,0,0,25.3,23.14C735.71,1498.84,755.71,1497.48,768.8,1488.1Z"/><path class="cls-13" d="M651.47,1385.92s-26.66-6-42.11-1.3c-19.08,5.8-25.36,22.76-27.35,26.92-.14.3,6.87,6.31,16.33,9.42,4.74,1.56,18.85,3.29,29.82-2.51s14.2-8.13,17.28-13.89C648.34,1399.13,648.9,1387.89,651.47,1385.92Z"/><path class="cls-13" d="M626,1372.24s-20.4-8.34-30-17.89c-11.35-11.28-14.66-29-14.66-29a118.9,118.9,0,0,0,10.77,6.07c5.76,2.67,24.26,5.86,31.18,15C627.72,1352.24,631.36,1357.68,626,1372.24Z"/><path class="cls-13" d="M701.91,1416.56s-16.23.15-27.64,4.8-25.55,14.5-30.38,36.84a32.54,32.54,0,0,1,10.56-2.76c5.12-.24,22,1.27,34.4-6.83,7.44-4.87,9.45-8.46,11.68-13.57S700.29,1418.34,701.91,1416.56Z"/><path class="cls-13" d="M662.45,1385a9.79,9.79,0,0,0-1.66-6.09c-4.64-6.07-8.66-7.94-10-13.83s.22-15.55.22-15.55,14.42,5.36,16.49,14.08C669.5,1372.09,669.35,1376,662.45,1385Z"/><path class="cls-13" d="M581.42,1367.32s-6.11-6.21-19-5.46-16.63,4.41-16.92,5.46,2,2.88,8.87,5.19c5.8,1.94,10.22,3.21,17.45,1.09S581.42,1367.32,581.42,1367.32Z"/><path class="cls-13" d="M708.36,1415.57a256.12,256.12,0,0,1,26.16,24.11,14.09,14.09,0,0,0-2.09,1.77,254.28,254.28,0,0,0-25.79-23.74c-26.76-21.39-70.76-47.12-128.29-48.19l.06-2.73C636.71,1367.87,681.26,1393.92,708.36,1415.57Z"/></g></g></g></svg>