<svg xmlns="http://www.w3.org/2000/svg" xmlns:xlink="http://www.w3.org/1999/xlink" viewBox="0 0 1338.26 1099.78"><defs><style>.cls-1,.cls-15,.cls-18,.cls-19,.cls-3,.cls-5,.cls-6,.cls-7{fill:none;}.cls-2{fill:#e6bfec;}.cls-3,.cls-7{stroke:#fff;}.cls-15,.cls-18,.cls-19,.cls-3,.cls-5,.cls-6,.cls-7{stroke-miterlimit:10;}.cls-3{stroke-width:1.88px;}.cls-4{fill:#d6a4de;}.cls-5,.cls-6{stroke:#0c1153;}.cls-5{stroke-width:0.97px;}.cls-6{stroke-width:0.98px;}.cls-7{stroke-width:2.25px;}.cls-8{fill:#fff;}.cls-9{fill:#ffc4ad;}.cls-10{fill:#e6b09c;}.cls-11{fill:#090f4d;}.cls-12{fill:#553973;}.cls-13{fill:#ff586b;}.cls-14{clip-path:url(#clip-path);}.cls-15{stroke:#b22097;stroke-width:4.55px;}.cls-16{fill:#0c1153;}.cls-17{fill:#b22097;}.cls-18{stroke:#d25bbb;stroke-width:2.21px;}.cls-19{stroke:#d6a4de;stroke-width:3.26px;}</style><clipPath id="clip-path"><rect class="cls-1" x="529.8" y="251.24" width="602.93" height="718.59"/></clipPath></defs><title>Asset 6</title><g id="Layer_2" data-name="Layer 2"><g id="dizajn"><g id="model_-_be_your_own_kind" data-name="model - be your own kind"><path class="cls-2" d="M219.88,749.59c-249-48-243.47-264.06-168-285s133.53-57.93,102.48-99.22S191.75,263.42,295,327.92s49.81-68.1-14.21-134.18C173.43,83,378.49-35.53,421.21,101.46c66.67,213.81,239.07,196.42,257.88,106.41,17.84-85.34,101.85-124.34,149.84-54.77,49.44,71.66-108,139.57,5,133.24,51.46-2.89,39.77,45.25,20.89,82.39-25.82,50.83,10.74,123.49,82.54,37s13.51-146.83,33.6-204c49.39-140.63,219.5-66,192.38,31.41s-81.81,164.19-88.49,216,45.29,99.53,96.22,24.85c69.07-101.27,180.73,35.34,104.93,133.46-36.86,47.72-118,43.25-172.86,73.46s-88.86,87.71-3,117.33c200.44,69.15,101.53,260.19,11.33,288.09-68.6,21.21-109.43,16.67-198.46-48.62-108-79.2-578,172-519.05-21C472,760.92,309.16,766.8,219.88,749.59Z"/><path class="cls-2" d="M250.61,88.46l-29.57-2A437.68,437.68,0,0,1,201,9a205.44,205.44,0,0,1,61.6-9c105.41.73,197,175.13,125.46,303.15-44-19.58-92.94-69.09-131.94-139.2a514.85,514.85,0,0,1-26.55-55.22Z"/><path class="cls-3" d="M201,9s181.4,74,187.06,294.18"/><line class="cls-3" x1="247.29" y1="0.4" x2="254.44" y2="41.25"/><line class="cls-3" x1="282.21" y1="2.76" x2="288.25" y2="69.3"/><line class="cls-3" x1="316.64" y1="16.25" x2="318.59" y2="102.66"/><line class="cls-3" x1="353.56" y1="45.91" x2="342.58" y2="138.29"/><line class="cls-3" x1="380.29" y1="82.88" x2="359.85" y2="171"/><line class="cls-3" x1="402.62" y1="133.68" x2="375.68" y2="217.21"/><line class="cls-3" x1="412.94" y1="189.91" x2="384.77" y2="262.57"/><line class="cls-3" x1="210.55" y1="51.89" x2="253.8" y2="39.83"/><line class="cls-3" x1="288.25" y1="69.3" x2="219.69" y2="82.69"/><line class="cls-3" x1="318.59" y1="102.66" x2="237.36" y2="125.91"/><line class="cls-3" x1="342.58" y1="138.29" x2="258.45" y2="168.44"/><line class="cls-3" x1="359.85" y1="171" x2="280.44" y2="203.21"/><line class="cls-3" x1="375.68" y1="217.21" x2="309.37" y2="240.85"/><line class="cls-3" x1="384.77" y1="262.57" x2="341.97" y2="272.52"/><path class="cls-2" d="M585.88,230.32s27.07,17.93,47.52,1.92,35-34.47,18.93-45.6S556.9,189.32,585.88,230.32Z"/><path class="cls-4" d="M256.12,291.25C277.74,361.91,327.76,414.88,386.5,438c35.75-52,47.57-123.92,25.95-194.59S340.81,119.78,282.07,96.65C246.32,148.69,234.5,220.58,256.12,291.25Z"/><line class="cls-5" x1="289.37" y1="123.85" x2="381.61" y2="425.34"/><line class="cls-6" x1="308.71" y1="185.94" x2="331.95" y2="142.2"/><line class="cls-6" x1="324.44" y1="237.35" x2="353.09" y2="183.44"/><line class="cls-6" x1="340.16" y1="288.76" x2="388.06" y2="198.63"/><line class="cls-6" x1="355.89" y1="340.16" x2="402.49" y2="252.48"/><line class="cls-6" x1="371.62" y1="391.57" x2="397.57" y2="342.75"/><line class="cls-6" x1="306.03" y1="179.98" x2="262.29" y2="156.73"/><line class="cls-6" x1="321.76" y1="231.38" x2="253.56" y2="195.14"/><line class="cls-6" x1="337.48" y1="282.79" x2="252.12" y2="237.43"/><line class="cls-6" x1="353.21" y1="334.2" x2="265.53" y2="287.6"/><line class="cls-6" x1="368.94" y1="385.6" x2="293.61" y2="345.57"/><path class="cls-2" d="M390.4,450.14c-.16.47-12.4-22.53-9.55-37.68,1.88-10.16,10.65-23.23,10.65-23.21a41.44,41.44,0,0,1,4.05,16.69C395.67,415.32,389.6,442.49,390.4,450.14Z"/><path class="cls-2" d="M385.48,448.54s-11.29,7.21-20.67,14.53S349,475.61,342.23,482.23a109.72,109.72,0,0,0-8.62,9.13c-.06.06,18.12-6.15,29.31-15.83S384.47,452.57,385.48,448.54Z"/><path class="cls-2" d="M361.61,441.21c-.09.39-7.27-28.2-5.16-40.29,2.43-13.92,13.1-33.56,14.87-37.74,0,0,.2,17.28-.19,32.31S367.81,433.78,361.61,441.21Z"/><path class="cls-2" d="M358.06,442s-3.29,1.35-11,5-28.88,13.84-36.15,19-19.8,18.08-24,22.63c-1.62,1.74,14.35-5.47,24.38-10.76,7.54-4,18.85-9.82,25.26-15.34,3-2.57,15.55-15.62,23.63-17.84S358,442,358.06,442Z"/><path class="cls-2" d="M344.5,433.9c-.08.25-9.15-21.13-9.09-32.71A117.11,117.11,0,0,1,341,365c4.12-12.33,7.7-23.3,7.7-23.3s3.06,16.74,2.81,28.92.53,23.38-2.22,36.06S344.5,433.93,344.5,433.9Z"/><path class="cls-2" d="M337.8,431.89c-4.08-.47-8.24-.44-17.35,4.15s-30.75,13.08-40.79,21.3-24.79,20-25.63,20.35,25.51-6.53,39.29-14.85c11.34-6.87,22.64-15.53,29.35-20.6s14.08-9.24,19-9.33A23.5,23.5,0,0,0,337.8,431.89Z"/><path class="cls-2" d="M320.68,418.53s-4.68-8.15-5.58-25.1-1.33-32.84-.45-40.91,6.3-24.74,6.55-27.22,5,16.25,5.63,22.08.71,17.69-1.91,31.72S320.37,413.52,320.68,418.53Z"/><path class="cls-2" d="M318.75,418.07c-5.25,1-16.07,5.88-22.5,8.61S285,434.05,261.32,442c-20.77,7-36.52,6.94-36.53,6.94s3.33-2.16,14.29-10.45,30.17-12.13,46.37-16.83a130,130,0,0,1,28.2-5.06C315.34,417.13,317,417.6,318.75,418.07Z"/><path class="cls-2" d="M299,406.26c0,.2-6.1-28.47-7.57-43.92-1.51-15.15-3.57-26.95,3.31-41.53s8.93-23.15,8.93-23.15,1.66,20.23,1.11,35.67c-.55,15.59-1.22,35.91-2.38,42.7C301.25,383,301.59,404.75,299,406.26Z"/><path class="cls-2" d="M289.46,394.07c-6.31-.48-12.57-.06-25.6,2.83-12.33,2.73-26.35,6.22-33,9.75s-28,15.23-28.51,15.6,19.41,1.8,30.61-2.07,21.2-6.24,34.75-14.84,22.42-9.65,27.74-7.69S291,394.22,289.46,394.07Z"/><path class="cls-2" d="M279,381.26s-3-13.81-.57-23.28c2.47-9.3,3.4-35,2.9-43.43-.45-8.21-1.22-43.49-2-46.24s-2.5,13-6.3,24-4.4,30-3.5,44.28c.89,14.48,4.7,38.92,5.87,42S279,381.26,279,381.26Z"/><path class="cls-2" d="M269.18,373.07s-12.5.67-23.13,2.24-27.65,7.34-32.38,8.24-26,11.62-26.72,11.33,15.64,3,31.23.23,25.75-7.29,35.8-12.29,17.06-6.36,20.27-4.95S269.16,373.1,269.18,373.07Z"/><path class="cls-2" d="M250,346.46c0,.09-3.61-27.54-3.65-40.68s-1.28-28.15.2-39.31,3.6-28.23,3.59-28.25,5,22.52,6.12,37.79,2.25,32,.75,48.17a204.55,204.55,0,0,1-4.67,28.46Z"/><path class="cls-2" d="M246.49,347.62c-.06,0-21.87.5-32.59,2.45s-27.86,7.27-34.44,11.06a108.8,108.8,0,0,1-12.93,6.2c-.07-.15,31.52.72,44.43-4.11,12.72-5.08,36.52-12.26,43.68-8.39S246.45,347.67,246.49,347.62Z"/><path class="cls-2" d="M230.07,320.5c0,.08-5.14-30.23-6.46-40.44s-.74-28.57,1.55-38,6.51-32.07,5.69-36.84,5.84,17.37,5.71,33.43-1.24,38.49-2.18,56-2.6,25.06,1.3,33.47S230.07,320.52,230.07,320.5Z"/><path class="cls-2" d="M226.55,319.89s-12.9-1.27-22.19.23-21.89,6.43-28.18,8.33-26.55,13.2-28.09,13c-1.56-.41,22.8,2.65,38.5-2.76,15.68-5.57,25.91-11.49,32.11-12.71a79.2,79.2,0,0,1,12.78-1.27Z"/><path class="cls-2" d="M208.76,288.66s-4.44-25.33-4.53-43.4,5.84-40.39,7.66-48.68a68,68,0,0,1,3.74-12.48,331,331,0,0,1,2.74,33.36c.5,17.34-3.32,37.86-5.25,47s-2.35,26.47-1,30S208.76,288.65,208.76,288.66Z"/><path class="cls-2" d="M208,292.42s-17.16-2.81-28.67.49-22.4,5.61-27.85,8.49-20.27,8.36-20.26,8.41,15,3.5,29.15.88c10.59-2.2,38-13.94,48-14.45C216.34,295.72,208,292.42,208,292.42Z"/><path class="cls-2" d="M192.1,264s-8.76-24.73-8.1-47.52a219.27,219.27,0,0,1,7.11-46.17c3.76-13,4.25-21.37,4.25-21.37s4.07,15.49,4.13,26.29-.51,29-1.9,43.74-6.49,41.73-2.77,49.51S192.11,264,192.1,264Z"/><path class="cls-2" d="M189.33,260.79s-8.18-.44-15.93-.41-23.7.28-32.23,4.23c-8.53,3.64-31.37,14.45-32.75,14.47-1.33-.31,21.25,2.69,32.88.94,11.68-2.12,32.15-10.18,42.07-13.17S192.16,261.08,189.33,260.79Z"/><path class="cls-2" d="M172.88,236.31c.11,0-8.59-33.81-9.3-49.62a270.76,270.76,0,0,1,3-49.07c2.43-15.59,3.75-19.76,3.76-19.76s6.78,30.46,6.82,44.53c.19,14,.65,28.18-1.08,42.54S173.2,235,177.5,242.5,172.91,236.28,172.88,236.31Z"/><path class="cls-2" d="M173.08,238.5s-6.54-2.42-18.29-6-26.62-6.21-33.3-5.16c-6.64.68-33,14.44-33.83,14.88-.71-.07,23.79,6.74,36,6,14.63-1.25,26-6.78,40.74-6.16,14.69.8,15,2.64,15,2.59C177.25,242.62,175.18,240.55,173.08,238.5Z"/><path class="cls-2" d="M155.34,211.07s-5.19-12.59-9.29-34.39-6.71-34.69-5.85-46.54,3.55-28.69,3.54-28.69,6.41,15.24,8.12,27.25,3.06,36.38,3.6,51.43,1.44,30.62,6.2,40.06S155.41,211,155.34,211.07Z"/><path class="cls-2" d="M152.13,207.67s-12.82-11.71-29-11.92-23.72-1.35-30.3,1.45C86.34,199.8,63,209.88,63,210.09c.29-.65,35.45,3.52,48.5,2.61,13.35-1.74,26.86-7.08,40.67-2.86C159.23,212.06,152.13,207.66,152.13,207.67Z"/><path class="cls-2" d="M133.66,185.24c.05-.05-7.6-19.36-11-32.19s-6.41-25.85-6.91-44.13-.29-26.45-.26-26.46,10,9.27,14.16,30,3.8,38.38,4.85,48.07S136,184,138.07,189.34,133.68,185.21,133.66,185.24Z"/><path class="cls-2" d="M119.29,172.57c.16-.38-28.34-6-39.62-7.29-15.86-2.89-40.6,13-43.23,14-2.32.21,31.6,3.35,42.92,2.91,6.65-1.05,32-4.41,41.17-3.05C129.76,180.2,126.17,175.59,119.29,172.57Z"/><path class="cls-2" d="M112.16,162.12s-5.23-13-9.9-24.76c-4.51-11.89-12.59-32.71-13-41.91s.53-25.52.52-25.52S100.6,76,104.61,91.78a241.1,241.1,0,0,1,7.14,41.62c.82,11.11,2.94,29.38,6.79,34.51S112.21,162,112.16,162.12Z"/><path class="cls-2" d="M95.41,148.66a74.4,74.4,0,0,0-22.34-6c-12-1.25-26.83-1.23-36.72.16-9.79,1.14-26.37,7.58-26.4,7.67.19-.31,24.74,3.21,38,3.47,13.69-.61,40.35-4,51.69-.61C109.36,155.9,95.47,148.56,95.41,148.66Z"/><path class="cls-2" d="M91.28,142.33s-8-14.4-15.39-20.34c-7.2-6.19-19.08-21.82-22-31.85-2.69-10.23-6.69-22.75-6.71-22.73s11.24,8.72,16,14.68S73.84,94.7,81.4,110.76s15,35.14,17,38.67S91.34,142.25,91.28,142.33Z"/><path class="cls-2" d="M84,139.52c0,.06-4.3-2.62-16.3-7-11.82-4.66-33.55-11.71-40-14.83C21.84,113.83,2.86,96.14.11,96c-2.14-1.08,28.51,2.23,36.25,5.77,8.2,2.76,18.61,5.18,24.52,11.2,6.21,5.61,23.48,24.49,26.76,26.49C91.14,141.11,84,139.49,84,139.52Z"/><path class="cls-2" d="M445.89,454.88c-.89,1.49-62.84,3.74-96.89-14.35-38.87-13.48-93-76.27-106.13-96-13.55-18-58.28-90.36-71-105.83-13.55-20-55-72.18-77.43-88.73-12.56-10.76-20.56-20.53-21.79-21.15-1.15-.78,16.59,9.81,21.5,14.42,5.38,3.89,28.89,25.66,40.52,40.69,12.15,14.28,31.81,39.27,39.45,50.63,8.34,10.52,47.89,72,72,105.22,5.86,7.08,25.11,32.54,48.8,53.81,23.4,21.85,51.23,39.49,67.43,44.54,24.24,9.17,48.85,9.83,61.08,8.92C435.53,446.42,447.47,451.37,445.89,454.88Z"/><path class="cls-4" d="M398.11,397.44c-5.76-3.78-50.58-26.31-66.39-64.55-12.39-30-21-26.6-32-16.88s-9.33,32.35-25.53,23.54c-53.06-28.87-78.53-39.58-80.53-4.93-1.29,22.29-31.68,11.59-42.94,1.13-23.89-22.19-50.08-26.33-48.55-2.08,1.51,23.84-6.8,37.24-20,31.64S51.68,337.15,37.43,361C31.82,370.35,42.22,395.9,63,404.9c11.84,5.13,52.43,10.75,27.36,31.79-25.84,21.69-.77,33,16.74,26.87,6.53-2.29,68.61-18.68,58.88.14-11.48,22.21,7,33.64,34.63,17.57,12.54-7.3,35-31.43,40.4-20.17s16.64,25.14,35.67,13.63C309.5,454.9,386.15,389.6,398.11,397.44Z"/><path class="cls-7" d="M49.05,377.14s79.42,46.25,183.84,35.05,146.78-21,210.52-11.89"/><path class="cls-7" d="M124.83,352.29s19.54,46.31,51.7,60.89"/><path class="cls-7" d="M101.24,450.32s37.79-31.5,83.58-36.7"/><path class="cls-7" d="M209.34,329.75s13.81.84,62.93,77.66"/><path class="cls-7" d="M175.6,478.34s49.39-58.12,65.58-67"/><path class="cls-7" d="M262.57,465.75s34.62-52,71.93-65.14"/><path class="cls-4" d="M999.52,856.35c-28.94,10.18-80.09,16.63-194.85,38.47-81.88,15.58-196.56-5.73-182.95-34.4,6.94-14.63,38-13.83,50.24-26.63,15.86-16.61-17.9-23-39.65-21.75-155.26,8.71-286.88-48.43-198.42-95.35,47.83-25.36,2.07-68.91-37.06-65-83,8.24-144-16.83-104.7-55.95,38.6-38.44,41.13-71.29,5.07-78s-105.56,10.32-100-47.41c2.2-22.74,62-53.18,118.81-43,32.4,5.83,125.72,46.08,104.55-20.21-21.85-68.32,60.91-68.1,88.47-36.29,10.26,11.85,102.35,127,110,83.26,9-51.62,64.68-48.31,98.61,12.71,15.4,27.7,26.44,96,54.57,83.6s60.73-16.8,94.94,20.63C1016.17,734,988.9,860.09,999.52,856.35Z"/><path class="cls-4" d="M353.45,693.86s-34.45-8.77-51.4,4.63-26.83,27.71-6.22,33.25S397,718,353.45,693.86Z"/><path class="cls-4" d="M941.49,436.86s7.82-43.26,24.44-63.24c20.52-24.65,49.59-23.34,57-23.7.55,0,5.06,14.13,3.76,30.11-.66,8-6.94,30-22.38,42.63s-21,16-31.42,16.93C963,440.49,946,434.28,941.49,436.86Z"/><path class="cls-4" d="M937.13,390.59s.41-35.47-7.73-55.7C919.77,311,895.64,295,895.64,295a187.71,187.71,0,0,1,2.25,19.75c.36,10.22-6.49,39.65,2.66,55.6C906.42,380.59,912.2,389.39,937.13,390.59Z"/><path class="cls-4" d="M955.35,530.82s10.38-24,24.42-38,37.48-28.79,73.62-22c0,0-7.05,6.34-10.68,13.92s-11.94,33.46-31.67,46.72c-11.87,8-18.45,8.73-27.42,8.83S959,529.53,955.35,530.82Z"/><path class="cls-4" d="M933.21,452.54s-5.4-1.73-8-6.26c-6.11-10.69-6.37-17.81-14.24-23.53s-23.2-9.41-23.2-9.41-1.07,24.71,10.55,33.25C909.7,454.94,915.61,457.18,933.21,452.54Z"/><path class="cls-4" d="M946.14,534.34S934,521.05,922.19,509.93,892.41,492.86,883.67,494s-13.5,5.49-13.5,5.49a60.81,60.81,0,0,1,11.33,11.78c3.16,4.59,14.74,26.6,25.23,30.88C932,552.49,946.14,534.34,946.14,534.34Z"/><path class="cls-4" d="M957.76,321.38s-5.39-13,3.81-31.62,16.95-21.9,18.68-21.69,3,4.83,2.14,16.41c-.74,9.82-1.62,17.16-9.31,26.55S957.76,321.38,957.76,321.38Z"/><path class="cls-4" d="M991.55,636.51c-.25-.38-25.26-38.55-41.69-96.75-15.15-53.74-25.89-136.08,9-223.19l4.09,1.64c-34.42,86-23.81,167.28-8.83,220.35,16.22,57.55,40.87,95.15,41.11,95.52Z"/><path class="cls-4" d="M246.32,553.5s-23.6,12.15-32.2,25.27c-10.61,16.2-4.72,32.74-3.62,37.09.09.32,9.05.43,18.05-3.15,4.5-1.79,16.09-9.29,20.65-20.44s5.52-14.91,4.23-21.12C252.21,565.3,245.62,556.58,246.32,553.5Z"/><path class="cls-4" d="M218.84,559.15s-20.41,6.5-33.52,5.37c-15.49-1.34-29-12.46-29-12.46a114.7,114.7,0,0,0,11.8-2.18c6-1.6,21.74-10.75,32.56-8.28C207.65,543.19,213.74,545,218.84,559.15Z"/><path class="cls-4" d="M303,544.92s-12,10.22-17.61,20.8-10,26.71.31,46.37a31.63,31.63,0,0,1,6.15-8.62c3.67-3.37,17.21-12.79,21.38-26.52,2.51-8.26,1.78-12.2.26-17.39S302.9,547.27,303,544.92Z"/><path class="cls-4" d="M253.9,546a9.44,9.44,0,0,0-5-3.5c-7.25-1.64-11.4-.53-16.09-4.07s-9.53-11.72-9.53-11.72,14.08-5,21.06.22C251.14,532,253.47,535,253.9,546Z"/><path class="cls-4" d="M303.4,539s-9.82-4.69-18.32-9.51-15.1-14.18-16-19.43a16,16,0,0,1,.78-8.76,37,37,0,0,0,8.8,4.46c3.21,1,18,3.81,22.28,9.11C311.39,527.61,303.4,539,303.4,539Z"/><path class="cls-4" d="M182.52,583.27s-8.43-.82-17.58,7.78-9.65,13.65-9.22,14.61,3.32.89,9.85-1.66c5.54-2.16,9.62-4,13.68-10.06S182.52,583.27,182.52,583.27Z"/><path class="cls-4" d="M370.39,547.17c-.26-.08-26.71-7.78-63.2-7-33.69.73-83.12,9.06-127.25,44.57l1.67,2.07c43.54-35,92.36-43.26,125.64-44,36.08-.79,62.13,6.8,62.39,6.87Z"/><path class="cls-8" d="M128.25,519.89c-.45.29-.91.55-1.37.8l.64.31c5.55,2.93,8.82,7.65,7.29,10.55s-7.27,2.89-12.81,0a14.94,14.94,0,0,1-1.37-.8c0,.24,0,.48,0,.71.24,6.27-2.21,11.46-5.49,11.59s-6.13-4.85-6.38-11.12c0-.53,0-1.06,0-1.58l-.59.4c-5.3,3.35-11,3.82-12.78,1s1.13-7.74,6.44-11.09c.45-.28.91-.54,1.37-.79l-.64-.31c-5.55-2.92-8.82-7.64-7.29-10.54s7.27-2.89,12.81,0c.49.25.94.51,1.38.79,0-.23,0-.47,0-.71-.26-6.27,2.2-11.46,5.48-11.59s6.13,4.85,6.38,11.12c0,.54,0,1.06,0,1.59.19-.14.39-.28.59-.4,5.31-3.36,11-3.83,12.78-1.06S133.56,516.55,128.25,519.89Zm-13.43-5.75a6.15,6.15,0,1,0,6.38,5.9A6.16,6.16,0,0,0,114.82,514.14Z"/><path class="cls-9" d="M457.23,471.89s29.14.8,33.06-11.57,7-20.7,11.76-37.1c2.73-9.48-7.54-108.27-17.62-136-7.28-20-17-40-18-49s-8.74-91,32.64-40.29c14.16,17.35,25.09,31.63,48.09,115.41S565.31,483,590.84,516.68c7.28,9.6,19.53,41.22,6.82,44.62-31.87,8.52-129.38-20.92-138.33-30.76C446.82,516.78,454.37,473.16,457.23,471.89Z"/><path class="cls-10" d="M499.1,198c-6.74-8.25-12.16-13-16.53-15.07,22.12,32.63,27.27,47.33,33.41,74.32,3.83,16.82,24.25,140,28.14,180.94s-39,25.2-33.18,30.86,60.54,42.59,74.67,54.69c2.61,2.24,6.71,3.69,11.63,4.58a60.5,60.5,0,0,0-6.4-11.63C565.31,483,570.18,397.17,547.19,313.4S513.26,215.34,499.1,198Z"/><path class="cls-10" d="M208.92,357.83s-3.06-12.68,65,39.65,51,61.61,28.73,55.38S187.44,348.3,208.92,357.83Z"/><path class="cls-9" d="M466.6,633s-56.11,7-91.72-14.64-89.05-83.2-104.63-109.63-56.67-61-72.23-83.87c-7.57-11.13-10.62-24.05-14.32-51.89s32.12-26.57,51.33,2.1c20.14,30.07,20.55,29.65,40.66,58.07S353,528.43,368.28,533.53s26.67,0,31.06-8.67S464.94,631.39,466.6,633Z"/><path class="cls-10" d="M368.28,533.53c-12.76-4.27-54.89-51.76-80.1-83.81,3.33,17.3,10.2,37.74,20.31,58.7,24.09,50,57.38,83.83,74.36,75.64,10.36-5,12.24-24.51,6.66-50.3C384,536.05,376.72,536.36,368.28,533.53Z"/><path class="cls-11" d="M432,473.15a93.58,93.58,0,1,0-37.75,31.74C393.93,503.78,411.45,497.81,432,473.15Z"/><path class="cls-11" d="M409.07,321.1A86.2,86.2,0,1,1,288,307,86.2,86.2,0,0,1,409.07,321.1Z"/><path class="cls-12" d="M324.45,335.41c-.19,1.1-.34,2.19-.47,3.29,11.77-2.19,38.76-6.1,66.65-2.27,16.26,2.23,17.63,10.17,22.42,26.31.11.37.2.71.29,1.06a14.65,14.65,0,0,0-.79-5.42c-4.64-15.65-6-23.35-21.73-25.51C362.26,329,334.7,333.39,324.45,335.41Z"/><path class="cls-12" d="M430.94,392a88.87,88.87,0,0,1,4.64,53.21,89.29,89.29,0,0,0-15.47-80.93c-1.08,1.49-2.1,3-3.08,4.58A88.87,88.87,0,0,1,430.94,392Z"/><path class="cls-9" d="M394.7,378.86s16.94-24.82,17.23-55.24c.48-50.48,27.92-108.74,34.24-125.25s9.48-24.76,18.52-24.08c13.8,1.05,13.59,3.5,22.32,11.16s12.57,17.05,11.54,30.6c-.78,10.31-29.75,41.48-58.32,106.74-28,64-29.25,74.29-35.35,78.07S389.1,388.79,394.7,378.86Z"/><path class="cls-10" d="M407.67,368c-.82-2.34-2.13-6.73-3.4-7.93a107.16,107.16,0,0,1-9.57,18.79c-5.6,9.93,4.08,25.79,10.18,22,3.71-2.3,5.62-7,12.85-24.76C414.56,375.9,410.56,376.27,407.67,368Z"/><path class="cls-9" d="M410,414.74s53.56,69.78,85.86,89.81S461.46,563.33,445,558.66s-46.34-25.58-47.49-47.72-5.36-29.46-28.7-53.73S410,414.74,410,414.74Z"/><path class="cls-10" d="M368.79,457.21c23.34,24.27,27.55,31.59,28.7,53.73,0,.72.11,1.43.2,2.13,4-4.69,4.2-7.8,10.64-22.89,7.19-16.82,6.53-39.77,3.1-59.8-1.41-8.26-.43-11.14.92-12.62l-2.34-3S345.44,432.94,368.79,457.21Z"/><path class="cls-11" d="M394.72,518S383,529.21,424.05,586,600.4,772.58,629.64,779.94s10.86-14.53,19.19-6.45,8.4,13,26.24-1.21,26.14-63.58,33.74-103.9c0,0,.85-53.36,3.59-62s19.08-13.83-25.7-45.17S498.81,454,491.77,449.63,487.85,462,487.85,462s30.71,23.34,46.93,37.46,6.68,35.6-27.37,35.7c-30.09.08,52.18,4.55,85.55,13.49S492.33,542.35,457.73,533,394.72,518,394.72,518Z"/><path class="cls-11" d="M676.45,755s41.42,53.13,108.08,93.58,149.58,70,149.58,70,10-73.6,19.32-108.21,12.47-17,16.2-14.19,6.58-26.77,4.42-33.71-60.19-128.77-121.6-147.14S713.73,585.83,704.1,627.41,676.45,755,676.45,755Z"/><path class="cls-12" d="M292.59,342A89,89,0,0,0,260,384.32a89.08,89.08,0,0,1,34.6-48.61c7-4.88,22.16-7.58,22.14-5.74A89.52,89.52,0,0,0,292.59,342Z"/><path class="cls-12" d="M348.72,323.17c19-3.93,37-1.56,52.39,5.66-16.46-9.47-36.68-13-58-8.59-8.5,1.76-21.93,11.29-20.73,12.59A96.38,96.38,0,0,1,348.72,323.17Z"/><path class="cls-12" d="M311.26,344.6c1.95-1.54,4-6,3-6.86a93.5,93.5,0,0,0,41.23,172.72A93.51,93.51,0,0,1,311.26,344.6Z"/><path class="cls-9" d="M379.66,369.91c3.71-4.1,10.3-1.35,7.82-9.71-3.07-10.37-4-15.47-14.4-16.9-23.9-3.28-46.78,2.28-46.78,2.28-1.62,1.79-10.32,8.21-12.24,9.68-9.31,7.1-22,22.62-13,45,7.52,18.68,19.54,15.21,24.37,12.54s-1.23,5-3.74,9.9,1.42,13.5,5.94,16.29,21.54,11.15,25.13,13.51,7.27,7,22.5,6.5c8.78-.28,14.5-1,18.5-2.07,4.07-.64,11.53-6.54,13.09-10.34,2-3.66,4-9.05,6.28-17.53,4-14.71.33-19.34-1.14-23.38s-5.67-22.54-7.34-27.58-9.16-10.86-14.48-9.54S376,374,379.66,369.91Z"/><path class="cls-13" d="M388.82,420.72c-3.23-1-6.28-2.5-8.53-.79-1.12.85-1.78,3.74-2.16,6.09-2.37-.17-5.34-.18-6.43.71-2.18,1.78-1.38,5.12-1.2,8.48a27,27,0,0,1-.51,6.59l11.43-9,2.5-2,11.43-9A26.73,26.73,0,0,1,388.82,420.72Z"/><path class="cls-13" d="M381.41,432.74h0L370,441.79a60.9,60.9,0,0,1,7.52.73c3.31.6,7.06,1.1,10.95-1.45a11.75,11.75,0,0,0,1-.74,10.78,10.78,0,0,0,.89-.79c3.39-3.2,3.76-7,3.94-10.32a62,62,0,0,1,1-7.49Z"/><path class="cls-11" d="M305.32,417.59a27.83,27.83,0,0,1,3.77-9.78,13.7,13.7,0,0,1,3.79-4l1.14-.66,1.51-.78c1-.51,2.05-1,3.11-1.56,2.25-1.08,4.61-2.06,6.89-2.92a54.74,54.74,0,0,1,6.25-2,2.1,2.1,0,0,0,.89-.46,5.2,5.2,0,0,0,.65-.8,16,16,0,0,0,1.25-2.21,2.56,2.56,0,0,0-.19-2.59,3.75,3.75,0,0,0-3.16-1.39,22.24,22.24,0,0,0-8.57,2.38,59.76,59.76,0,0,0-7.31,4.21c-1.07.69-2.09,1.4-3.08,2.13l-1.44,1.12c-.55.48-1.1.94-1.58,1.44a15.73,15.73,0,0,0-3.58,6.6A26.59,26.59,0,0,0,305.32,417.59Z"/><path class="cls-11" d="M388.53,351.8a26.71,26.71,0,0,0-11-2.26,15.54,15.54,0,0,0-7.25,2c-.6.35-1.17.78-1.77,1.2L367,353.85c-.94.79-1.87,1.62-2.78,2.5a60.84,60.84,0,0,0-5.71,6,22.65,22.65,0,0,0-4.29,7.63,4.56,4.56,0,0,0-.13,1.92,3.44,3.44,0,0,0,.65,1.54,2.6,2.6,0,0,0,2.48,1,14.34,14.34,0,0,0,2.44-.65,2.29,2.29,0,0,0,1.52-1.14,57.71,57.71,0,0,1,3.41-5.66c1.38-2,2.9-4.16,4.49-6.13l2.24-2.66,1.11-1.29.9-1a13.73,13.73,0,0,1,4.76-2.76A27.94,27.94,0,0,1,388.53,351.8Z"/><path class="cls-11" d="M379,363.47a19.56,19.56,0,0,0-11,25.09,22.33,22.33,0,0,1,1.6-2.14c1.8-1.8,7.12-2.2,13.65-8A20.66,20.66,0,0,0,390.09,359l-.77.29Z"/><path class="cls-11" d="M379.08,360.49a19.58,19.58,0,0,0-11,25.1,23.62,23.62,0,0,1,1.59-2.14c1.81-1.81,7.13-2.2,13.66-8a20.66,20.66,0,0,0,6.82-19.37l-.77.28Z"/><path class="cls-8" d="M369.24,384.62l2.61-1.05c8.81-3.54,14.45-11.1,14.62-18.52l-2.6,1.05C375.06,369.64,369.41,377.2,369.24,384.62Z"/><path class="cls-11" d="M378.9,345.51l.56.41a15.22,15.22,0,0,1,1.66,1.38c.41.39.86.82,1.31,1.28l1.17,1.36a14.76,14.76,0,0,1,1.15,1.52,18.24,18.24,0,0,1,1.08,1.62,31.13,31.13,0,0,1,3,6.48c.31.92.48,1.71.63,2.25l.22.87-2.57.39s0-.3-.1-.82-.12-1.26-.3-2.15a28.12,28.12,0,0,0-2-6.41,17.46,17.46,0,0,0-.83-1.68,15.35,15.35,0,0,0-.92-1.59L382,349c-.39-.49-.78-1-1.14-1.39-.82-1-1.12-1.21-1.45-1.57Z"/><path class="cls-11" d="M376.93,349.37l.53.44a11.93,11.93,0,0,1,1.35,1.2,20.26,20.26,0,0,1,3.37,4.45,24.75,24.75,0,0,1,2.18,5.24c.22.75.33,1.4.44,1.84s.15.71.15.71l-2.58.25s0-.24,0-.65,0-1-.13-1.72A22.9,22.9,0,0,0,381,356a19.61,19.61,0,0,0-2.49-4.72,11.18,11.18,0,0,0-1.13-1.4Z"/><path class="cls-11" d="M375.08,354.37l.5.47a14.57,14.57,0,0,1,1,1c.13.14.28.28.45.44l.57.77a5.83,5.83,0,0,1,.57.86,8.23,8.23,0,0,1,.55,1,17.67,17.67,0,0,1,1.48,4c.15.57.2,1.06.28,1.4s.1.55.1.55l-2.59.09s0-.18,0-.48,0-.75,0-1.27a16.79,16.79,0,0,0-.52-3.78,7.29,7.29,0,0,0-.29-1,5,5,0,0,0-.34-.92c-.12-.29-.25-.57-.36-.84s-.18-.35-.25-.52a5.27,5.27,0,0,0-.81-1.2Z"/><path class="cls-11" d="M373.91,357.76l.3.5c.16.28.54.9.61,1.1s.16.29.26.47.19.52.3.8a7.9,7.9,0,0,1,.3.9c.08.32.21.63.27,1a23.59,23.59,0,0,1,.52,4c0,.58,0,1.07,0,1.42v.54l-1.87-.1s0-.17.07-.47.14-.74.2-1.25a22.69,22.69,0,0,0,.13-3.78,7.78,7.78,0,0,0-.08-1,6.51,6.51,0,0,0-.12-.94c0-.3-.1-.58-.14-.85s-.08-.36-.11-.53a6,6,0,0,0-.42-1.26C374,358,373.91,357.76,373.91,357.76Z"/><path class="cls-11" d="M380.53,369.8a5.73,5.73,0,0,1-8.53,7.64,5.83,5.83,0,1,0,8.53-7.64Z"/><path class="cls-12" d="M374.91,378.85a5.3,5.3,0,0,0,3.66-10,23.18,23.18,0,0,0-6.84,7.17A5.39,5.39,0,0,0,374.91,378.85Z"/><path class="cls-11" d="M379.4,372.41a2.84,2.84,0,1,1-3.75-1.44A2.85,2.85,0,0,1,379.4,372.41Z"/><path class="cls-8" d="M379.76,371.07a1.87,1.87,0,1,1-2.43-1A1.87,1.87,0,0,1,379.76,371.07Z"/><path class="cls-11" d="M318.08,411.64a19.56,19.56,0,0,1,26.95-4.9,24.19,24.19,0,0,0-2.45,1.06c-2.18,1.34-3.78,6.42-11,11.43a20.64,20.64,0,0,1-20.41,2.17l.45-.68Z"/><path class="cls-11" d="M314.57,411.5a19.56,19.56,0,0,1,26.95-4.9,24.19,24.19,0,0,0-2.45,1.06c-2.17,1.34-3.78,6.43-11,11.43a20.64,20.64,0,0,1-20.41,2.18l.45-.69Z"/><path class="cls-8" d="M340.91,407l-1.62,2.29c-5.47,7.75-14.13,11.51-21.39,10l1.62-2.29C325,409.22,333.66,405.47,340.91,407Z"/><path class="cls-11" d="M300.63,407.4l.28.63a12.72,12.72,0,0,0,.95,1.93c.28.49.6,1,.95,1.58l1.05,1.45a16.24,16.24,0,0,0,1.21,1.47c.43.47.85,1,1.33,1.42a30.62,30.62,0,0,0,5.62,4.38c.82.52,1.55.86,2,1.13l.8.41,1-2.4-.78-.29c-.48-.19-1.19-.41-2-.79a29.49,29.49,0,0,1-5.78-3.41c-.51-.36-1-.8-1.43-1.2a14.64,14.64,0,0,1-1.34-1.26c-.42-.44-.81-.87-1.19-1.28s-.76-1-1.09-1.42c-.75-1-.92-1.36-1.2-1.77Z"/><path class="cls-11" d="M304.84,406.37l.3.61a13.84,13.84,0,0,0,.87,1.6,20.49,20.49,0,0,0,3.55,4.3,24.57,24.57,0,0,0,4.59,3.33c.68.39,1.29.64,1.69.85l.65.31.84-2.45-.62-.18c-.39-.13-1-.27-1.64-.52a23,23,0,0,1-4.71-2.36,19.29,19.29,0,0,1-4-3.51,12.13,12.13,0,0,1-1.1-1.42Z"/><path class="cls-11" d="M310.14,405.72l.34.6a13.58,13.58,0,0,0,.76,1.25l.32.54c.2.22.4.47.62.72a5.57,5.57,0,0,0,.71.76,7.23,7.23,0,0,0,.8.76,18.22,18.22,0,0,0,3.51,2.35c.52.28,1,.44,1.31.6l.5.23.69-2.51-.47-.11c-.29-.06-.74-.11-1.24-.25a17.21,17.21,0,0,1-3.56-1.38,6.32,6.32,0,0,1-.88-.51,6.12,6.12,0,0,1-.82-.54l-.73-.54a4.88,4.88,0,0,0-.45-.37c-.23-.07-.73-.78-1-1.06S310.14,405.72,310.14,405.72Z"/><path class="cls-11" d="M313.7,405.37l.42.4c.24.23.75.73.93.85a4.15,4.15,0,0,1,.39.36l.71.48a6.2,6.2,0,0,0,.81.49,7,7,0,0,0,.9.49,22.26,22.26,0,0,0,3.8,1.44c.55.17,1,.25,1.37.34l.53.12.33-1.84-.47,0c-.3,0-.75,0-1.27-.09a23.44,23.44,0,0,1-3.71-.75,8.61,8.61,0,0,1-.94-.3c-.31-.11-.63-.21-.88-.33l-.8-.34c-.17-.09-.33-.16-.49-.23a6.34,6.34,0,0,1-1.13-.7Z"/><path class="cls-11" d="M323.89,414.58a5.73,5.73,0,0,0,9.4-6.54,5.83,5.83,0,0,1-7.43,8.95A6,6,0,0,1,323.89,414.58Z"/><path class="cls-12" d="M326,415.86a5.31,5.31,0,0,0,6.46-8.42,23.23,23.23,0,0,0-8.64,4.83A5.33,5.33,0,0,0,326,415.86Z"/><path class="cls-11" d="M326.77,414.15a2.85,2.85,0,1,0-.68-4A2.85,2.85,0,0,0,326.77,414.15Z"/><path class="cls-8" d="M325.3,414.13a1.88,1.88,0,0,0,2.61-.45,1.87,1.87,0,1,0-2.61.45Z"/><path class="cls-12" d="M421.71,539.3s190.84,30,213.91,36.21-15.43,10.89-3.8,20.57,21.53,12.81,30.67,20.06-35.42-8.5-66.79-21.16S421.71,539.3,421.71,539.3Z"/><path class="cls-12" d="M514.54,655.28S628.35,693,647.77,674.63s12.39,5.55,4.55,30.29-8.54-22.85-18.9-2.18,3,38.53,8,41.73,11.12,30.21-3.92,12.37S536.09,669.73,514.54,655.28Z"/><path class="cls-12" d="M669.74,717S689,633.8,697.88,623s12.29-1,12.29-1S675.76,680.78,669.74,717Z"/><path class="cls-12" d="M704.2,661.48s13.08-58.47,52.58-50.85,80.46,2.09,130.61,63.71,70.44,100.71,70.44,100.71-18.93-3.82-22.43,36.44S906.2,724.94,867.07,687,726,639,704.2,661.48Z"/><path class="cls-12" d="M424.79,525.31s150,17.05,173.3,23.88c30.64,9-81.47-1.86-110.7-8.4C466.85,536.19,424.79,525.31,424.79,525.31Z"/><path class="cls-12" d="M490.29,460.32s52.83,34.29,73.24,40.76-4.84,6.23-10.33,9.39-6.85-5.44-16.84-15.14S490.29,460.32,490.29,460.32Z"/><g class="cls-14"><path class="cls-13" d="M1005.61,920.81c10.86-8.73,82.2-81,165.7-87.58,65.42-5.18,64.33-23.89,52.46-51.11s-56.47-38.14-29.4-63.84c88.68-84.17,125.18-126.53,59.71-152-42.12-16.38-2.57-68.24,24.59-83.4,57.63-32.16,81.94-80,34.3-92.17-46.85-12-67.47-36.34-48.42-58.35s73.19-41,36.21-83.32c-14.57-16.66-70.25-12.56-100.53,21.81-17.26,19.59-53.39,94.26-78.27,32.87-25.64-63.29-63-22.07-62.17,15.48.32,14-6.83,143.75-37,113.28-35.6-36-69.15-7.5-55.43,55.72,6.22,28.71,38.72,86.93,13.65,90.38s-58.79,16.35-48.51,60.18C950.22,714.36,1028.16,902.68,1005.61,920.81Z"/><path class="cls-15" d="M1262.38,261.35S1123.8,385.42,1080.23,593.47s-51,295.75-108.39,412.78"/><path class="cls-15" d="M1263,422.75s-101.38,8.75-149.5,61.57"/><path class="cls-15" d="M1088.92,316.2S1126,408.6,1107.46,500"/><path class="cls-15" d="M1253.67,599.55s-10.23,26.05-188.78,72.73"/><path class="cls-15" d="M988.59,441.9s81.12,131.35,88.1,168.06"/><path class="cls-15" d="M958.61,617.22s78.6,99.12,80.57,179.13"/><path class="cls-16" d="M1051.44,585.36s14-17.29,13.55-38.25c-.16-7.6-6.79-20.59-14.69-20.43s-14.09,9.94-13.88,21C1036.82,568.63,1051.44,585.36,1051.44,585.36Z"/><path class="cls-16" d="M1049.56,620.33s-2.82-19.22-16.52-31c-5-4.27-17.26-7.35-21.85-2s-2,15.08,5.24,21.3C1030.14,620.39,1049.56,620.33,1049.56,620.33Z"/><path class="cls-16" d="M1055.34,660.8s-10.4-16.4-27.75-21.59c-6.28-1.87-18.75.34-20.76,7.08s4.34,14.57,13.47,17.3C1037.64,668.78,1055.34,660.8,1055.34,660.8Z"/><path class="cls-16" d="M1050.13,621.29s18-.5,32.44-11.37c5.25-3.94,11.5-14.47,8-19s-12.91-3.31-20.53,2.42C1055.61,604.16,1050.13,621.29,1050.13,621.29Z"/><path class="cls-16" d="M1052.75,661.11s18.35,0,32.81-10.89c5.24-3.94,11.32-14.68,7.68-19.55s-13.28-3.78-20.91,2C1057.87,643.5,1052.75,661.11,1052.75,661.11Z"/><path class="cls-16" d="M1066.33,714.42s15.57,2.07,26.61-6.23c4-3,8-12.15,4.3-17s-11.71-5-17.52-.6C1068.67,698.89,1066.33,714.42,1066.33,714.42Z"/><path class="cls-16" d="M1064.15,714.72s-6.9-13.31-20.19-19.57c-4.82-2.26-14.87-2.48-17,2.08s2.24,11.13,9.25,14.42C1049.49,717.9,1064.15,714.72,1064.15,714.72Z"/><path class="cls-16" d="M1065.68,937.89h-.26l.15-3.25c.35,0,8.76.21,16.48-9.73,8.6-11.09,12.77-29.87,12.37-55.82-.54-35.56-9.78-83.69-27.45-143.06-20.51-68.88-18.59-108-17.32-133.87.32-6.64.6-12.38.39-17.24l3.25-.15c.22,5-.06,10.83-.39,17.55-1.26,25.66-3.16,64.43,17.19,132.78,39.3,132,29.53,182.68,14.41,202C1076.4,937.39,1067.36,937.89,1065.68,937.89Z"/><path class="cls-13" d="M978.27,901.78a634.93,634.93,0,0,1-117.83-297c-9.77-80.45-.21-135.44-.11-136l4.92.88c-.1.54-9.54,54.94.17,134.7A629.91,629.91,0,0,0,982.3,898.84Z"/><path class="cls-13" d="M861.09,475.79s-6.73-14.7-3.33-30.27c1.23-5.63,7.61-14.45,12.85-13.3s7.92,9.24,6.13,17.44C873.34,465.23,861.09,475.79,861.09,475.79Z"/><path class="cls-13" d="M859.63,503.38s2.81-14.15,13.35-24.07c3.81-3.6,13-7.09,16.15-3.72s.88,10.67-4.67,15.91C873.92,501.42,859.63,503.38,859.63,503.38Z"/><path class="cls-13" d="M861.3,550.32s3.37-12.82,13.54-19.67c3.69-2.47,12.25-3.5,14.95.52s.19,10.43-5.17,14C874.44,552.05,861.3,550.32,861.3,550.32Z"/><path class="cls-13" d="M861.31,501.78s-13.07,1.61-23.13-5.27c-3.65-2.5-7.74-10-5-14s9.55-4,14.85-.39C858.06,489,861.31,501.78,861.31,501.78Z"/><path class="cls-13" d="M915,790.7s-12.07,6-25.15,3.63c-4.74-.88-12.25-6-11.42-10.39s7.49-6.88,14.38-5.6C905.86,780.75,915,790.7,915,790.7Z"/><path class="cls-13" d="M858.36,550.28s-15.09.67-27.38-7.75c-4.45-3-9.86-11.66-7-15.79s10.78-3.6,17.26.83C853.51,536,858.36,550.28,858.36,550.28Z"/><path class="cls-13" d="M860.59,600.36s-14.78,2.9-25.52-4.46c-3.89-2.67-7.91-11.22-4.57-16.11s11-5.46,16.67-1.59C857.92,585.56,860.59,600.36,860.59,600.36Z"/><path class="cls-13" d="M864.21,599.11s1-14.8,10.79-23.93c3.54-3.31,12.75-5.72,16.55-1.64s2.42,11.6-2.73,16.41C879.05,599.08,864.21,599.11,864.21,599.11Z"/><path class="cls-13" d="M917.09,792a40.42,40.42,0,0,1,1.07-25.36c1.87-4.88,8.77-12.91,13.33-12.4s5.88,7.14,3.17,14.24C929.52,781.93,917.09,792,917.09,792Z"/><path class="cls-13" d="M880.47,695.16s3.21-9.18,14-15.87c3.91-2.43,13.16-4.94,16.22-2.87s.57,6.84-5.13,10.37C894.78,693.47,880.47,695.16,880.47,695.16Z"/><path class="cls-13" d="M868.49,651.36a29.12,29.12,0,0,1-17.9-6.93c-3.18-2.63-7.75-9.92-6.64-13.33s6.06-2.85,10.69,1C863.4,639.31,868.49,651.36,868.49,651.36Z"/><path class="cls-13" d="M898.84,746.42s-4.32-15.1-1-26.25c1.2-4,6.41-8.29,10.29-4.95s5.48,11.21,3.72,17.08A21.36,21.36,0,0,1,898.84,746.42Z"/><path class="cls-13" d="M882.06,696.63s-18.15,2.65-32-2.56c-5-1.9-10.63-8.24-6.83-12.05s13.29-4.47,20.61-1.72C877.69,685.52,882.06,696.63,882.06,696.63Z"/><path class="cls-13" d="M897.64,749.07s-17.21,2.48-29.57-2.71c-4.48-1.88-9-8.13-5-11.82s12.88-4.28,19.38-1.55A26.39,26.39,0,0,1,897.64,749.07Z"/><path class="cls-13" d="M937.18,833s-2-9.55,3.84-20.83c2.13-4.09,8.84-11,12.59-10.76s4.08,5.61,1,11.55C948.73,824.2,937.18,833,937.18,833Z"/><path class="cls-13" d="M795.84,481.31s-11.05-9.55-14.92-20.45c-1.41-3.95-.28-10.43,4.09-10.05s9.7,5.74,11.73,11.48C800.61,473.19,795.84,481.31,795.84,481.31Z"/><path class="cls-13" d="M870.72,654.06a51,51,0,0,1,10.86-24.48c3.51-4.4,12.59-10.91,16.29-9.52s2.25,8.08-2.87,14.48C885.3,646.69,870.72,654.06,870.72,654.06Z"/><path class="cls-17" d="M882.59,1099.09s186.28-197.19,180.17-307.5S936.85,558.13,900,762.53,931.93,1016.75,882.59,1099.09Z"/><path class="cls-18" d="M988.2,700.59s23.66,236.55-105.61,398.5"/><path class="cls-16" d="M1067.72,850.32c-66.58,54.12-101.71,131-100.94,204.33,71.58,15.73,154.06-2.94,220.64-57.05s101.72-131,100.94-204.33C1216.78,777.54,1134.3,796.21,1067.72,850.32Z"/><line class="cls-19" x1="1262.3" y1="813" x2="978.27" y2="1043.85"/><line class="cls-19" x1="1203.95" y1="860.91" x2="1261.15" y2="866.82"/><line class="cls-19" x1="1155.52" y1="900.28" x2="1226.02" y2="907.55"/><line class="cls-19" x1="1107.09" y1="939.63" x2="1224.95" y2="951.81"/><line class="cls-19" x1="1058.66" y1="979" x2="1173.32" y2="990.84"/><line class="cls-19" x1="1010.23" y1="1018.36" x2="1074.08" y2="1024.95"/><line class="cls-19" x1="1209.2" y1="855.43" x2="1215.1" y2="798.23"/><line class="cls-19" x1="1160.77" y1="894.79" x2="1169.98" y2="805.61"/><line class="cls-19" x1="1112.34" y1="934.16" x2="1123.87" y2="822.53"/><line class="cls-19" x1="1063.91" y1="973.52" x2="1075.75" y2="858.85"/><line class="cls-19" x1="1015.48" y1="1012.88" x2="1025.65" y2="914.37"/><path class="cls-8" d="M807.12,662.51c-12.53,14.65-20.58,37.09-20.58,62.29,0,37.66,18,69.22,42.15,77.65,12.54-14.64,20.59-37.08,20.59-62.27C849.28,702.49,831.3,670.94,807.12,662.51Z"/><path class="cls-8" d="M795.63,812.2c-19-23.4-44.43-36.54-66.18-36.4,1,17.92,8.81,38,23.16,55.68,19,23.4,44.43,36.53,66.18,36.41C817.79,850,810,829.87,795.63,812.2Z"/><path class="cls-8" d="M825.31,891c-11.17-13.1-27.51-23.46-47-28.43-31.57-8-62.6.37-80.2,19.2,11.17,13.1,27.5,23.48,47,28.44C776.66,918.17,807.69,909.79,825.31,891Z"/><path class="cls-8" d="M894.11,849.94c-29.28,8.84-50.68,29.78-57.64,53.19,18.46,10.75,43.58,13.74,68.57,6.21,29.26-8.83,50.66-29.79,57.64-53.19C944.2,845.39,919.09,842.4,894.11,849.94Z"/><path class="cls-8" d="M883.13,765.3c-22.45,12.73-36.55,33.94-39.5,55.64,17.46,3.76,37.25,1,55.11-9.1,22.49-12.76,36.47-34.14,39.18-56C920.52,752.35,900.9,755.23,883.13,765.3Z"/><rect class="cls-8" x="825.79" y="794.61" width="3.61" height="294.79"/><polygon class="cls-8" points="825.91 835.39 828.23 838.15 849.18 820.62 846.88 817.87 825.91 835.39"/><path class="cls-8" d="M737.58,974.59c21.16,14.77,46.38,18.34,67.23,11.65-4.13-17.38-15.14-34-32-45.8-21.2-14.79-46.52-18.19-67.41-11.21C709.76,946.44,720.82,962.91,737.58,974.59Z"/><polygon class="cls-8" points="825.49 996 826.98 992.72 802.13 981.37 800.63 984.63 825.49 996"/><polygon class="cls-8" points="825.71 919.36 828.8 921.22 842.93 897.84 839.85 895.97 825.71 919.36"/><polygon class="cls-8" points="827.11 877.73 829.42 874.97 816.84 864.5 814.55 867.25 827.11 877.73"/><polygon class="cls-8" points="826.82 895.54 828.1 892.16 823.46 890.42 822.19 893.79 826.82 895.54"/><path class="cls-8" d="M859.53,931c19-23.4,44.44-36.54,66.19-36.4-1,17.92-8.81,38-23.15,55.68-19,23.4-44.44,36.53-66.19,36.41C837.38,968.77,845.2,948.69,859.53,931Z"/><path class="cls-8" d="M829.86,1009.76c11.17-13.1,27.5-23.46,47-28.43,31.57-8,62.59.37,80.19,19.2-11.16,13.1-27.49,23.48-47,28.44C878.5,1037,847.48,1028.6,829.86,1009.76Z"/><polygon class="cls-8" points="828.05 996.54 825.75 993.78 838.33 983.31 840.62 986.06 828.05 996.54"/><rect class="cls-8" x="827.55" y="1009.98" width="4.95" height="3.61" transform="translate(-303.53 357.8) rotate(-20.65)"/><path class="cls-8" d="M810.69,1046.44c-6-10.7-15.94-20.2-28.87-26.39-20.92-10-43.74-8.45-58.65,2.25A64.91,64.91,0,0,0,752,1048.68C773,1058.68,795.77,1057.14,810.69,1046.44Z"/><path class="cls-16" d="M731.3,951.18s-34.51,7.94-49.95,22.08c-19.05,17.46-16.88,40.79-16.89,46.77,0,.45,11.56,3.53,24.37,1.87,6.42-.83,23.88-6.72,33.45-19.63s12-17.47,12.41-25.93C735,968.37,729.39,954.92,731.3,951.18Z"/><path class="cls-16" d="M693.9,949.44s-28.52,1.69-45.11-4.09c-19.6-6.83-33.36-25.64-33.36-25.64a150.33,150.33,0,0,0,16,1.06c8.24-.1,31.65-6.74,44.84,0C684.68,925.11,692,929.42,693.9,949.44Z"/><path class="cls-16" d="M807.42,958.73s-18.87,9.27-29.62,21.1-21.73,31.25-14.86,60.07a42.11,42.11,0,0,1,10.79-9.12c5.85-3.16,26.47-10.89,36.38-27.27,6-9.86,6.31-15.19,6-22.41S806.52,961.73,807.42,958.73Z"/><path class="cls-16" d="M743.59,943.91s-1.59-4.28-5.34-6.18c-8.83-4.5-14.58-4.44-19.48-10.56s-8.46-18.3-8.46-18.3,19.85-1.8,27.16,7.22C744.62,924.91,746.65,929.57,743.59,943.91Z"/><path class="cls-16" d="M809.9,951.18s-11.16-9.3-20.56-18.34-14.87-23.3-14.26-30.38A21.37,21.37,0,0,1,779,891.4a49.21,49.21,0,0,0,9.91,8.65c3.82,2.37,22,10.85,25.82,19.12C824,939.1,809.9,951.18,809.9,951.18Z"/><path class="cls-16" d="M639,968.69s-10.63-3.84-25.29,4.27-17,14.48-16.74,15.86,4,2.24,13.29,1.1c7.87-1,13.74-2,21-8.51S639,968.69,639,968.69Z"/><path class="cls-16" d="M893.84,983.81c-.31-.19-32-18.86-79.44-29.84-43.81-10.13-110.47-15.62-179.23,15.78l1.49,3.22c67.83-31,133.67-25.55,176.94-15.54,46.92,10.85,78.12,29.24,78.43,29.42Z"/></g></g></g></g></svg>