<svg xmlns="http://www.w3.org/2000/svg" xmlns:xlink="http://www.w3.org/1999/xlink" viewBox="0 0 1822 1230.52"><defs><style>.cls-1,.cls-10,.cls-19,.cls-20,.cls-21,.cls-22,.cls-5,.cls-8,.cls-9{fill:none;}.cls-2{fill:#0c1153;}.cls-3{fill:#fff;}.cls-4{fill:#ff7089;}.cls-21,.cls-5,.cls-8{stroke:#60bbea;}.cls-10,.cls-19,.cls-20,.cls-21,.cls-22,.cls-5,.cls-8,.cls-9{stroke-miterlimit:10;}.cls-5{stroke-width:2px;}.cls-6{fill:#9ae2f6;}.cls-7{fill:#60bbea;}.cls-8,.cls-9{stroke-width:2.94px;}.cls-10,.cls-19,.cls-22,.cls-9{stroke:#fff;}.cls-10{stroke-width:2.63px;}.cls-11{fill:#ff586b;}.cls-12{fill:#e6b09c;}.cls-13{fill:#a21d89;}.cls-14{fill:#ffc4ad;}.cls-15{fill:#b22097;}.cls-16{clip-path:url(#clip-path);}.cls-17{clip-path:url(#clip-path-2);}.cls-18{fill:url(#linear-gradient);}.cls-19{stroke-width:2.85px;}.cls-20{stroke:#9ae2f6;stroke-width:1.41px;}.cls-21{stroke-width:2.62px;}.cls-22{stroke-width:1.63px;}</style><clipPath id="clip-path"><path class="cls-1" d="M1764.62,56.5C1641.38,99.81,1469.18,3.21,1377.81,8.91c-117,7.29-259.38,98.45-55.94,207.84S1275.16,436.22,1149,362.61c-75.89-44.26-96.64-186-259.38-229.72S516,280.32,741.08,444.43c199,145.11,187.41,235.7,125.89,284.45-72.48,57.43-166.28-20-278.48-2.74-106.81,16.41-76.29,87.52-160.22,134C367.15,894,199.38,882,210.83,959H1764.62Z"/></clipPath><clipPath id="clip-path-2"><rect class="cls-1" x="319.94" y="311.28" width="1443.14" height="648.06"/></clipPath><linearGradient id="linear-gradient" x1="-7048.56" y1="747.24" x2="-7050.38" y2="405.29" gradientTransform="matrix(0.94, -0.35, 0.35, 0.94, 7870.01, -1816.9)" gradientUnits="userSpaceOnUse"><stop offset="0.01" stop-color="#35a194"/><stop offset="0.42" stop-color="#359c84"/><stop offset="1" stop-color="#0f4548"/></linearGradient></defs><title>Asset 9</title><g id="Layer_2" data-name="Layer 2"><g id="Layer_5" data-name="Layer 5"><path class="cls-2" d="M1764.62,56.5C1641.38,99.81,1469.18,3.21,1377.81,8.91c-117,7.29-259.38,98.45-55.94,207.84S1275.16,436.22,1149,362.61c-75.89-44.26-96.64-186-259.38-229.72S516,280.32,741.08,444.43c199,145.11,187.41,235.7,125.89,284.45-72.48,57.43-166.28-20-278.48-2.74-106.81,16.41-76.29,87.52-160.22,134C367.15,894,199.38,882,210.83,959H1764.62Z"/></g><g id="dizajn"><path class="cls-3" d="M896.47,682.38c.36.15-7-19.26-17.58-25.5-7.07-4.21-19.51-5.81-19.5-5.8a33.17,33.17,0,0,0,7.88,11.19C872.83,667.26,892.3,677.88,896.47,682.38Z"/><path class="cls-3" d="M898.09,678.59s10.25-3,19.56-4.77A197.69,197.69,0,0,1,941,670.34a83.79,83.79,0,0,1,10-.37c.07,0-13.19,7.63-24.87,9.26S901,680.1,898.09,678.59Z"/><path class="cls-3" d="M906.23,660.43c.28.15-13.09-19.16-21.45-24.23-9.62-5.85-27-9.76-30.43-10.9,0,0,10.26,9.19,19.47,16.85S898.52,660.25,906.23,660.43Z"/><path class="cls-3" d="M908.55,658.71s2.53-1.27,8.74-4,23.45-10,30.38-11.68,21.23-2.38,26.15-2.49c1.89-.06-10.82,5.72-19.25,9-6.33,2.45-15.78,6.15-22.46,7.1-3.09.43-17.52,1.12-23.09,4.8S908.57,658.71,908.55,658.71Z"/><path class="cls-3" d="M910.82,646.34c.2.09-7.86-16.57-14.84-22.62a93.28,93.28,0,0,0-24.6-15.66c-9.55-4-18-7.61-18-7.61s8.44,10.62,15.87,16.86S883,629.9,892,634.91,910.84,646.35,910.82,646.34Z"/><path class="cls-3" d="M913.14,641.27c1.85-2.7,4.06-5.17,11.59-8.22s24-11.58,34.17-13.28,25-4.37,25.65-4.68S967.25,627,955,630.85a285.2,285.2,0,0,1-27.75,6.78c-6.57,1.36-12.93,3.59-15.59,6.52A18.12,18.12,0,0,1,913.14,641.27Z"/><path class="cls-3" d="M914.11,624s-2.43-7.08-12.12-16.51-19-18-24.28-21.74-18.15-9.21-19.76-10.36,7.13,11.51,10.28,15a93.65,93.65,0,0,0,20,15.5C898.1,611.7,911.27,621.18,914.11,624Z"/><path class="cls-3" d="M914.85,622.59c3.32-2.64,11.95-6.54,17-9s10.33-2.88,27.53-12.88c15.11-8.76,23.32-18.25,23.32-18.25s-3,.86-13.75,3.08-23.11,11.72-34.43,19a103.77,103.77,0,0,0-17.83,14.26C916.07,620.06,915.46,621.33,914.85,622.59Z"/><path class="cls-3" d="M918.13,604.56c.13.09-13.87-18.6-22.35-27.59-8.29-8.86-14.28-16.28-26.64-19.81s-18.56-6.79-18.56-6.79,11.26,11.61,20.8,19.38,22.17,18.12,26.85,21S915.86,605.32,918.13,604.56Z"/><path class="cls-3" d="M915.83,592.45c3-4,6.56-7.57,15.13-13.86,8.11-6,17.56-12.54,23.18-14.68S978,555.09,978.45,555s-9.11,12.58-17.3,17.26-14.87,9.44-27.14,13-17.55,8.39-19.17,12.6S915.14,593.42,915.83,592.45Z"/><path class="cls-3" d="M913.64,579.45S907,570.38,900,566.89s-22.75-16.3-27.56-21c-4.69-4.58-25.43-23.56-26.68-25.46s9.12,5.35,17.69,8.82,20.29,13.11,28.39,21.14,20.86,23.25,22.07,25.55S913.64,579.45,913.64,579.45Z"/><path class="cls-3" d="M913.89,569.27s7-7.15,13.48-12.69,18.91-12.73,21.93-15.09,20.6-9.47,20.81-10.07-6.41,11-16.25,18.84-17.88,11.61-26.15,15-12.77,6.89-13.61,9.55S913.92,569.27,913.89,569.27Z"/><path class="cls-3" d="M908,543.8c0,.05-14.62-16.62-22.48-23.54s-16.2-15.54-23.67-20.51S843.05,487.09,843,487.08s10.9,14.79,19.45,23.5,18,18.15,28.48,25.73a164.45,164.45,0,0,0,19.51,12.14Q909.25,546.13,908,543.8Z"/><path class="cls-3" d="M910.54,542.31s11.77-12.85,18.56-18.26,19-12.88,24.71-14.83a88,88,0,0,0,10.51-4.5c-.06-.12-16.11,19.27-25.79,24.48-9.72,4.95-26.51,15.45-27.95,21.78S910.59,542.31,910.54,542.31Z"/><path class="cls-3" d="M902.9,518.23c0,.06-15.43-18.94-20.86-25.09s-16.74-15.44-23.58-19-22.65-12.92-25.07-15.92,7.34,12.62,17,21,23.72,19.46,34.74,28.11,16.39,11.59,19.38,18.34S902.91,518.25,902.9,518.23Z"/><path class="cls-3" d="M904.38,515.8s6-8.4,11.78-13.18,15.35-9.75,19.78-12.52,21.85-9,22.53-10-10.38,15.06-21.87,21.63-20.48,9.51-24.47,12.58a62.78,62.78,0,0,0-7.46,7C904.57,519.45,904.48,517.62,904.38,515.8Z"/><path class="cls-3" d="M895,488.75s-12.85-16-23.64-25.49-27.28-17.69-33.2-21a54.18,54.18,0,0,0-9.44-4.31,261.58,261.58,0,0,0,18.56,19.16c10.13,9.4,24.44,17.87,31,21.54s17.09,12.48,18.47,15.15S895,488.75,895,488.75Z"/><path class="cls-3" d="M897.62,490.29s7.32-11.76,15.35-16.93,15.11-10.48,19.7-12.24,15.64-7.76,15.67-7.73-5.75,10.81-14.77,17.94c-6.87,5.19-28.3,15.46-33.84,21.18C895.25,497,897.62,490.29,897.62,490.29Z"/><path class="cls-3" d="M889,465.82S878.72,447.59,864.71,436a174.16,174.16,0,0,0-31.41-20,85.21,85.21,0,0,1-15-8.68s7.15,10.57,13.6,16.28,17.65,14.92,27.21,21.81,28.42,18,31.13,24.32S888.94,465.82,889,465.82Z"/><path class="cls-3" d="M888.48,462.48s4-5.14,8.12-9.77,12.6-14.06,19.45-17.1c6.65-3.2,25.12-11.22,25.85-12,.52-1-9.53,14.15-16.68,20.21-7.4,5.89-23,13.93-30,18.31S887.18,464.32,888.48,462.48Z"/><path class="cls-3" d="M882.44,439.77c-.08,0-15.76-22.9-24.86-31.62a216.52,216.52,0,0,0-31-23.95c-10.62-6.72-13.81-8.12-13.81-8.11s14.7,20.05,23.11,27.45,16.56,15.18,26.07,21.68,19.55,14.06,21.78,20.57S882.41,439.77,882.44,439.77Z"/><path class="cls-3" d="M883.65,441s2-5.2,6-14.1,10.25-19.22,14.38-22.67c3.89-3.62,26-12.18,26.67-12.46.33-.47-8.44,17.79-15.26,24.71-8.43,8.12-17.72,12-25.06,21.19s-6.27,10.35-6.3,10.33Q883.84,444.53,883.65,441Z"/><path class="cls-3" d="M876.52,416s-4.83-9.72-15.74-23.61S843.5,370.16,836,364.46s-19.06-12.93-19.06-12.93,5.77,11.84,12.07,19.16,20.21,20.93,28.95,29.15,17.59,16.93,20.76,24.74S876.44,416,876.52,416Z"/><path class="cls-3" d="M876.16,412.3s-.29-13.83,8.05-23.62,11.64-14.92,16.77-17.39,23.28-11.26,23.44-11.18c-.55-.16-16.5,23.1-23.9,30.44-8,7.1-18.34,12.39-23.06,22.88C875.07,418.86,876.15,412.3,876.16,412.3Z"/><path class="cls-3" d="M872.41,389.46c-.06,0-7.62-14.72-13.54-23.47s-12.14-17.4-22.84-27.3-15.7-14.05-15.72-14,.29,10.88,10.54,24.22,21,22.42,26.27,28.13,13.35,13.2,15.43,17.25S872.38,389.46,872.41,389.46Z"/><path class="cls-3" d="M872.35,374.2c-.31-.11,11.27-20.16,16.42-27.58,6.6-11,29.11-17.51,31.06-18.59,1.35-1.28-14.57,20.7-20.78,27.26-4.12,3.43-19.43,16.86-23.43,23.08C871.43,384.47,870.55,379.9,872.35,374.2Z"/><path class="cls-3" d="M869.83,364.43s-5.06-10-9.65-18.92c-4.75-8.95-13-24.71-18.32-29.76s-15.58-13.07-15.57-13.08-2,9.64,5.34,20.33a191.71,191.71,0,0,0,21.2,26.12c6.23,6.32,16.07,17.18,17.12,22.18S869.76,364.43,869.83,364.43Z"/><path class="cls-3" d="M870.55,347.33a59.36,59.36,0,0,1,8.1-16.57C884.17,322.94,892,314,898,308.84c5.82-5.27,18.38-11.83,18.45-11.8-.28-.05-11.06,16.51-17.87,24.6-7.54,7.89-23.55,22.1-27.48,30.66C867.57,359.5,870.46,347.31,870.55,347.33Z"/><path class="cls-3" d="M868.93,341.53s-4.46-12.32-4.12-19.89c.07-7.57-3.07-22.9-7.56-29.9-4.72-7-10.13-15.94-10.1-15.95s-.67,11.31.39,17.31,2,13,7.65,25.94,13.19,27.44,14.28,30.46S868.85,341.53,868.93,341.53Z"/><path class="cls-3" d="M871.08,335.67a93.22,93.22,0,0,1,4.37-13.44c3.41-9.53,10.59-26.25,12.08-31.74.75-5.54.11-26.2,1.44-27.95.47-1.85-13.62,18.26-15.56,24.76-2.65,6.36-6.67,13.87-6.16,20.57.1,6.68,2.36,26.94,1.84,29.95C868.27,340.81,871.06,335.67,871.08,335.67Z"/><path class="cls-3" d="M870.19,718.13c1.36.25,35.22-35.71,42.24-65.62,12.32-30.37,3.09-95.77-1.85-114C906.91,521,887,456.16,884.39,440.42c-4.89-18.64-14.41-70.83-12.54-93,.14-13.18-1.53-23.11-1.25-24.17s-2.83,15.1-2.64,20.46c-.49,5.27.22,30.78,3.13,45.64,2.18,14.77,6.85,39.68,9.65,50.22,1.92,10.52,18,66.51,25.29,98.37,1.17,7.23,6.33,32.13,6.65,57.49.82,25.5-3.21,51.44-8.69,63.8a120.6,120.6,0,0,1-26.71,41.29C870.56,707.47,867.26,717.24,870.19,718.13Z"/><path class="cls-2" d="M1251.64,271.09A28.33,28.33,0,0,1,1257,283c3.18,16.47-8.81,32.75-27,37.46C1226.56,301.54,1235.52,282.88,1251.64,271.09Z"/><path class="cls-2" d="M1325.36,256.38c-15,12.1-24.32,34.61-36.21,42.63-16.59,11.19-38,8.48-47.79-6.05a28,28,0,0,1-2.53-4.64,63.47,63.47,0,0,1,23.46-28.46C1282.74,246.06,1307.72,245.41,1325.36,256.38Z"/><path class="cls-4" d="M1256.3,276.64a57.1,57.1,0,0,0-92,15.38A91.75,91.75,0,0,0,1256.3,276.64Z"/><path class="cls-4" d="M1260,139.34c-13.93,27.06-48.27,47.81-56.63,68.8a57.12,57.12,0,0,0,41,77A91.8,91.8,0,0,0,1260,139.34Z"/><path class="cls-2" d="M412.72,956.13A409.88,409.88,0,0,1,270.56,806.74c-25.24-45.81-32.78-81-32.85-81.38l3.15-.66c.07.35,7.54,35.19,32.58,80.59a406.57,406.57,0,0,0,141,148.11Z"/><path class="cls-2" d="M239.85,729.38s-7.57-7.18-9.29-17.31c-.62-3.67,1.07-10.49,4.49-11.07s7,3.62,7.87,9C244.64,720.11,239.85,729.38,239.85,729.38Z"/><path class="cls-2" d="M245.64,746.25s-1.74-9.15,2.18-17.63c1.41-3.07,6.07-7.37,8.77-6.12s3.1,6.18,1,10.65C253.71,741.63,245.64,746.25,245.64,746.25Z"/><path class="cls-2" d="M258,774s-1.08-8.49,3.36-15c1.62-2.37,6.49-5,9.08-3.3s2.63,6.2.29,9.65C266.24,771.81,258,774,258,774Z"/><path class="cls-2" d="M246.25,744.89s-7.43,4.11-15.11,2.42c-2.79-.62-7-4.13-6.38-7.16s4.75-4.71,8.79-3.82C241.23,738,246.25,744.89,246.25,744.89Z"/><path class="cls-2" d="M348.05,904.9s-5.77,6.53-14.18,8.23c-3.05.62-8.77-.62-9.35-3.46s2.83-5.93,7.26-6.82C340.19,901.14,348.05,904.9,348.05,904.9Z"/><path class="cls-2" d="M256.19,774.63s-8.88,4-18.27,2c-3.4-.76-8.71-4.61-8-7.77s5.58-4.75,10.53-3.66C249.83,767.24,256.19,774.63,256.19,774.63Z"/><path class="cls-2" d="M269.59,804.07s-8.14,5.3-16.35,3.48c-3-.65-7.44-4.81-6.62-8.54s5.28-5.92,9.6-5C264.42,795.85,269.59,804.07,269.59,804.07Z"/><path class="cls-2" d="M271.46,802.45s-3-9.1.69-16.93c1.32-2.83,6.25-6.5,9.51-5S285.9,786.91,284,791C280.33,798.86,271.46,802.45,271.46,802.45Z"/><path class="cls-2" d="M349.61,905.13a26,26,0,0,1-5.47-15.43c-.06-3.38,2.14-9.85,5-10.64s5.24,2.85,5.33,7.76C354.64,896.14,349.61,905.13,349.61,905.13Z"/><path class="cls-2" d="M304.35,856a22,22,0,0,1,4.57-12.88c1.76-2.4,6.68-6.13,9-5.63s2,4-.57,7.44C312.51,851.57,304.35,856,304.35,856Z"/><path class="cls-2" d="M286.62,832.7a18.84,18.84,0,0,1-12.39.16c-2.53-.8-7-4.07-7.19-6.37s2.95-3.17,6.64-2C280.67,826.71,286.62,832.7,286.62,832.7Z"/><path class="cls-2" d="M327.71,882.28s-6.23-8-6.92-15.47c-.26-2.71,1.84-6.51,5-5.44s6,5.38,6.35,9.32A13.79,13.79,0,0,1,327.71,882.28Z"/><path class="cls-2" d="M305.66,856.52s-10.23,6-19.8,6.19c-3.47.08-8.35-2.37-7-5.56s6.87-5.88,11.92-6A20.7,20.7,0,0,1,305.66,856.52Z"/><path class="cls-2" d="M327.63,884.16s-9.7,5.63-18.36,5.51c-3.13,0-7.34-2.7-5.86-5.86s6.68-5.67,11.23-5.61A17,17,0,0,1,327.63,884.16Z"/><path class="cls-2" d="M337.39,708.66s-5.77,6.53-14.18,8.24c-3,.61-8.77-.62-9.35-3.47s2.83-5.92,7.26-6.82C329.53,704.9,337.39,708.66,337.39,708.66Z"/><path class="cls-2" d="M371.53,924.84a21.71,21.71,0,0,1-2.72-13.39c.28-3,2.64-8.71,4.94-9.48s3.79,2.37,3.37,6.67C376.33,916.81,371.53,924.84,371.53,924.84Z"/><path class="cls-2" d="M284.58,761.83s-2.54-9.08-.73-16.32c.65-2.63,3.57-5.72,5.78-4s3.17,6.55,2.22,10.36A15.38,15.38,0,0,1,284.58,761.83Z"/><path class="cls-2" d="M288.6,833.77a32.92,32.92,0,0,1,.61-17.27c1-3.48,4.9-9.56,7.45-9.63s3.29,4.3,1.77,9.36C295.56,825.85,288.6,833.77,288.6,833.77Z"/><path class="cls-2" d="M863.22,865.85c.17-.08-9.23-22.09-18.56-27.72-6.35-4-16.76-4.79-16.76-4.79a39.7,39.7,0,0,0,8,11C841.16,849.07,858.9,860.37,863.22,865.85Z"/><path class="cls-2" d="M863.8,861.42a161.7,161.7,0,0,1,15.11-6c7.32-2.38,12.47-4,18.53-5s8.12-.89,8.12-.88-9.66,10.1-18.83,12.21S866.5,863.11,863.8,861.42Z"/><path class="cls-2" d="M867.57,840.49c.15-.11-13.05-20.18-20.26-24.2-8.43-5-23.06-6.78-26-7.47,0,0,9.12,7.52,17.49,14.52C847.13,830.13,861.22,840.59,867.57,840.49Z"/><path class="cls-2" d="M869.25,838.43s1.92-1.55,6.71-5,18.27-13.36,23.88-16.12,17.34-5.25,21.4-6c1.55-.27-8.48,8.39-15.12,13-5,3.56-12.38,8.7-17.75,10.25-2.5.73-14.29,2.51-18.37,6.92S869.27,838.43,869.25,838.43Z"/><path class="cls-2" d="M869.73,824.58c.1-.05-8-17.23-14.07-22.36a58.3,58.3,0,0,0-21.21-12.1c-8.1-2.4-15.23-4.35-15.23-4.35s7.39,8.48,13.92,13.59,12.16,10.64,20,14.86A173.87,173.87,0,0,1,869.73,824.58Z"/><path class="cls-2" d="M871.17,818.82c1.29-3.14,2.91-6,8.91-10.29s19.08-16.18,27.43-20,20.42-9.69,21-10.23S914.82,796,905,802.07a155.33,155.33,0,0,1-22.46,11.25c-5.32,2.26-10.38,5.34-12.3,8.79A23.58,23.58,0,0,1,871.17,818.82Z"/><path class="cls-2" d="M870.68,800.07s-2.46-7.35-10.91-15.43-16.41-14.67-20.9-17.17-15.23-5-16.6-5.72,6.18,9.2,8.91,12a71.78,71.78,0,0,0,17.14,11.56C856.72,789.39,868.15,797.39,870.68,800.07Z"/><path class="cls-2" d="M871.21,798.48c2.59-3.27,9.52-8.8,13.55-12.34s8.41-4.71,22.12-19.76A114,114,0,0,0,925,739.18s-2.42,1.94-11.07,7.33-18.4,19.13-27.43,29.17a139.94,139.94,0,0,0-14,18.46C872.07,795.59,871.64,797,871.21,798.48Z"/><path class="cls-2" d="M873,778.76c.08-.07-12.24-17-19.5-23.83S841.24,742.26,831,742.07s-15.39-1.57-15.39-1.57,9.51,7.72,17.57,13S852,766.26,856,768.27,871.14,779.89,873,778.76Z"/><path class="cls-2" d="M870.59,766.42c2.34-4.89,5.14-9.31,11.89-18.21,6.4-8.42,13.71-18.44,18.1-22.58s18.53-17.74,18.85-18.12-6.16,18-12.61,25.63-11.6,14.8-21.54,21.62S871.15,767.6,870,772.36,870.06,767.6,870.59,766.42Z"/><path class="cls-2" d="M868.29,753.31s-5.85-7.84-11.69-9.56-19.21-10.27-23.29-13.36c-4-3.27-21.55-14.65-22.65-15.81s7.59,2,14.65,2.67,17,6.32,24,12.08,18,18,19.09,20.21A3.61,3.61,0,0,1,868.29,753.31Z"/><path class="cls-2" d="M868.08,742.64s5.41-9.25,10.35-17.16,14.32-19.83,16.44-23.61,15.18-18.34,15.19-19.25-3.46,15.44-10.74,27.61a96.91,96.91,0,0,1-20.13,24.48c-6.56,5.94-10.12,10.68-10.71,13.67S868.1,742.64,868.08,742.64Z"/><path class="cls-2" d="M862,717.89c.06-.06-12.82-12.44-19.63-16.43S828.26,692,821.94,690,806,685.25,806,685.25s10,9.4,17.35,14.77,15.6,11.29,24.47,15.57A107,107,0,0,0,864.29,722Q863.17,719.91,862,717.89Z"/><path class="cls-2" d="M864,715.56c.07,0,8.53-17.18,13.14-25.68s12.95-21.52,16.86-26.24a83.24,83.24,0,0,0,7-9.74c.22.09-8.51,29.15-15.88,38.13-7,9.19-19.69,25.68-20.57,32.51S864,715.56,864,715.56Z"/><path class="cls-2" d="M855.91,693.33c.07-.09-14.09-13.58-19.12-17.3s-15-8.23-20.67-8.72-19-2.51-21.31-4.1,7.52,8,16,12,20.61,9,30.13,13.56,14,5.67,17,11.55S856,693.3,855.91,693.33Z"/><path class="cls-2" d="M856.82,690.29s3.79-10.84,7.43-18.24,9.92-16.8,12.55-21.85,13.64-20.14,13.7-21.75c.24-1.55-3.14,22.17-10.89,34.13-7.58,12-14.19,18.53-16.91,23.25s-5.1,10-5.1,10Q857.23,693.05,856.82,690.29Z"/><path class="cls-2" d="M846,666.44s-12.37-10.65-22.26-14.85-23.56-4.26-28.52-4.49a30.37,30.37,0,0,0-7.72.45s8.19,4.68,17.39,8.84,21.3,6.24,26.83,7.08,14.93,5.22,16.37,7.4S846,666.43,846,666.44Z"/><path class="cls-2" d="M848.23,666.91s3.54-14.94,8-24,7.93-18.16,10.49-22.33,7.86-16.38,7.81-16.4.38,14.82-4.1,26.85c-3.16,9.11-16.75,29.41-20.23,37.29C847.47,674.67,848.24,666.91,848.23,666.91Z"/><path class="cls-2" d="M837.08,646.21c.06,0-11.67-13.31-24.78-17.07a80.61,80.61,0,0,0-27.36-2.55,51.8,51.8,0,0,1-12.78,0s8,5.26,14,7.17,16.25,4.73,24.72,6.7,24.64,4,28,9.11S837.1,646.2,837.08,646.21Z"/><path class="cls-2" d="M836,643.14s1.71-6.88,3.21-13.44,4.19-20.16,7.29-26.85c3.29-6.6,10.77-25,10.58-26.34,0-1.28,1.31,19.81-1.43,29.77-2.49,10-10.87,25.85-14.9,33.36S835.45,645.53,836,643.14Z"/><path class="cls-2" d="M825.58,624c.08-.1-18.07-13.69-27.39-16.31a98.08,98.08,0,0,0-29.05-3.93c-9.34.19-11.87.82-11.87.81s17.22,8,25.23,10.18,16.11,4.69,24.6,5.86,17.73,3.33,21.16,8.53S825.62,624,825.58,624Z"/><path class="cls-2" d="M826.79,624.65s-.09-5.92-.77-16.42-1.65-23.41-1.08-28.87c.77-5.39,7.68-26,7.59-26.74.17-.73,6.48,21.33,5.24,31.85-1.27,12.48-5.64,21.19-7.46,33.65s-1.2,13-1.16,13Q828,627.89,826.79,624.65Z"/><path class="cls-2" d="M813.34,604.92s-6.86-6.47-19.8-12.36-20.9-8.66-28.08-8.9a156.26,156.26,0,0,0-17.38.83s9.35,5.28,16.47,7.6,21.63,5.77,30.5,8.3,18,5.66,22.92,11.29S813.39,604.88,813.34,604.92Z"/><path class="cls-2" d="M811.63,601.75s-5.69-12.19-6.22-25.11-2.34-19.09-1.31-24.09,3.16-22.75,3.07-22.77c.27-.07,9.25,28.42,8.41,39.29-.49,10.82-4,21.11-2.66,33C813.56,608.26,811.64,601.75,811.63,601.75Z"/><path class="cls-2" d="M799,583.8s-11.85-8.18-20.1-11.49-16.61-6.28-28.13-7a165.75,165.75,0,0,0-16.62-.41s7.05,6.44,20,10.23,23.76,5.11,29.72,6.78,14.36,3.54,17.53,5.9S799,583.79,799,583.8Z"/><path class="cls-2" d="M790.87,571.25c.17,0-6-22.28-9.64-30.36-4.78-11.63-2.07-28.91-2.51-30.78-.17-1.92,12.4,22.16,13.47,31.09.93,4.94,1.95,24.26,2.81,31.6S793.07,576.84,790.87,571.25Z"/><path class="cls-2" d="M783.84,565s-8.64-4.84-16.78-8.48-23-9-29.07-8.83S721.73,549,721.74,549a37.54,37.54,0,0,0,16.72,8.7c10.59,2.51,20.18,4.52,27.26,5.51s18.8,3.67,22.21,7.1S783.87,565,783.84,565Z"/><path class="cls-2" d="M773.27,551.9A151.7,151.7,0,0,1,765,536c-3.58-8.26-8.19-18-10.9-24.18a173.13,173.13,0,0,1-5.41-16.54c.06-.06,12.78,14.34,16.82,23.46,4.31,9,8,27.85,11.37,36.4C779.8,562.42,773.31,551.88,773.27,551.9Z"/><path class="cls-2" d="M768.53,548.78s-10.66-5.86-16.35-10.54-19.47-11.25-27.07-11.9-17.17-1.48-17.17-1.47,9.55,5.07,14.79,7.5,11.3,5.29,23.42,9.77,25.55,10.32,28.06,11.93S768.54,548.75,768.53,548.78Z"/><path class="cls-2" d="M765.34,543.58S763,540.44,757,532.52s-18.19-20.64-23-23.73c-4.72-3.29-25-10.42-26.55-11.34-1.44-1.13,14.46,13.43,19.23,17.84,4.92,4.29,9.92,10.27,15.57,13.64S764.3,543.57,766,546.16,765.35,543.58,765.34,543.58Z"/><path class="cls-2" d="M852.12,909.14c.36.12,16-44.23,19.59-77.87,6.42-35.53-2.2-102.76-8-119.66-2.94-17.89-28.28-75.26-36.62-87.91-7.64-16.36-37.38-57-53.14-72.45-8.91-9.47-17.45-14.48-18.12-15.31s10.23,11.1,13.75,14.91c3.74,3.63,20,22.29,28.61,33.61,8.92,11,21.3,31.46,26.15,40.25,5.72,8.27,28.91,56.67,35.69,87.8a345.49,345.49,0,0,1,8.05,57.72c1.77,26.41-.05,55-2.52,69.08-3.5,21.91-9.9,39.81-13.5,47.88S849.41,907.59,852.12,909.14Z"/><path class="cls-2" d="M275,928.78c33.42,15.38,69.67,14.34,97.73.17-7.5-30.52-30.29-58.73-63.72-74.1s-69.67-14.34-97.72-.18C218.81,885.19,241.6,913.4,275,928.78Z"/><line class="cls-5" x1="223.84" y1="860.97" x2="366.43" y2="926.57"/><line class="cls-5" x1="253.32" y1="874.35" x2="244.77" y2="851.23"/><line class="cls-5" x1="277.63" y1="885.54" x2="267.09" y2="857.03"/><line class="cls-5" x1="301.94" y1="896.73" x2="284.32" y2="849.07"/><line class="cls-5" x1="326.26" y1="907.91" x2="309.11" y2="861.55"/><line class="cls-5" x1="350.57" y1="919.1" x2="341.02" y2="893.28"/><line class="cls-5" x1="250.22" y1="873.37" x2="227.09" y2="881.92"/><line class="cls-5" x1="274.53" y1="884.56" x2="238.47" y2="897.89"/><line class="cls-5" x1="298.84" y1="895.74" x2="253.71" y2="912.43"/><line class="cls-5" x1="323.15" y1="906.93" x2="276.79" y2="924.07"/><line class="cls-5" x1="347.47" y1="918.12" x2="307.63" y2="932.84"/><path class="cls-6" d="M1528.11,0A50.88,50.88,0,1,0,1579,50.88,50.88,50.88,0,0,0,1528.11,0Z"/><path class="cls-7" d="M457.14,681s65.63,9.18,80.08-14.44,5.25-48.57,13.12-73.51,26.25-13.13,17.06-51.2,28.88-85.32-10.5-81.38S525.4,498.55,490,498.55s-32.82,23.62-32.82,43.31S444,558.93,424.33,566.8s-30.19,42-9.19,70.89S457.14,681,457.14,681Z"/><path class="cls-8" d="M410.32,908.09c68-77.88,21.23-157,38.51-213.08,18.81-61,53.41-177.67,121.2-233.22"/><path class="cls-9" d="M453.48,679.91c19.7-63.61,54-166.86,116.55-218.12"/><path class="cls-10" d="M519.82,485.09s-1,27.24,1.64,33.15"/><path class="cls-10" d="M500.13,497.89s-.65,26.91,7.22,44"/><path class="cls-10" d="M476.83,501.17s-13.13,47.26,14,78.76"/><path class="cls-10" d="M450.91,558.93s1.64,33.8,26.8,51.63"/><path class="cls-10" d="M468,637c-37.41-34.78-35.77-72.19-35.77-72.19"/><path class="cls-10" d="M412.19,579.27s-3.29,46,47.14,82.05"/><path class="cls-10" d="M573.64,476.89S549.25,506.2,529.12,508"/><path class="cls-10" d="M564.34,528.3s-29.42,32.93-64.54,29.32"/><path class="cls-10" d="M567.73,552s-23.62,41-82.15,39.27"/><path class="cls-10" d="M549.36,589.78s-34.9,22.53-71.65,14.65"/><path class="cls-10" d="M544.76,619s-41.68,28.33-74.93,13.46"/><path class="cls-10" d="M543.12,647.53s-36.1,30.52-84.66,19"/><path class="cls-11" d="M858.73,226.57c47.54-81.07,124.27-100.08,125-100.26l.41,1.73c-.76.18-76.77,19-123.91,99.43Z"/><path class="cls-11" d="M981.59,127.55a19.12,19.12,0,0,1,9.43-5.39c2-.4,5.82.43,6.19,2.31s-1.9,3.91-4.84,4.49A19.14,19.14,0,0,1,981.59,127.55Z"/><path class="cls-11" d="M972.34,131a17.92,17.92,0,0,1,9.78.94c1.72.74,4.17,3.25,3.52,4.76s-3.37,1.81-5.88.74A18,18,0,0,1,972.34,131Z"/><path class="cls-11" d="M957.2,138.23a13.54,13.54,0,0,1,8.37,1.64c1.34.85,2.89,3.51,2,5s-3.39,1.55-5.34.3A13.57,13.57,0,0,1,957.2,138.23Z"/><path class="cls-11" d="M973.1,131.33a13.44,13.44,0,0,1-1.57-8.33c.3-1.55,2.18-4,3.87-3.63s2.68,2.55,2.24,4.8A13.44,13.44,0,0,1,973.1,131.33Z"/><path class="cls-11" d="M886.11,190a15.9,15.9,0,0,1-4.77-7.72c-.39-1.68.21-4.86,1.77-5.22s3.33,1.48,3.89,3.91A15.94,15.94,0,0,1,886.11,190Z"/><path class="cls-11" d="M956.79,137.26a17.92,17.92,0,0,1-1.36-10.06c.37-1.9,2.42-4.89,4.18-4.56s2.71,3,2.18,5.78A17.93,17.93,0,0,1,956.79,137.26Z"/><path class="cls-11" d="M940.71,145.12s-3.05-4.42-2.17-9c.32-1.65,2.55-4.19,4.62-3.79s3.36,2.83,2.9,5.24C945.18,142.14,940.71,145.12,940.71,145.12Z"/><path class="cls-11" d="M941.63,146.13s5-1.77,9.38.13c1.59.69,3.68,3.36,2.89,5.19s-3.46,2.44-5.76,1.44C943.75,151,941.63,146.13,941.63,146.13Z"/><path class="cls-11" d="M886,190.9a14.46,14.46,0,0,1,8.46-3.26c1.86-.08,5.47,1,6,2.6s-1.5,2.94-4.22,3.07A23.07,23.07,0,0,1,886,190.9Z"/><path class="cls-11" d="M912.49,165.13a12.15,12.15,0,0,1,7.19,2.33c1.35.94,3.49,3.61,3.25,4.91s-2.16,1.15-4.13-.21A25.23,25.23,0,0,1,912.49,165.13Z"/><path class="cls-11" d="M925.13,155a10.42,10.42,0,0,1-.28-6.85c.41-1.41,2.15-4,3.42-4.07s1.8,1.58,1.2,3.64A20.59,20.59,0,0,1,925.13,155Z"/><path class="cls-11" d="M898.32,178.44s4.32-3.56,8.45-4.06c1.49-.18,3.63.92,3.08,2.66s-2.89,3.4-5.06,3.66A7.6,7.6,0,0,1,898.32,178.44Z"/><path class="cls-11" d="M912.23,165.86s-3.45-5.57-3.72-10.86c-.09-1.92,1.19-4.65,3-3.95s3.35,3.71,3.49,6.5A11.42,11.42,0,0,1,912.23,165.86Z"/><path class="cls-11" d="M897.27,178.43S894,173.14,894,168.35c0-1.73,1.38-4.1,3.15-3.33s3.24,3.61,3.27,6.13A9.44,9.44,0,0,1,897.27,178.43Z"/><path class="cls-11" d="M994.5,181.2a16,16,0,0,1-4.77-7.72c-.38-1.68.21-4.86,1.78-5.22s3.32,1.47,3.88,3.91A15.94,15.94,0,0,1,994.5,181.2Z"/><path class="cls-11" d="M866.4,216.59a14.45,14.45,0,0,1,8.46-3.25c1.86-.09,5.48,1,6,2.6s-1.5,2.94-4.22,3.06A22.92,22.92,0,0,1,866.4,216.59Z"/><path class="cls-11" d="M875.43,203.32a12.05,12.05,0,0,1,7.37-1.71c1.64.12,4.85,1.34,5.31,2.59s-1.25,2.14-3.64,2A25.13,25.13,0,0,1,875.43,203.32Z"/><path class="cls-11" d="M939.5,170s5-1.54,9-.66c1.47.33,3.22,1.89,2.28,3.14s-3.58,1.86-5.7,1.39A8.49,8.49,0,0,1,939.5,170Z"/><path class="cls-11" d="M865.8,216.92s-4.13-5.08-5.07-10.3c-.34-1.89.59-4.76,2.45-4.29s3.8,3.26,4.29,6A11.41,11.41,0,0,1,865.8,216.92Z"/><path class="cls-11" d="M875.07,203.48s-3.74-4.64-4.25-9.06c-.19-1.6,1-3.89,2.82-3.3s3.56,3.09,3.83,5.42A8.25,8.25,0,0,1,875.07,203.48Z"/><path class="cls-11" d="M924.56,156.08a18.21,18.21,0,0,1,9.56.08c1.94.52,5.37,2.57,5.44,4s-2.32,1.88-5.15,1.12A29.83,29.83,0,0,1,924.56,156.08Z"/><path class="cls-11" d="M1210.3,846.92a23.63,23.63,0,0,0-8.61-14.74c-2.76-2.27-9.69-4.33-11.9-2.52s-.28,5.59,3.63,8.63A61.68,61.68,0,0,0,1210.3,846.92Z"/><path class="cls-11" d="M1219.47,859.62c.07,0-5.88-6.69-13.67-8-2.8-.49-7.46.93-7.3,3.48s3.63,5.15,7.5,6A21.69,21.69,0,0,0,1219.47,859.62Z"/><path class="cls-11" d="M1230.38,874.58c0-.05-6.67-5.24-13.44-4.36-2.43.29-5.88,3.1-5.13,5.88s4.27,4.76,7.73,4.53C1226.1,880.23,1230.4,874.61,1230.38,874.58Z"/><path class="cls-11" d="M1221.4,857.8a16.48,16.48,0,0,0,7.26-9.72c.59-2.39-.57-7.48-3.13-8.53s-5.06,1.15-5.69,4.56C1218.69,850.55,1221.43,857.77,1221.4,857.8Z"/><path class="cls-11" d="M1232.09,873.21a16.8,16.8,0,0,0,8.44-9.16c.89-2.41.36-7.88-2.07-9.32s-5.23.53-6.27,4C1230.26,865.29,1232.13,873.19,1232.09,873.21Z"/><path class="cls-11" d="M1243.52,895.69a11.28,11.28,0,0,0,8.06-5.57c1-1.81,1.13-6.55-.81-8.39s-4.6-.93-5.86,1.71C1242.57,888.43,1243.56,895.67,1243.52,895.69Z"/><path class="cls-11" d="M1241.32,896.81s-3.73-5.31-9-6.37c-1.89-.4-5.2.75-5.28,2.89s2.12,4.39,4.77,5.06A13.17,13.17,0,0,0,1241.32,896.81Z"/><path class="cls-11" d="M1250,917.25c-14-56-53.49-83.09-52.73-83.31l-.74.45c-.76.21,38.82,27.31,52.76,83.32Z"/><polygon class="cls-3" points="947.18 266.91 949.19 263.24 952.86 261.23 949.19 259.22 947.18 255.55 945.17 259.22 941.5 261.23 945.17 263.24 947.18 266.91"/><polygon class="cls-3" points="969.72 243.15 970.62 241.5 972.27 240.6 970.62 239.69 969.72 238.05 968.82 239.69 967.17 240.6 968.82 241.5 969.72 243.15"/><polygon class="cls-3" points="912.56 252.45 911.39 248.43 912.56 244.42 908.55 245.6 904.53 244.42 905.71 248.43 904.53 252.45 908.55 251.28 912.56 252.45"/><polygon class="cls-3" points="951.65 293.94 951.12 292.13 951.65 290.33 949.85 290.86 948.04 290.33 948.57 292.13 948.04 293.94 949.85 293.41 951.65 293.94"/><polygon class="cls-3" points="782.82 355.97 782.29 354.17 782.82 352.36 781.02 352.89 779.22 352.36 779.74 354.17 779.22 355.97 781.02 355.44 782.82 355.97"/><polygon class="cls-3" points="1328.8 109.11 1327.09 112.93 1323.59 115.22 1327.41 116.93 1329.71 120.43 1331.42 116.61 1334.91 114.32 1331.1 112.61 1328.8 109.11"/><polygon class="cls-3" points="1308.23 134.59 1307.46 136.31 1305.89 137.34 1307.61 138.11 1308.63 139.68 1309.41 137.96 1310.98 136.94 1309.26 136.17 1308.23 134.59"/><polygon class="cls-3" points="1364.46 120.77 1365.95 124.68 1365.1 128.77 1369.01 127.28 1373.11 128.13 1371.62 124.23 1372.47 120.13 1368.56 121.62 1364.46 120.77"/><polygon class="cls-3" points="1322.19 82.53 1322.86 84.28 1322.48 86.12 1324.23 85.45 1326.07 85.84 1325.4 84.08 1325.79 82.24 1324.03 82.91 1322.19 82.53"/><polygon class="cls-3" points="1437.82 57.12 1438.49 58.88 1438.11 60.72 1439.87 60.05 1441.71 60.43 1441.04 58.67 1441.42 56.84 1439.66 57.51 1437.82 57.12"/><path class="cls-5" d="M27.76,883.21s-3.65,11-12.93,16.67c-3.36,2.07-10.91,2.81-13.06-.69s.39-9,5.28-12C16.34,881.52,27.76,883.21,27.76,883.21Z"/><path class="cls-5" d="M49.11,871.6s-8.85,3.82-17.63.43c-4.42-1.71-8.06-5.49-7-9s5.46-4,10.21-2.63C43.68,863.09,49.11,871.6,49.11,871.6Z"/><path class="cls-5" d="M71.09,861.58s-7,2.9-17.05-.63c-3.22-1.13-9.7-5-8.66-8.52s6.52-3.46,11.27-2C65.67,853.07,71.09,861.58,71.09,861.58Z"/><path class="cls-5" d="M42.64,875.52a31.07,31.07,0,0,1,2.59,17.41c-.56,3.36-3.92,8.76-6.86,8.27s-4.62-5.17-3.8-10.06A31.39,31.39,0,0,1,42.64,875.52Z"/><path class="cls-5" d="M60.88,866.61s5.14,8,4.45,17.41c-.25,3.4-3.24,9.08-6.39,8.84s-5.38-4.74-5-9.68C54.61,873.8,60.88,866.61,60.88,866.61Z"/><path class="cls-5" d="M84.28,856.33s3.52,7.36,1.2,14.16c-.84,2.46-4.72,5.88-7.71,4.86s-4.34-5-3.11-8.57C77,860,84.28,856.33,84.28,856.33Z"/><path class="cls-5" d="M88.39,854.08s-7.77.72-14.24-3.34c-2.34-1.47-5.26-5.81-3.86-8s5.49-2.15,8.9,0C85.66,846.77,88.39,854.08,88.39,854.08Z"/><path class="cls-5" d="M1.87,898.64s48.92-33.78,111.25-52.24"/><path class="cls-5" d="M38.57,901s.48-14.49,4.15-25.73"/><path class="cls-5" d="M25,862s16.16,10,24.12,9.61"/><path class="cls-5" d="M45.76,851.6s17.31,9.85,25.33,10"/><path class="cls-5" d="M70.75,842.5s14.64,10,17.64,11.58"/><path class="cls-5" d="M77.77,875.35s2.09-11.9,6.51-19"/><path class="cls-5" d="M59.22,892.69s-1.77-13.31,1.66-26.08"/><path class="cls-11" d="M1429.44,413.48S1447,446,1444.3,480c-6.56,82.39,69.34,143.58,127.69,90.82,21.33-19.29,13.42-62.86,52.69-41.48,60.44,32.92,69.36-43,29.48-43.71-8.59-.15-12.42-12.72-14.42-19.29-4.34-14.33-22.3-35-38.06-42.2-9.48-4.34-19.89-3.36-19.89-3.36,26.9-81.3-46.3-45.94-72-73.49C1472.19,306.91,1400.86,372.45,1429.44,413.48Z"/><path class="cls-11" d="M1409,383.49c-7.73,13.79,1,31.24,15.28,35.84l14.45-10c16.55,5.35,36.53-2,44.61-16.45l5.5-9.8c8.12-14.43,1.28-30.49-15.27-35.85l-7.47-2.42c-16.55-5.36-36.52,2-44.62,16.43Z"/><path class="cls-12" d="M1360,424.42s-8.84,6.22-23.32-25.07-25.22-84.91-25.22-84.91L1354,379.92S1368.53,406.38,1360,424.42Z"/><path class="cls-12" d="M1412.73,465.09s-3.88,3.76-20.76-7.67c-68.43-46.4-50.22-73-50.22-73l60.71,49.13A37.89,37.89,0,0,1,1412.73,465.09Z"/><path class="cls-12" d="M1322.23,340.77c-12.71-18.33-27.4-20.47-35.33-26a164.67,164.67,0,0,0-17.24-10.08c10.73-.81,15.09,5,19.69,6.37s2.76,1.4-1.24-5.43c-2.29-3.9-13.4-6.34-20.3-8.77-6-2.13-8-4.52-8-4.52a104.37,104.37,0,0,1,19.54,3.35c11.54,3.31,23.22,9,25.56,10.61,4.25,3,13.15,14.94,18,24.41C1328.4,341.42,1331.34,354,1322.23,340.77Z"/><path class="cls-12" d="M1297.47,303s-14-11.05-17.73-12.16c-2.54-.78-15.27-2.54-15.27-2.54s4.8,4.45,9.83,5.43S1297.47,303,1297.47,303Z"/><path class="cls-13" d="M1245.25,735.16s-20,57.33-39.16-56.38c-3.78-22.46-31.73-29.79-1.1-67.24,30.79-37.64-12.91-111.69,30.72-85.66S1281.56,675.65,1245.25,735.16Z"/><path class="cls-12" d="M1288.56,563.08c3.16,8.85-.4,10.18-7.93,19.61-14.73,18.51-39.23,34.08-68.11,38.28-33.84,4.94-66,15.09-86.39-7.8,13.14-14.12,30.46-24.58,49.94-34.91C1236.68,546.2,1278.85,535.9,1288.56,563.08Z"/><path class="cls-12" d="M1141.16,601.28c7.14,0,18.75,7.7,12,31.22-2.56,8.88-10.1,18.41-27.8,38-18.71,20.75-27.06,35.54-39.52,47.4-12.29,11.7,2-25.95,10-43.59C1123.11,614,1130.27,601.28,1141.16,601.28Z"/><path class="cls-12" d="M1054.35,764.73s9.2-1.21,18.66-15.51c13.29-20.08,22.38-10.75,22.88-22.14.28-6.19-4.84-7.45,0-20.21,8.1-21.36-2.63-27.14-2.63-27.14Z"/><path class="cls-14" d="M1309.84,607.07c.65,9.37-3.13,9.69-12.94,16.73-19.18,13.83-47,22.18-75.93,18.41-33.91-4.4-67.64-3.34-81-30.9,16.47-10,36-15.41,57.53-20.07C1264.48,576.77,1307.86,578.27,1309.84,607.07Z"/><path class="cls-14" d="M1154.29,610.06c6.32,3.31,13,15.5-3.87,33.21-6.38,6.68-17.47,11.63-42.24,20.8-26.19,9.71-40.44,18.95-57,23.69-16.31,4.68,13.76-22.08,29-34C1132.38,613,1144.63,605,1154.29,610.06Z"/><path class="cls-14" d="M1001.63,714.69s8.72,3.2,23.73-5.09c21.08-11.65,24.82.84,30.53-9,3.12-5.36-.83-8.85,9.37-17.92,17.08-15.17,10.25-25.26,10.25-25.26Z"/><path class="cls-14" d="M1430.22,359.4l-16.12,22.65a23.36,23.36,0,0,0-3.22,6.33,4,4,0,0,0,1.61,2.7,27.46,27.46,0,0,1,10.63,19c-.21,7.8.41,12.22-8.52,19.83-2.56,2.16-44.24,18.45-42.42,23.51,14.07,9.22,32.41,13.51,51.48,15.81,4.24-6.85,8.73-30,11-37a100.8,100.8,0,0,1,11.25-24c-10.56-10-11.75-31-2-50.61a67.56,67.56,0,0,1,4.85-8.22A23.91,23.91,0,0,0,1430.22,359.4Z"/><path class="cls-15" d="M1410.26,451.75c6.17-3.16,12.25-.16,13,13.42.87,15-28.61,60.08-23.62,89.28,1.68,9.9,2.42,34-.65,47-7,29.77-30.37,45.66-71.48,57.62-48.25,14-83.5,82-83.5,82,1.55-18.87-38.7-83-25-105.67,24.47-40.48,15.38-42.4,14.78-57-.49-11.9,5.14-26.2,3.5-36.28a37.51,37.51,0,0,0-11.85-21.62s64.92,11,117,35.37c6.82,3.18,3.14-30.82,6.88-51.31,7.43-40.77,11.35-46.67,17.84-52.41C1391.66,430.63,1366.45,474.24,1410.26,451.75Z"/><path class="cls-14" d="M1244.64,433.88s-2.13,2.09-3.83.55c-2.85-2.57-6-9.56-7-12.1-1.13-2.82-4.19-17-4.19-17a17.08,17.08,0,0,1,5.51,9C1237,422.66,1244.64,433.88,1244.64,433.88Z"/><path class="cls-14" d="M1243.74,432.1c-3.92-3.83-4.77-10.13-4-17.78.72-7.25-2.75-10.43-2.75-10.43s-1,4.64-.93,16a26.9,26.9,0,0,0,1.38,9.63C1240.94,438.4,1253.79,442,1243.74,432.1Z"/><path class="cls-14" d="M1350.76,530.57c-7.06-24.06-75.22-67.52-75.22-67.52s-31.73-8.59,42.85,65.55C1340.79,550.87,1352.48,536.53,1350.76,530.57Z"/><path class="cls-14" d="M1245.08,437.79s-5.22-7-5.32-11.36c-.1-3.05,1.92-17.46,1.92-17.46a17.06,17.06,0,0,1,2.07,10.38C1242.6,427.82,1245.08,437.79,1245.08,437.79Z"/><path class="cls-14" d="M1407.45,445.39c-31.67,7.35-71.54,85.93-71.54,85.93s-2.16,37.1,78.85-47.85C1439.05,458,1415.26,443.59,1407.45,445.39Z"/><path class="cls-14" d="M1241.85,426.41l-1.73,2.14,1.6,9.36s9.41,14.2,14.91,18.32,19.32,26.28,21.73,28.46,16.58-2.95,16.58-2.95-19.4-18.89-26.47-27-13.1-23.24-15.75-26.5c-4.51-5.65-6.49-8.74-6.49-8.74s-2.68,2.84,3.91,12.06c1.73,2.43-1.93,3.08-1.93,3.08Z"/><path class="cls-14" d="M1248.21,434.6s2.48-.27,3-1.25a15.23,15.23,0,0,1,.55,2.22C1252.05,437,1256,446,1256,446s-4.1-5.93-5.67-7.39a38.3,38.3,0,0,1-4-5.57c-.16-.26-.2-.8-.44-1.31Z"/><path class="cls-4" d="M1454.2,347.48a53.54,53.54,0,0,1,16.64-3.72,43.87,43.87,0,0,1,9.63.45,35,35,0,0,1,10,3.19,32.26,32.26,0,0,1,4.81,3c.75.6,1.54,1.17,2.24,1.85.36.33.73.65,1.08,1l1,1.12a43.44,43.44,0,0,1,6.41,9.89A135,135,0,0,1,1514,386c2.15,7.51,4,15.24,6,22.95,1,3.85,2.07,7.7,3.26,11.41l.93,2.74c.33.87.64,1.8,1,2.63a36,36,0,0,0,2.2,4.64l.57.9c.19.28.37.48.54.72a1.27,1.27,0,0,0,.14.17l.11.1.22.22.09.12.22.18.44.37a20.38,20.38,0,0,0,3.77,2.6,31.85,31.85,0,0,0,9.7,3,76.59,76.59,0,0,0,11.91.77c4.18,0,8.49-.2,12.88-.55,2.19-.13,4.4-.37,6.59-.54l3.52-.3c1.16-.1,2.34-.19,3.53-.24a91.7,91.7,0,0,1,14.71.09c.63,0,1.29.13,2,.23l2,.29c.65.08,1.35.28,2,.42s1.34.29,2,.49a34.41,34.41,0,0,1,8.09,3.47c.66.37,1.23.81,1.83,1.21l.9.62c.29.21.54.44.82.66.53.44,1.08.88,1.6,1.32L1619,448c.49.45.91.9,1.33,1.35l1.26,1.33c.75.86,1.57,1.76,2.26,2.59l1.07,1.26.26.32.31.39.62.81,1.22,1.63c.39.55.71,1.1,1.06,1.66l1,1.65.85,1.66c.28.56.57,1.11.83,1.66l.71,1.65a87.53,87.53,0,0,1,4.18,12.78c1,4.12,1.87,8.1,2.72,11.81s1.73,7.23,2.8,9c2.91,4.74,8.91,9.62,13.35,10.71a7,7,0,0,0,1.33.23,4,4,0,0,0,1.19-.11,3.91,3.91,0,0,0,2.07-1.39,9.51,9.51,0,0,0,2.1-6.58,12,12,0,0,0-2.7-6.87,8,8,0,0,0-2.68-2.12,5.06,5.06,0,0,0-1.47-.41,4.09,4.09,0,0,0-1.47.12l-.37.13-.09,0h0c-.08,0,.08-.06,0,0l-.06,0-.24.13-1,.51a10.07,10.07,0,0,0-1.43,1,4.54,4.54,0,0,0-1.67,2.87,6.43,6.43,0,0,0,.77,3.56,14,14,0,0,0,2.29,3.19,13.51,13.51,0,0,1-3.12-2.63,7.77,7.77,0,0,1-1.92-4.09,6.91,6.91,0,0,1,1.43-4.82,12.15,12.15,0,0,1,1.75-1.92l.85-.71.21-.18,0,0,.15-.1.16-.09.61-.39a8.42,8.42,0,0,1,2.85-.91,9.19,9.19,0,0,1,3,.15,12.59,12.59,0,0,1,5.19,2.56,17.09,17.09,0,0,1,3.81,4.31,18,18,0,0,1,2.29,5.52,17.41,17.41,0,0,1,.29,6.34,15.45,15.45,0,0,1-.32,1.62,12.56,12.56,0,0,1-.46,1.59,16.73,16.73,0,0,1-1.4,3.1l-.21.39-.27.4-.56.8a15,15,0,0,1-1.3,1.47,12.9,12.9,0,0,1-3.24,2.31,14,14,0,0,1-3.89,1.19,16.25,16.25,0,0,1-4,.09,23.73,23.73,0,0,1-6.73-1.68,35.43,35.43,0,0,1-5.82-3,43.31,43.31,0,0,1-5.24-3.89,34.16,34.16,0,0,1-4.77-5.06c-.38-.49-.76-1.05-1.11-1.61s-.66-1.16-1-1.75-.52-1.08-.78-1.64-.5-1.09-.68-1.59c-.41-1-.82-2.07-1.14-3.06l-.52-1.5-.48-1.46c-1.25-3.9-2.35-7.68-3.59-11.35a78.67,78.67,0,0,0-4.16-10.39l-.6-1.19-.65-1.11-.64-1.1-.7-1c-.23-.33-.45-.68-.69-1l-.74-.86-.36-.44-.19-.23-.26-.28-1-1.12c-2.8-3-5.33-5.4-7.72-6.7-.32-.15-.62-.31-.92-.47s-.66-.25-1-.39a19.7,19.7,0,0,0-2.09-.66c-.36-.1-.78-.15-1.17-.24s-.77-.18-1.22-.22l-1.3-.15a11.12,11.12,0,0,0-1.34-.12,83.27,83.27,0,0,0-12,.18c-1,.06-2.12.15-3.2.25l-3.25.3c-2.33.2-4.64.46-7,.61-4.7.36-9.46.54-14.28.5a86.42,86.42,0,0,1-14.77-1.26,47.08,47.08,0,0,1-15.12-5.33,37.32,37.32,0,0,1-6.7-5l-.75-.71-.38-.37-.43-.48-.86-1-.41-.49c-.13-.17-.23-.32-.34-.48-.44-.63-.91-1.29-1.29-1.92l-1-1.85a49.68,49.68,0,0,1-2.91-7c-.41-1.13-.7-2.22-1-3.33s-.61-2.17-.89-3.25c-1.09-4.28-1.93-8.44-2.69-12.5-1.51-8.13-2.68-15.9-4-23.3a153.27,153.27,0,0,0-4.84-20.7,36.82,36.82,0,0,0-3.83-8.35l-.58-.87-.67-.84c-.44-.59-1-1.09-1.44-1.63a24.34,24.34,0,0,0-3.26-2.82c-4.66-3.44-10.45-5.24-16.09-6.09A61.59,61.59,0,0,0,1454.2,347.48Z"/><path class="cls-4" d="M1459.11,352.55a26.19,26.19,0,0,1,6.64-1.07,25.22,25.22,0,0,1,7.07.71,23.13,23.13,0,0,1,12.71,8.28,33.44,33.44,0,0,1,4.25,7c.27.64.54,1.29.82,1.93s.47,1.3.72,2c.45,1.31,1,2.62,1.38,4a149.23,149.23,0,0,1,4.29,16.94c1.18,5.87,2.17,11.93,3.19,18.1s2.08,12.46,3.66,18.63a51.24,51.24,0,0,0,3.1,8.86,37.3,37.3,0,0,0,5.09,7.9l.75.93.82.88c.56.59,1.09,1.19,1.66,1.76,1.2,1.09,2.33,2.26,3.64,3.26a59,59,0,0,0,8.16,5.63,66,66,0,0,0,18.77,6.92c.41.09.82.2,1.24.27l1.25.19,2.51.39c.83.16,1.68.18,2.52.27l2.53.23c1.7.1,3.39.1,5.09.15l5.37,0c1.8,0,3.61.08,5.41.15s3.61.16,5.43.35a65,65,0,0,1,11,1.76,27.73,27.73,0,0,1,10.72,5.09,19.37,19.37,0,0,1,2.27,2.17,12.63,12.63,0,0,1,1,1.21c.3.42.64.82.9,1.26a25.53,25.53,0,0,1,2.55,5.31l.46,1.34c0,.12.07.21.11.35l.11.43c.06.3.14.59.19.88a12.74,12.74,0,0,1,.11,3.48,14.87,14.87,0,0,1-2,6.06,18.51,18.51,0,0,1-3.78,4.57,19.58,19.58,0,0,1-4.81,3.15,17.28,17.28,0,0,1-5.58,1.49,14.08,14.08,0,0,1-10.68-3.44l-1-.94c-.31-.31-.58-.63-.86-1a18.36,18.36,0,0,1-1.52-2.07,13.31,13.31,0,0,1-1.94-4.89,10.44,10.44,0,0,1,.43-5.29,8.86,8.86,0,0,1,7.52-6,6.77,6.77,0,0,1,4.5,1.31,7.91,7.91,0,0,1,1.53,1.53,9.62,9.62,0,0,1,.61.91,7,7,0,0,1,.44,1,4.18,4.18,0,0,1,.09,2.1,4,4,0,0,1-1,1.75,5,5,0,0,1-1.47,1.12,4.18,4.18,0,0,1-1.65.49,4.69,4.69,0,0,0,2.37-2.09,3.19,3.19,0,0,0,.39-1.43,3,3,0,0,0-.41-1.38,4.54,4.54,0,0,0-.42-.56c-.19-.17-.33-.34-.54-.51a5.48,5.48,0,0,0-1.3-.85,4,4,0,0,0-2.78-.28,5.34,5.34,0,0,0-3.75,4.13,7.16,7.16,0,0,0,1.73,5.88,14.94,14.94,0,0,0,1.21,1.34c.23.2.46.44.69.62l.68.55a8.83,8.83,0,0,0,3,1.42,9.75,9.75,0,0,0,6.7-1,13.22,13.22,0,0,0,5.31-5.2,8,8,0,0,0,1-3.22,5.91,5.91,0,0,0-.09-1.47l-.09-.34,0-.17-.09-.25-.37-1a20.16,20.16,0,0,0-1.86-3.75c-.18-.28-.4-.52-.6-.79a5.71,5.71,0,0,0-.62-.76,12.31,12.31,0,0,0-1.45-1.34,21,21,0,0,0-7.87-3.62,60.25,60.25,0,0,0-9.73-1.59c-1.67-.2-3.4-.26-5.11-.4s-3.46-.15-5.2-.22l-5.26-.11c-1.86-.09-3.71-.13-5.56-.28l-2.78-.3c-.92-.12-1.85-.17-2.76-.36l-2.75-.49-1.37-.24c-.45-.09-.9-.22-1.35-.33a72.47,72.47,0,0,1-20.54-8.13,62.89,62.89,0,0,1-8.94-6.45c-1.42-1.14-2.68-2.48-4-3.74-.63-.66-1.21-1.36-1.82-2l-.89-1-.82-1.08a41.74,41.74,0,0,1-5.57-9.26,53.94,53.94,0,0,1-3.11-10c-1.43-6.59-2.21-13-3-19.24s-1.43-12.27-2.29-18.11a151.73,151.73,0,0,0-3.3-16.82c-.3-1.35-.75-2.64-1.12-3.95-.2-.65-.38-1.31-.59-1.94s-.45-1.25-.67-1.87a31.76,31.76,0,0,0-3.59-6.81A22,22,0,0,0,1472.6,353,26.16,26.16,0,0,0,1459.11,352.55Z"/><path class="cls-4" d="M1467.68,342a42.53,42.53,0,0,1,9-1.69,45.22,45.22,0,0,1,10.44.34,37.68,37.68,0,0,1,11.21,3.53,34.16,34.16,0,0,1,10.28,8,49.89,49.89,0,0,1,4.07,5.43c1.21,1.9,2.38,3.86,3.42,5.89a129.07,129.07,0,0,1,5.7,12.63c3.47,8.7,6.4,17.91,9.61,27.09a112.83,112.83,0,0,0,5.24,12.92,21.05,21.05,0,0,0,3.13,4.77,21.58,21.58,0,0,0,4.58,3.55,19.55,19.55,0,0,0,5.25,2,39.42,39.42,0,0,0,6,.77c4.11.21,8.3.07,12.38-.12,2-.11,4-.22,6-.35l1.48-.09,1.52-.07,3-.12a66.27,66.27,0,0,1,11.46.87,40.74,40.74,0,0,1,10,3,33.6,33.6,0,0,1,4.21,2.26c.64.41,1.27.83,1.87,1.25a9.14,9.14,0,0,0,1.84,1.1,8.82,8.82,0,0,1-2.08-.66c-.68-.28-1.37-.55-2.08-.81a37.32,37.32,0,0,0-4.39-1.31,44.65,44.65,0,0,0-9.75-1.18,76.77,76.77,0,0,0-10.73.65l-2.8.45-1.42.22-1.49.25q-3,.53-6.09,1a105.34,105.34,0,0,1-13.16,1.18,43.78,43.78,0,0,1-7.29-.49,26.75,26.75,0,0,1-7.61-2.43,29,29,0,0,1-6.63-4.69,27.5,27.5,0,0,1-5-6.86,104,104,0,0,1-5.9-14c-3.31-9.46-6-18.63-9-27.17-1.48-4.27-3-8.4-4.72-12.25-.83-1.94-1.75-3.77-2.69-5.56a48.84,48.84,0,0,0-3.07-4.95A34.67,34.67,0,0,0,1500,352a35.42,35.42,0,0,0-4.22-3.37,36.72,36.72,0,0,0-9.44-4.44,49.64,49.64,0,0,0-9.64-2A51.77,51.77,0,0,0,1467.68,342Z"/><path class="cls-4" d="M1470.79,339.68a63.94,63.94,0,0,1,10.72-2.63,38.39,38.39,0,0,1,12.63.4c1.1.22,2.2.49,3.3.78s2.22.64,3.31,1.06,2.21.8,3.28,1.3l1.65.73c.54.23,1.12.59,1.69.88a31.34,31.34,0,0,1,6.22,4.63,50,50,0,0,1,5.26,5.8c6.47,8.29,11.33,18.12,15.82,28.42,2.24,5.16,4.34,10.49,6.47,15.82,1.07,2.67,2.14,5.34,3.28,7.92.56,1.29,1.15,2.53,1.75,3.68l.45.8c.15.26.29.45.43.68s.3.38.43.58.33.35.48.53a14,14,0,0,0,5.78,3.26,21.28,21.28,0,0,0,7.14.95,19.38,19.38,0,0,0,6.82-1.4,13.86,13.86,0,0,0,5.22-3.7c.35-.38.64-.82.95-1.23s.56-.88.8-1.39l.37-.73.29-.74c.23-.48.31-1,.49-1.47a12.11,12.11,0,0,0,.31-2.91,10.47,10.47,0,0,0-.52-2.81c-1.24-3.7-4.78-6.87-8.65-8.48a18.13,18.13,0,0,0-3-.94,14.1,14.1,0,0,0-2.92-.29,8.24,8.24,0,0,0-2.61.45,2.61,2.61,0,0,0-.57.23,3.53,3.53,0,0,0-.57.3,14.26,14.26,0,0,0-1.25.83,8.84,8.84,0,0,0-3.32,4.08,4.55,4.55,0,0,0-.2,2.28,6.22,6.22,0,0,0,.89,2.32,11.15,11.15,0,0,0,1.74,2.12,8.47,8.47,0,0,0,2.07,1.63,5,5,0,0,0,4.67.09,6.42,6.42,0,0,0,3.23-3.72,4.7,4.7,0,0,0-.94-4.72,4.79,4.79,0,0,1,1.61,2.1,5.65,5.65,0,0,1,.3,2.84,7.72,7.72,0,0,1-3.2,5.15,7.2,7.2,0,0,1-3.18,1.26,7.54,7.54,0,0,1-3.58-.4,11.22,11.22,0,0,1-3.09-1.75,12.72,12.72,0,0,1-1.35-1.12,13.45,13.45,0,0,1-1.26-1.34,9.83,9.83,0,0,1-1.86-3.51,8.76,8.76,0,0,1-.18-4.29,11.09,11.09,0,0,1,1.66-3.91,15.59,15.59,0,0,1,2.67-3.09c.49-.47,1-.86,1.55-1.28a9.58,9.58,0,0,1,.94-.62,7.2,7.2,0,0,1,1-.55,13.63,13.63,0,0,1,4.34-1.22,19.34,19.34,0,0,1,4.37,0,24.43,24.43,0,0,1,4.21,1,25.22,25.22,0,0,1,4,1.74,24.5,24.5,0,0,1,3.71,2.52,22,22,0,0,1,3.25,3.35,20,20,0,0,1,2.45,4.25,17.87,17.87,0,0,1,1.22,4.95,19.2,19.2,0,0,1-.28,5.14,21.5,21.5,0,0,1-.66,2.45l-.42,1.19-.51,1.13a20.86,20.86,0,0,1-1.17,2.24,21.31,21.31,0,0,1-9.67,8.38,27.36,27.36,0,0,1-9.86,2.3,29.38,29.38,0,0,1-10.11-1.21,22.38,22.38,0,0,1-9.49-5.47c-.34-.37-.69-.72-1-1.12s-.66-.81-.91-1.21-.54-.81-.76-1.2l-.63-1.13c-.77-1.48-1.43-2.91-2-4.32-1.2-2.82-2.26-5.56-3.29-8.28-2.06-5.44-4-10.73-6-15.85-4-10.2-8.13-19.82-13.4-27.75a47.26,47.26,0,0,0-4.2-5.49,27.71,27.71,0,0,0-4.79-4.34c-.44-.28-.82-.6-1.31-.86l-1.43-.83c-.94-.57-1.92-1-2.87-1.52s-1.94-.87-2.9-1.31-1.94-.76-2.91-1.09a39.6,39.6,0,0,0-11.6-2A83.06,83.06,0,0,0,1470.79,339.68Z"/><path class="cls-4" d="M1461.7,354.88a17.33,17.33,0,0,1,7.71-.49,18.11,18.11,0,0,1,8.29,3.61,23.29,23.29,0,0,1,1.86,1.61c.57.6,1.16,1.21,1.72,1.85l1.52,2.06c.49.72.88,1.48,1.32,2.24a50.2,50.2,0,0,1,3.93,9.79c4.06,13.77,5.18,29.54,6.69,45.74.19,2,.4,4,.61,6s.48,4,.72,5.92a110.25,110.25,0,0,1,.87,12.08,80.14,80.14,0,0,1-.62,11.75,47.43,47.43,0,0,1-2.77,11.09,28,28,0,0,1-5.85,9.37,20.65,20.65,0,0,1-8.69,5.38,23.33,23.33,0,0,1-8.89.91,25,25,0,0,1-7.48-1.79,29.13,29.13,0,0,0,7.44-.14,23.3,23.3,0,0,0,7.54-2.37,17.64,17.64,0,0,0,6.15-5.37,24.36,24.36,0,0,0,3.65-8.06c1.63-6.06,1.78-13.1,1.28-20.43-.24-3.67-.7-7.43-1.27-11.26-.27-1.87-.59-4-.86-6s-.48-4.12-.66-6.19c-.78-8.28-1.21-16.23-1.77-23.79a205.87,205.87,0,0,0-2.38-21.26,52.38,52.38,0,0,0-2.34-9.14,21.13,21.13,0,0,0-4.18-7.23A17.91,17.91,0,0,0,1461.7,354.88Z"/><path class="cls-4" d="M1542.39,458.23c6.22.32,14.09.61,23.1.41l14.36-.37a81.25,81.25,0,0,1,16.08.88,29.41,29.41,0,0,1,4.19,1.11,21,21,0,0,1,4,1.82,18.8,18.8,0,0,1,3.49,2.61l1.46,1.47c.47.51.88,1,1.32,1.56a50.93,50.93,0,0,1,7.05,13.09c1.68,4.27,3,8.27,4.44,11.88s2.75,6.84,4.09,9.65a67.77,67.77,0,0,1-5.76-8.88c-1.9-3.43-3.72-7.31-5.72-11.33a56.21,56.21,0,0,0-7.28-11.78c-.39-.43-.77-.88-1.18-1.3l-1.29-1.21a15.31,15.31,0,0,0-2.79-2,17.47,17.47,0,0,0-3.24-1.42,27.1,27.1,0,0,0-3.6-.93,97.78,97.78,0,0,0-15.24-1.11c-5-.11-9.88-.22-14.44-.53A116.27,116.27,0,0,1,1542.39,458.23Z"/><path class="cls-4" d="M1480.74,408c-3.39-6.37-6.31-16.42-8.63-27.56-.63-2.76-1.14-5.47-1.72-7.94l-.2-.93-.22-.89c-.08-.29-.14-.59-.21-.88s-.14-.59-.22-.83a15.54,15.54,0,0,0-.47-1.51c-.08-.25-.17-.5-.26-.75l-.31-.72a26.37,26.37,0,0,0-3.13-5.33,39,39,0,0,0-3.74-4.35,15.32,15.32,0,0,1,6,1.46,18.49,18.49,0,0,1,6.23,4.6l.72.82.65.9a17.35,17.35,0,0,1,1.22,1.95c.2.34.36.67.51,1l.46,1c.16.33.31.67.46,1s.27.67.4,1a56.44,56.44,0,0,1,2.52,8.53C1483.25,390.38,1482.71,401.07,1480.74,408Z"/><path class="cls-4" d="M1615.51,445.49a29.87,29.87,0,0,1,7.1,2.9,40,40,0,0,1,7.4,5.28,46.34,46.34,0,0,1,6.82,7.71l1.51,2.29a14.2,14.2,0,0,1,.76,1.31c.23.45.44.88.64,1.32.8,1.73,1.46,3.4,2.17,5a31.21,31.21,0,0,0,2.72,5.09,11.52,11.52,0,0,0,1.55,1.8,3.77,3.77,0,0,0,1.37.81,1.59,1.59,0,0,0,.3.06l.16,0,.27,0a3.14,3.14,0,0,0,.52,0,2.64,2.64,0,0,0,.49,0,3.88,3.88,0,0,0,1.48-.32,1.75,1.75,0,0,0,.74-.55,2.22,2.22,0,0,0,.43-1c0-.05.07,0,.06-.13a1.47,1.47,0,0,0,0-.39,4.11,4.11,0,0,0-.34-.89l-.11-.19a.86.86,0,0,1-.1-.16c-.06-.08-.11-.18-.17-.26a1.46,1.46,0,0,0-.59-.4l-.21-.05h-.1l.11-.05h0l-.24,0-.11,0h0l0,0a.9.9,0,0,0-.18,0,1.13,1.13,0,0,0-.73.23,1.41,1.41,0,0,0-.38,1.05,4.81,4.81,0,0,0,.32,1.51,3.74,3.74,0,0,1-1.6-.81,3.17,3.17,0,0,1-1-2.08,3.86,3.86,0,0,1,.88-2.75,5.31,5.31,0,0,1,.52-.56l.35-.27.17-.13.09-.07.18-.15.42-.2.67-.32a6.05,6.05,0,0,1,3.18-.23,6.71,6.71,0,0,1,1.62.54c.24.13.48.26.72.41s.44.3.66.46a8.81,8.81,0,0,1,2.09,2.41,8.69,8.69,0,0,1,.71,1.57,7.32,7.32,0,0,1,.35,2c0,.44,0,.78,0,1.18s-.09.78-.19,1.17a8.56,8.56,0,0,1-.9,2.35,9.11,9.11,0,0,1-1.6,2.07,9.32,9.32,0,0,1-2.11,1.47,10.82,10.82,0,0,1-4.57,1.14,9.87,9.87,0,0,1-1.09,0,7.47,7.47,0,0,1-1.07-.09l-.52-.06-.62-.13a8,8,0,0,1-1.24-.37,10.89,10.89,0,0,1-4-2.65,17.52,17.52,0,0,1-2.41-3.28,37.73,37.73,0,0,1-2.77-6.45c-.64-1.8-1.17-3.56-1.7-5.15-.13-.39-.27-.77-.4-1.12a9,9,0,0,0-.45-1.05c-.36-.75-.72-1.49-1.07-2.23a56.61,56.61,0,0,0-4.94-8,43.08,43.08,0,0,0-5.73-6.33A28.81,28.81,0,0,0,1615.51,445.49Z"/><path class="cls-6" d="M875.42,94c1.18-1.74,14.31-23.22.59-51.34-5.65-11.59-13.74-8-23.81,1.21C839.83,55.18,842,67.31,846,77.25a17.56,17.56,0,1,0-15.45,30.8c5.31,1.83,12.66,2.28,20.5.89C863.41,106.78,872.83,97.56,875.42,94Z"/><path class="cls-4" d="M869.52,84.63c1.54-1.44,20.7-17.77,50.62-8.62,12.33,3.77,10.07,12.32,2.54,23.71-9.26,14-21.58,13.79-32,11.36a17.56,17.56,0,1,1-28,20.07c-2.63-5-4.22-12.15-4.08-20.11C858.77,98.49,866.4,87.74,869.52,84.63Z"/><path class="cls-2" d="M869.52,84.63A43.74,43.74,0,0,0,859,106.52,44,44,0,0,0,875.42,94a46.27,46.27,0,0,0,6-16.55A44,44,0,0,0,869.52,84.63Z"/><path class="cls-6" d="M1086.25,80.81c-.5-1.34-6.91-17-20.52-19.6-5.62-1.07-5.54,4.93-3.54,14.2,2.47,11.4,7.7,14.71,12.38,16.11-3,1.82-4.59,7-3.55,12.73,1.2,6.63,5.46,11.42,9.51,10.68a5.72,5.72,0,0,0,3.82-3c1.62-2.38,3-6.45,3.82-11.5C1089.37,92.53,1087.26,83.64,1086.25,80.81Z"/><path class="cls-4" d="M1080.89,81.16c.29-1.44,4.47-18.43,25.08-25.4,8.5-2.88,10.69,2.87,11,12.35.45,11.66-6.58,16.54-13.46,19.41a12.21,12.21,0,1,1-7.67,22.7,29.53,29.53,0,0,1-10.47-9.69C1080.44,93.35,1080.39,84.19,1080.89,81.16Z"/><g class="cls-16"><path class="cls-13" d="M681.55,521c-.17-.09,9.22-22.1,18.55-27.73,6.36-4,16.77-4.78,16.77-4.78a39.89,39.89,0,0,1-8,10.95C703.61,504.19,685.87,515.5,681.55,521Z"/><path class="cls-13" d="M681,516.54s-7.79-3.58-15.11-5.95-12.48-4-18.53-5-8.13-.89-8.13-.88S648.87,514.84,658,517,678.27,518.24,681,516.54Z"/><path class="cls-13" d="M677.2,495.62c-.15-.11,13-20.19,20.25-24.21,8.44-5,23.07-6.77,26-7.47,0,0-9.13,7.52-17.49,14.52C697.64,485.25,683.55,495.71,677.2,495.62Z"/><path class="cls-13" d="M675.52,493.55s-1.92-1.54-6.71-5-18.28-13.35-23.88-16.11-17.35-5.26-21.4-6c-1.55-.27,8.48,8.38,15.12,13,5,3.56,12.38,8.71,17.75,10.26,2.5.73,14.29,2.51,18.37,6.92S675.5,493.56,675.52,493.55Z"/><path class="cls-13" d="M675,479.7c-.1-.05,8-17.23,14.07-22.36a58.47,58.47,0,0,1,21.22-12.09c8.1-2.41,15.23-4.36,15.23-4.36s-7.39,8.49-13.92,13.59-12.17,10.64-20,14.87A176.31,176.31,0,0,0,675,479.7Z"/><path class="cls-13" d="M673.6,474c-1.29-3.14-2.91-6-8.92-10.3s-19.07-16.17-27.42-20-20.42-9.69-21-10.22,13.63,17.69,23.46,23.76a155.59,155.59,0,0,0,22.45,11.24c5.32,2.27,10.38,5.35,12.31,8.8A23.2,23.2,0,0,0,673.6,474Z"/><path class="cls-13" d="M674.09,455.2s2.46-7.35,10.9-15.44,16.42-14.66,20.9-17.17,15.24-5,16.6-5.71-6.17,9.2-8.9,12a72.08,72.08,0,0,1-17.14,11.56C688.05,444.51,676.61,452.51,674.09,455.2Z"/><path class="cls-13" d="M673.56,453.61C671,450.34,664,444.8,660,441.26s-8.42-4.71-22.12-19.75a113.55,113.55,0,0,1-18.15-27.21s2.42,1.94,11.07,7.33,18.4,19.14,27.43,29.17a139.59,139.59,0,0,1,14,18.47C672.7,450.72,673.12,452.17,673.56,453.61Z"/><path class="cls-13" d="M671.77,433.89c-.09-.08,12.23-17,19.49-23.83s12.27-12.68,22.49-12.87,15.39-1.56,15.38-1.56-9.5,7.71-17.57,13-18.81,12.77-22.79,14.79S673.63,435,671.77,433.89Z"/><path class="cls-13" d="M674.17,421.54c-2.34-4.88-5.13-9.31-11.89-18.2-6.4-8.42-13.71-18.45-18.1-22.59S625.66,363,625.34,362.63s6.16,18,12.6,25.64,11.61,14.8,21.54,21.62,14.13,12.84,15.29,17.59S674.71,422.73,674.17,421.54Z"/><path class="cls-13" d="M676.48,408.44s5.84-7.85,11.68-9.57,19.21-10.26,23.3-13.35c4-3.28,21.55-14.66,22.65-15.82s-7.59,2-14.66,2.68-17,6.32-24,12.07-18,18-19.09,20.21A3.63,3.63,0,0,0,676.48,408.44Z"/><path class="cls-13" d="M676.69,397.76s-5.41-9.24-10.35-17.15S652,360.77,649.89,357s-15.17-18.33-15.18-19.25,3.46,15.45,10.74,27.62a96.88,96.88,0,0,0,20.13,24.48c6.55,5.94,10.12,10.67,10.7,13.66S676.66,397.76,676.69,397.76Z"/><path class="cls-13" d="M682.75,373c0-.06,12.83-12.44,19.63-16.43s14.13-9.49,20.44-11.43,15.92-4.78,15.92-4.78-10,9.4-17.35,14.76-15.6,11.3-24.47,15.58a106.25,106.25,0,0,1-16.44,6.35Q681.61,375,682.75,373Z"/><path class="cls-13" d="M680.81,370.68c-.07.05-8.53-17.17-13.14-25.68-4.77-8.39-13-21.52-16.87-26.23a83.85,83.85,0,0,1-7-9.74c-.22.08,8.51,29.14,15.88,38.12,7,9.2,19.69,25.69,20.56,32.52S680.73,370.68,680.81,370.68Z"/><path class="cls-13" d="M688.86,348.45c-.07-.08,14.08-13.58,19.12-17.29,4.94-3.86,15-8.23,20.67-8.72s19-2.51,21.3-4.1-7.51,8.05-16,12-20.62,9-30.13,13.55-14,5.68-17,11.56S688.81,348.43,688.86,348.45Z"/><path class="cls-13" d="M687.94,345.42s-3.78-10.84-7.42-18.25-9.92-16.8-12.55-21.85-13.64-20.13-13.71-21.74c-.24-1.55,3.15,22.17,10.9,34.12,7.58,12,14.18,18.53,16.9,23.26s5.1,10,5.11,10C687.42,349.09,687.67,347.26,687.94,345.42Z"/><path class="cls-13" d="M698.78,321.57c0-.05,12.36-10.66,22.25-14.86s23.56-4.25,28.52-4.48a29.8,29.8,0,0,1,7.72.45s-8.18,4.67-17.38,8.84-21.31,6.23-26.83,7.08-14.93,5.22-16.37,7.4S698.76,321.55,698.78,321.57Z"/><path class="cls-13" d="M696.54,322s-3.54-14.94-8-24-7.92-18.15-10.49-22.33-7.85-16.37-7.8-16.39-.38,14.81,4.09,26.85c3.17,9.11,16.76,29.41,20.24,37.29C697.3,329.79,696.53,322,696.54,322Z"/><path class="cls-13" d="M707.68,301.34c-.06,0,11.68-13.31,24.79-17.08a80.79,80.79,0,0,1,27.36-2.54,52,52,0,0,0,12.77,0s-8,5.26-14,7.17-16.24,4.74-24.71,6.71-24.64,4-28,9.1S707.67,301.32,707.68,301.34Z"/><path class="cls-13" d="M708.79,298.26s-1.71-6.87-3.21-13.43-4.19-20.17-7.3-26.85c-3.28-6.61-10.77-25-10.58-26.34,0-1.29-1.3,19.81,1.44,29.76,2.49,10,10.87,25.86,14.9,33.37S709.32,300.66,708.79,298.26Z"/><path class="cls-13" d="M719.18,279.16c-.07-.11,18.08-13.69,27.4-16.31a97.43,97.43,0,0,1,29-3.93c9.34.19,11.86.82,11.87.81s-17.22,8-25.24,10.18-16.11,4.69-24.6,5.86-17.72,3.32-21.15,8.52S719.15,279.14,719.18,279.16Z"/><path class="cls-13" d="M718,279.78s.09-5.93.77-16.43,1.66-23.41,1.09-28.86c-.77-5.4-7.68-26-7.59-26.74-.17-.74-6.49,21.33-5.24,31.85,1.27,12.47,5.63,21.18,7.45,33.65s1.2,13,1.16,13Q716.77,283,718,279.78Z"/><path class="cls-13" d="M731.42,260.05s6.87-6.48,19.81-12.36,20.9-8.67,28.08-8.91a155.09,155.09,0,0,1,17.37.84s-9.35,5.28-16.46,7.59-21.63,5.77-30.51,8.31-18,5.65-22.91,11.28S731.37,260,731.42,260.05Z"/><path class="cls-13" d="M733.13,256.88s5.7-12.19,6.22-25.12,2.35-19.09,1.32-24.08-3.17-22.76-3.07-22.78c-.27-.07-9.25,28.42-8.41,39.29.49,10.82,4,21.11,2.66,33C731.2,263.39,733.13,256.87,733.13,256.88Z"/><path class="cls-13" d="M745.75,238.93s11.85-8.18,20.1-11.49,16.61-6.28,28.13-7a163,163,0,0,1,16.62-.4s-7.05,6.43-20,10.22-23.76,5.11-29.72,6.79-14.36,3.53-17.54,5.9S745.73,238.92,745.75,238.93Z"/><path class="cls-13" d="M753.89,226.37c-.16,0,6-22.28,9.64-30.36,4.78-11.62,2.08-28.91,2.52-30.78.17-1.92-12.41,22.16-13.48,31.1-.92,4.93-2,24.25-2.81,31.6S751.69,232,753.89,226.37Z"/><path class="cls-13" d="M760.92,220.11s8.65-4.85,16.79-8.49,23-9,29.06-8.83,16.26,1.29,16.26,1.3a37.77,37.77,0,0,1-16.73,8.71c-10.58,2.51-20.17,4.51-27.26,5.5s-18.79,3.67-22.21,7.11S760.89,220.08,760.92,220.11Z"/><path class="cls-13" d="M771.5,207a154.39,154.39,0,0,0,8.29-15.88c3.58-8.26,8.19-18,10.89-24.18s5.39-16.54,5.42-16.54-12.79,14.33-16.82,23.45c-4.32,9-8,27.86-11.38,36.41C765,217.55,771.46,207,771.5,207Z"/><path class="cls-13" d="M776.24,203.9s10.66-5.85,16.35-10.53,19.47-11.25,27.06-11.91S836.83,180,836.83,180s-9.56,5.08-14.79,7.51-11.3,5.29-23.43,9.76-25.54,10.33-28.05,11.94S776.22,203.87,776.24,203.9Z"/><path class="cls-13" d="M779.43,198.71s2.39-3.14,8.32-11.06,18.19-20.64,23-23.73c4.72-3.29,25-10.42,26.56-11.35,1.43-1.12-14.46,13.43-19.23,17.85-4.92,4.28-9.92,10.26-15.58,13.64s-22,14.64-23.74,17.22S779.42,198.7,779.43,198.71Z"/><path class="cls-13" d="M692.65,564.27c-.36.12-15.95-44.24-19.59-77.88-6.42-35.53,2.2-102.75,8-119.65,3-17.9,28.29-75.26,36.62-87.91,7.64-16.37,37.39-57,53.15-72.46,8.91-9.47,17.45-14.48,18.12-15.31s-10.23,11.1-13.75,14.92c-3.74,3.63-20,22.29-28.62,33.6-8.92,11.06-21.29,31.47-26.14,40.25-5.73,8.28-28.92,56.67-35.69,87.81a345.15,345.15,0,0,0-8.06,57.72c-1.76,26.4.05,55,2.53,69.07,3.5,21.91,9.89,39.82,13.5,47.89S695.35,562.72,692.65,564.27Z"/></g><g class="cls-17"><path class="cls-18" d="M1460.58,1113.57s11.78,37.6,11,70.48-2.81,38.19-2.81,38.19l-16,8.28s9-31.92,6.43-58.08-5.12-43.26-8.33-58.7a48.83,48.83,0,0,1,2.45-27.83Z"/><path class="cls-15" d="M1452.83,1094.88s8.25,43.26,33.42,45.65,57.56-3.34,72.14-25.15,20.13-41.36-1.34-21.8-42.51,16.55-46.38,15.72-27-8.66-18.43-20.23,15.42-9.76,24.21-7.31,37.49,19.29,52.74,2.06,30.63-68.66,17.69-61.13-46.11,33.48-61.69,35.77-28.82,6.83-32.49-13.94c-2.82-16,22.48-12.67,26.15-13.22s39.19,2.19,50.32-14.43,15.17-49.53,11.7-79.45-13.64-19.53-21.34,4.54-41.35,72.12-61.19,74.1-32.54-11.12-22.11-23,48.33-18.36,64.69-37.62,27.18-47.55,21.19-69.15-21.62-45-26.25-25.63-31.27,86.55-46.09,97.16-28.94,3.8-29.82-2.16,2-14.82,18.44-24.26,42-32.87,40.43-56.06-18.68-79.18-26.64-56.94-5.71,43.92-8.09,53.17-14.32,52.21-26.17,54.42-22.41-15.43-9.67-24.33,34.57-35.53,30.32-64.4-19.4-61.76-25.32-35.13-8.5,47.14-10.49,55.86-7.82,26.43-11.81,12a55.91,55.91,0,0,1,4-39.46c5.39-11.09,6.74-30.49-5.67-38.5s-29.29-14.41-33-17.6S1450.22,1083.55,1452.83,1094.88Z"/><path class="cls-13" d="M1454.19,1091.4s5.77,45.5-12.42,52.4-48.53,17-77.48-11.06-36.47-34.59-39.51-42.57-3.12-12.65,12.49-8.39,34.41,17.4,50.74,15.94,31.55-14.64,16.65-26.8-19.58-3.68-38.79-.54-36.63,9.78-47-14.29a184.6,184.6,0,0,1-13.63-50.12c-.94-6.42-.37-15.24,10.24-4.63s41.77,41.92,62.48,44.8,34-10.63,15.36-22.87-35.07-9.19-49.38-15.2-41.67-22.26-42.76-53,3.79-52.68,16.41-32.69,33.34,65.32,50.76,73.37,38.87,9.57,35.19-2.69-7.85-17.26-28-22.41-38.85-24.24-46.91-40.85-13.69-44.18-10.11-55.95,8.18-24.93,17.52-8.2,29.84,73.33,49.85,84.12,30.24,6.16,20.64-12.41-29-27.56-40.43-39.3-25.89-27.4-23.7-46.45,3.88-41.46,12.2-25.21,19.35,40.23,28.38,57,12.75,18.73,15.92,17,9.17-12-8.28-37.18-24.56-33.21-23.08-44.36,27.78-38.13,28.74-44.35S1454.19,1091.4,1454.19,1091.4Z"/><path class="cls-11" d="M473.24,932.6c2.22-2.56,18.93,3.65,26.53,4.79s47.57,13,79.05,23.88c17.84,6.15,28.79,13.68,34.92,19,1.3-3.77,2.44-7.23,3.46-10.36-6.28-4.14-18.86-9.67-30.28-14.55-15.32-6.54-37.68-23.72-56.27-37.39s-39.84-33.83-46.3-39.19-.85-4.54,5.83-2.06,35,18.49,50.77,26,43.76,28.94,53.15,36.66c6.94,5.71,18.89,19,24.66,25.61,2.24-7.09,3.75-12.2,5-15.45.64-1.73,1.47-4.28,2.42-7.43A76.8,76.8,0,0,1,615.75,937c-9-5.45-25.5-13.28-32.1-18.27s-21-17.51-34-27.86-41.1-37.26-47.85-45.26.4-4.5,6.58-1.78,25.83,14.67,44,24.82,47,38.58,54.67,47.37c5.3,6,15,15.67,20.59,21.14.7-2.42,1.45-5.06,2.23-7.87-.14-.24-.28-.45-.43-.72-4-7.41-14.61-16.43-18-19.8s-26-25.7-37.63-36.38S530.16,832.87,526.07,828s-2.9-7,.3-5.37,8.73,4.94,16.73,9.59,33.36,21.69,43.08,30.8,27.12,28.25,33.4,38.62c4.83,8,10.14,16.57,12.35,20.17,1.35-4.95,2.75-10.18,4.14-15.49-.32-.25-.63-.51-1-.8-7.3-6.58-27.72-30.84-32.9-36.63s-16.85-17.42-27.43-29C562.15,826,543.69,797.71,539,789s1.25-4.32,6.47-.79,22.14,17,36.23,30.45c16.33,15.64,36.28,44.25,41.78,53.91,3.82,6.71,11.14,17.68,15.25,23.76,1.18-4.55,2.33-9,3.42-13.29-2.85-5.32-7.23-13.33-10.94-19.36-6.06-9.87-25.09-33.49-37.89-47-16.17-17.15-39.72-41-41.59-45s-5.58-9.39,9.73-2.3c13.83,6.4,31.74,20.38,41.32,31,6.07,6.72,28.77,35.21,33.62,47.16,3.78,9.29,6.16,19.59,8.19,25.93,1-4.08,1.94-7.79,2.71-10.93-5.54-8.9-13.52-26.46-21.6-43.07-10.55-21.67-17.84-57.77-21.41-70.93s-2.41-17.39.29-12.15,5.41,10.46,11.25,23.2,17.84,43,24.11,61.37c3.59,10.54,6.9,24.45,9.08,34.4.19-.83.36-1.56.47-2.11a19.09,19.09,0,0,1,.94-3c-3.46-13.38-8.33-37.62-9.08-55.79-.9-21.47-2.2-53.23.05-75.22s4.57-8.87,5.08-5.72,4.25,11.31,5.94,31.8,4.77,62.22,4.19,83.13l0,.63c.63-3.49,1.35-6.86,2.16-9.85C662.76,804,671.85,766.82,675,747s10.89-36.35,13.77-50.67,5.7-3.1,5.71.8a577,577,0,0,1-.28,58.37c-1.84,32.55-11.51,49.5-22.7,71.84-7,13.89-12,23.57-14.91,28.92-.88,3.24-1.94,7.15-3.15,11.71,4.6-7.83,11.14-17.56,16.85-23.17,10-9.81,30.38-30.55,43.61-43.39S756.46,773.25,773,765s15.36,1.9,9.61,4.84-43.44,35-54.2,45.79-50.2,41.79-60.6,49.34c-6.67,4.83-13.12,9.56-16.91,12.34-.68,2.59-1.39,5.35-2.14,8.25,3.69-3.44,12.38-7.74,26.3-16.21,16.37-10,39.14-26.87,57.24-39.16s49.43-30.66,65.6-34.37,3.73,4.76-.39,7.88-41,33-49.32,38.31-62.63,35.48-79.77,41.78a190.59,190.59,0,0,0-21.61,9.29c-1,3.85-2,7.94-3.11,12.24,6-5.43,17.88-10.27,26.18-13,9.13-2.95,43.53-19.33,62.06-26s55-24,71.93-28.64-1.69,9.1-9,14-53.41,33.4-80.78,45.64-55.24,13.29-64.46,15.35a28.07,28.07,0,0,0-8.66,3.4c-1,4.2-2.13,8.57-3.26,13.14,5.59-1.57,17.26-5.13,28.92-7.69,12.88-2.82,57.26-17.6,63.33-19.15s50.37-13.83,66.68-17.91,20.85-4.94,9.51,4-54,29.37-75.72,33.14-67.89,13.24-81.29,12.91c-6.5-.16-10.64.85-13.19,1.93-.83,3.4-1.68,6.88-2.55,10.47.76.86,2.12,1.35,4.88.89,6.3-1,29.62-4.63,41.76-7.73s50.48-6.18,67.49-8.73,49.93-4.7,64-6.22-6.92,11.8-15.81,15.26S749.31,954,731.6,955.06s-68.89,5.68-83.09,2.94c-8.89-1.72-14.77-.83-17.93.08-1.38,5-2.9,10.2-4.53,15.42,7.75-2.93,20.26-5.74,33.19-6.86,16.6-1.45,66.3-6.64,81.23-7s22.54.77,54,.21,17.6,6.12,13.15,7.85-25.86,8.15-47.5,10.67-81,2.88-103.92-.16c-15.31-2-26.31-.4-32,.91-1,3.2-2.13,6.43-3.24,9.67,7.14-.47,22.44.78,31.33-.18,14.09-1.52,52.83,2.3,69.94,4s37.07,4.89,62.63,8.89,1.74,7.84-3.82,9.15-38.3,1.83-58,3.79-52-5.78-75.17-12.71c-21.61-6.46-27.36-9.22-28-9.57-.4,1.13-.8,2.28-1.21,3.42,0,1.66,1.28,7.25,15.32,10.69,16.66,4.08,46.7,16.5,62.67,22.44s38.26,17.6,49.27,25.5,12.56,10.58-1,7.23-38-8.18-54.12-15.88-41.29-20.84-53.5-26.64-18.44-10.66-21.42-15.15a2.25,2.25,0,0,1-.12-.21c-.63,1.7-1.27,3.41-1.92,5.11,7.63,2.94,18.06,14.7,30.65,27.29,14.79,14.79,30.5,39.65,36.4,46.49s1.36,4.31-12.86-5.19-34.69-30.65-43.67-42.86a136.13,136.13,0,0,1-12.46-20.64c-24.54,63.8-56.92,125.46-56.92,125.46s-14-3.07-3.64-22.06c29.08-53.34,46-92.63,56.39-120.11-4.34.5-10.18,2.6-18,4.2-11,2.26-52.1,9-59.37,9.64-8.47.79-24.36-2.71-34.62-6.94s-.29-6,5.27-7.35,28.19-3.05,40.05-5.41,40.61-2.38,52.07-1.35A40.15,40.15,0,0,1,608.48,995q1.69-4.56,3.16-8.67c-1.28-.63-2.57-1.33-3.77-2-6.27-3.6-18.79-4-29.88-6s-47.33-9.91-56.71-13.47c-17.78-6.75-28.93-13.14-37.81-20C476.31,939.35,471,935.16,473.24,932.6Z"/><path class="cls-3" d="M1530.91,684.17s12.24-15.16,11.88-33.54c-.14-6.67-6-18-12.88-17.91s-12.35,8.71-12.17,18.4C1518.09,669.5,1530.91,684.17,1530.91,684.17Z"/><path class="cls-3" d="M1529.27,714.83s-2.48-16.85-14.49-27.2c-4.36-3.75-15.14-6.45-19.16-1.78s-1.74,13.22,4.59,18.68C1512.24,714.88,1529.27,714.83,1529.27,714.83Z"/><path class="cls-3" d="M1534.33,750.31s-9.12-14.38-24.33-18.92c-5.51-1.65-16.44.3-18.21,6.2s3.81,12.78,11.82,15.17C1518.81,757.31,1534.33,750.31,1534.33,750.31Z"/><path class="cls-3" d="M1529.76,715.68s15.77-.44,28.45-10c4.6-3.45,10.08-12.68,7-16.7s-11.33-2.9-18,2.12C1534.57,700.65,1529.76,715.68,1529.76,715.68Z"/><path class="cls-3" d="M1532.06,750.59s16.09,0,28.77-9.56c4.6-3.45,9.93-12.87,6.73-17.13s-11.64-3.31-18.33,1.71C1536.55,735.14,1532.06,750.59,1532.06,750.59Z"/><path class="cls-3" d="M1544,797.32s13.65,1.82,23.33-5.46c3.51-2.64,7-10.64,3.77-14.9s-10.27-4.36-15.36-.53C1546,783.71,1544,797.32,1544,797.32Z"/><path class="cls-3" d="M1542.06,797.6s-6-11.68-17.71-17.16c-4.22-2-13-2.18-14.91,1.82s2,9.75,8.11,12.64C1529.2,800.38,1542.06,797.6,1542.06,797.6Z"/><path class="cls-19" d="M1543.24,991.84s58.51,2.86,2.65-184.74C1523.17,730.77,1532,695.42,1531.11,675"/><path class="cls-11" d="M1730.84,916.33a51.82,51.82,0,0,1-9.85-8.22,116.25,116.25,0,0,0,43.87,6.39,131.82,131.82,0,0,0,25.8-3.57c.27-2.83.43-5.49.48-7.92.1-5,.68-11.47,1.59-18.77-12.12,3.63-24.42,4-35.63.61,12.31-.12,25.11-4,37.05-11,4-27.24,10.9-62.24,14.41-86.14-16.33,4.34-32.84,2.72-46.46-6-1.23-.79-2.4-1.64-3.55-2.52,16,5.9,34.51,3.85,51.7-4.78.06-.58.11-1.14.16-1.69.9-10.41,3-24.24,5.1-38.87a52.36,52.36,0,0,0-10.78-4.6,58.07,58.07,0,0,1,11.3,1c1.68-11.53,3.34-23.42,4.48-34.44-18.57,7.87-38.25,8.1-54.31-1,18.54,1.63,38.78-5.61,55.77-20a93.89,93.89,0,0,0-.48-12.8c-3-25.52-37.82-75.52-40.77-72.58-7.62,7.55-19.76,3-62,28.49a171.94,171.94,0,0,0-26,19.3c4.27,15.47,14.68,30.57,30.07,41.78A88,88,0,0,1,1680,649.87a247.75,247.75,0,0,0-28.74,38.3c4.83,9.59,13,18.74,23.87,25.7,1.71,1.09,3.46,2.1,5.21,3a68,68,0,0,1-30.45-10.77,68.73,68.73,0,0,1-6.45-4.63c-5.27,9.48-10.14,19.23-14.67,29.1-4,8.6-7.41,19.68-10.42,32.5l2.2.3c4.27.65,8.41,1.45,12.38,2.38A86.43,86.43,0,0,0,1617,769c-2.32,10.72-4.37,22.5-6.16,35,8.57,5.83,20.91,10.91,35.43,14.28a147.58,147.58,0,0,1-37.24-.93c-1.92,15.2-3.54,31.17-4.9,47.32a142.13,142.13,0,0,0,30.74-.13c-6.62,5-17.83,8.31-31.49,9.48-1.85,23.65-3.17,47.41-4.16,69.44,13-.09,24.5-1.75,33.16-4.7-3.93,7.43-16.52,12.53-33.58,14.47-.16,4-.33,7.87-.47,11.69-3,77.84,76.09,83.19,76.09,83.19s69.63-27.8,87.38-45.5c10.21-10.17,23.83-54.19,28-84.78C1769.67,927,1748,927.3,1730.84,916.33Z"/><path class="cls-4" d="M1674.42,1048.05s69.63-27.8,87.38-45.5c10.21-10.17,23.83-54.19,28-84.78-20.18,9.27-41.89,9.53-59-1.44a51.82,51.82,0,0,1-9.85-8.22,116.25,116.25,0,0,0,43.87,6.39,131.82,131.82,0,0,0,25.8-3.57c.27-2.83.43-5.49.48-7.92.1-5,.68-11.47,1.59-18.77-12.12,3.63-24.42,4-35.63.61,12.31-.12,25.11-4,37.05-11,4-27.24,10.9-62.24,14.41-86.14-16.33,4.34-32.84,2.72-46.46-6-1.23-.79-2.4-1.64-3.55-2.52,16,5.9,34.51,3.85,51.7-4.78.06-.58.11-1.14.16-1.69.9-10.41,3-24.24,5.1-38.87a52.36,52.36,0,0,0-10.78-4.6,58.07,58.07,0,0,1,11.3,1c1.68-11.53,3.34-23.42,4.48-34.44-18.57,7.87-38.25,8.1-54.31-1,18.54,1.63,38.78-5.61,55.77-20a93.89,93.89,0,0,0-.48-12.8c-2.89-24.15-34.19-70.25-40-72.61-77.7,166.26-114.78,328.26-108.45,458.51C1673.92,1048,1674.42,1048.05,1674.42,1048.05Z"/><path class="cls-7" d="M343.32,840l-24.1-6.19a258.21,258.21,0,0,1,.61-57,210.43,210.43,0,0,1,53.12,3.8c87.33,17.65,124.58,153.48,36.67,230.61-32.17-20.73-61.76-63-78.53-118a307.84,307.84,0,0,1-9.76-42.6Z"/><path class="cls-20" d="M319.83,776.85s134.09,80.83,89.79,234.41"/><line class="cls-20" x1="360.16" y1="778.44" x2="357.01" y2="807.92"/><line class="cls-20" x1="388.62" y1="785.75" x2="378.83" y2="832.88"/><line class="cls-20" x1="414.2" y1="800.7" x2="396.59" y2="860.93"/><line class="cls-20" x1="438.25" y1="827.27" x2="408.57" y2="889.55"/><line class="cls-20" x1="452.21" y1="857.26" x2="415.63" y2="915.03"/><line class="cls-20" x1="459.44" y1="896.11" x2="418.49" y2="949.65"/><line class="cls-20" x1="455.49" y1="936.78" x2="415.93" y2="982.58"/><line class="cls-20" x1="318.21" y1="808.17" x2="356.79" y2="806.83"/><line class="cls-20" x1="378.83" y1="832.88" x2="318.94" y2="831"/><line class="cls-20" x1="396.59" y1="860.93" x2="323.99" y2="863.85"/><line class="cls-20" x1="408.57" y1="889.55" x2="332.03" y2="896.77"/><line class="cls-20" x1="415.63" y1="915.03" x2="342.54" y2="924.46"/><line class="cls-20" x1="418.49" y1="949.65" x2="358.18" y2="955.27"/><line class="cls-20" x1="415.93" y1="982.58" x2="378.19" y2="982.52"/><path class="cls-6" d="M520.74,945.19c-33.27,44.14-85,66.33-136.75,64.11-16.39-49.16-9.31-105,24-149.12s85-66.33,136.75-64.12C561.1,845.23,554,901,520.74,945.19Z"/><line class="cls-21" x1="532.72" y1="813.38" x2="390.76" y2="1001.71"/><line class="cls-21" x1="503.21" y1="852.06" x2="494.82" y2="812.92"/><line class="cls-21" x1="479" y1="884.17" x2="468.66" y2="835.94"/><line class="cls-21" x1="454.8" y1="916.28" x2="437.51" y2="835.65"/><line class="cls-21" x1="430.59" y1="948.4" x2="413.77" y2="869.95"/><line class="cls-21" x1="406.39" y1="980.51" x2="397.02" y2="936.83"/><line class="cls-21" x1="506.69" y1="848.6" x2="546.62" y2="845.9"/><line class="cls-21" x1="482.49" y1="880.72" x2="544.75" y2="876.49"/><line class="cls-21" x1="458.28" y1="912.83" x2="536.21" y2="907.54"/><line class="cls-21" x1="434.08" y1="944.94" x2="514.13" y2="939.51"/><line class="cls-21" x1="409.87" y1="977.06" x2="478.64" y2="972.39"/><path class="cls-6" d="M1547.76,1006.49c5.22-2.5,40.94-24.89,75.31-19.6,26.93,4.15,28.28-3.52,26.08-15.65s-19.19-20.79-5.79-28.6c43.86-25.56,62.65-39.19,38.62-55.73-15.46-10.64,5.47-27.82,17.89-31.36,26.36-7.5,40.75-24.51,22.65-34-17.79-9.31-23.8-21.12-14-28.2s33.49-9.6,22.58-30.22c-4.3-8.12-27.19-11.78-42.71-.77-8.84,6.27-30.56,33-34.76,5.82-4.33-28-23.37-14.94-26.61.32-1.2,5.69-16.46,57.44-25.75,42.25-11-17.93-27.23-9.62-27.71,17.24-.22,12.19,7.36,38.82-3.11,37.82s-25.31,1-25.34,19.69C1545.06,917.77,1558.6,1001.31,1547.76,1006.49Z"/><path class="cls-22" d="M1714.42,764.47s-67.84,36.92-105.29,116.85S1560.31,996,1526,1037.79"/><path class="cls-22" d="M1699.26,829.75s-41.8-6.13-66.28,10.63"/><path class="cls-22" d="M1639.09,770.09s6.18,40.88-10,76.06"/><path class="cls-22" d="M1678.64,900.31s-6.62,9.55-83.22,11.39"/><path class="cls-22" d="M1586.55,811.32s20.26,60.82,19.58,76.32"/><path class="cls-22" d="M1557.72,879.32s22.31,47.55,15.47,80.07"/></g></g></g></svg>