<svg xmlns="http://www.w3.org/2000/svg" viewBox="0 0 161.01 181.07"><defs><style>.cls-1{fill:#0c1153;}.cls-2{fill:#ff7089;}</style></defs><title>Asset 2</title><g id="Layer_2" data-name="Layer 2"><g id="dizajn"><g id="Papillon_1" data-name="Papillon 1"><path class="cls-1" d="M87.29,131.76a28.22,28.22,0,0,1,5.34,11.86c3.18,16.46-8.81,32.74-27,37.45C62.21,162.2,71.17,143.54,87.29,131.76Z"/><path class="cls-1" d="M161,117c-15,12.11-24.32,34.61-36.21,42.63-16.59,11.19-38,8.48-47.79-6A27.57,27.57,0,0,1,74.48,149a63.52,63.52,0,0,1,23.46-28.46C118.39,106.73,143.37,106.07,161,117Z"/><path class="cls-2" d="M92,137.3A57.1,57.1,0,0,0,0,152.68,91.75,91.75,0,0,0,92,137.3Z"/><path class="cls-2" d="M95.65,0C81.72,27.06,47.38,47.81,39,68.81A57.12,57.12,0,0,0,71,143,57.76,57.76,0,0,0,80,145.77,91.79,91.79,0,0,0,95.65,0Z"/></g></g></g></svg>