<svg xmlns="http://www.w3.org/2000/svg" xmlns:xlink="http://www.w3.org/1999/xlink" viewBox="0 0 1131.87 891.54"><defs><style>.cls-1,.cls-11,.cls-12,.cls-14,.cls-17,.cls-5,.cls-7,.cls-9{fill:none;}.cls-2{clip-path:url(#clip-path);}.cls-3{fill:#9ae2f6;}.cls-4{fill:#60bbea;}.cls-5{stroke:#60bbea;}.cls-11,.cls-12,.cls-14,.cls-17,.cls-5,.cls-7,.cls-9{stroke-miterlimit:10;}.cls-17,.cls-5,.cls-7{stroke-width:2.22px;}.cls-6{fill:#b22097;}.cls-14,.cls-7{stroke:#d25bbb;}.cls-8{fill:#ff586b;}.cls-17,.cls-9{stroke:#9ae2f6;}.cls-9{stroke-width:1.44px;}.cls-10{fill:#fff;}.cls-11{stroke:#fff;stroke-width:1.73px;}.cls-12{stroke:#ff586b;stroke-width:3.91px;}.cls-13{fill:#a61e8d;}.cls-14{stroke-width:1.6px;}.cls-15{fill:#0c1153;}.cls-16{fill:#1a446a;}</style><clipPath id="clip-path" transform="translate(-18.89 -11.32)"><rect class="cls-1" width="1098.11" height="933.09"/></clipPath></defs><title>Asset 4</title><g id="Layer_2" data-name="Layer 2"><g id="dizajn"><g id="model_-_be_unique" data-name="model - be unique"><g class="cls-2"><path class="cls-3" d="M580.31,629.08C595.1,616.12,624,601.34,687,563c45-27.36,118.33-35.27,117.12-12.34-.62,11.69-19.3,17.35-23.5,28.81-5.45,14.88,16.16,12.61,28.82,7.4,90.28-37.19,182.32-23.23,140.94,27.52-22.36,27.44,15.32,49,37.66,38.41,47.4-22.4,89.71-16.93,75.73,18.5-13.74,34.81-7.35,58.47,15.72,56s60.33-28.38,70.86,13.42c4.14,16.47-24.11,49.88-60.38,54-20.69,2.38-85.87-7.33-57.35,35.15,29.39,43.78-19.9,60.18-43.93,43.27-9-6.29-91.39-69-85.42-36.69,7,38.18-26.89,47-61.72,10.76-15.82-16.44-38.78-62.35-52.55-48s-32.1,24-61.44,4.45C599.77,718.61,585.74,624.33,580.31,629.08Z" transform="translate(-18.89 -11.32)"/><path class="cls-3" d="M982.54,640s23.65.29,29.85-17.47,7.83-34.68-6.41-35.15S948.62,626.39,982.54,640Z" transform="translate(-18.89 -11.32)"/><path class="cls-4" d="M352.07,472.86c0-.17-25.61-13.62-41.45-13-11.05.25-26.21,5.69-26.21,5.67a51.67,51.67,0,0,0,16.63,4.7C310.84,471.21,342.54,470.63,352.07,472.86Z" transform="translate(-18.89 -11.32)"/><path class="cls-4" d="M350.44,468.74s9.36-7.54,18.63-13.82,15.83-10.64,24-15a107.44,107.44,0,0,1,11.21-5.48c.06,0-8.07,14.41-20.21,21.49S355.29,468.64,350.44,468.74Z" transform="translate(-18.89 -11.32)"/><path class="cls-4" d="M344.63,448.56c0-.19-28.85-9.84-40.54-9.08-14.14.61-35.2,7.73-39.55,8.87,0,0,15.74,1.1,30.78,2.22C310.06,451.52,335.51,452.33,344.63,448.56Z" transform="translate(-18.89 -11.32)"/><path class="cls-4" d="M346,445.8s2-2.44,7-8.27,19-22.34,25.45-28.09,21.62-14.83,26.89-17.9c2-1.14-7.4,12.42-14.32,20.37-5.16,6.07-12.88,14.88-19.72,19.37-3.17,2.09-19.07,10.52-22.63,16.7S346,445.8,346,445.8Z" transform="translate(-18.89 -11.32)"/><path class="cls-4" d="M339.63,433.51c0-.11-19.68-10.32-30.22-11.22a109.79,109.79,0,0,0-34.29,2c-12,2.71-22.41,5.25-22.41,5.25s13.2,3,24.34,3.61,21.33,2.06,34.32,1.09S339.62,433.49,339.63,433.51Z" transform="translate(-18.89 -11.32)"/><path class="cls-4" d="M338.82,427.65c.28-3.5,1.17-7,7.48-14.26s18.69-25.55,28.26-33.92c9.74-8.3,23.2-20.78,23.64-21.58.61-.75-9.74,23.94-20.38,35.09-8.69,9.36-19.39,18.06-25.73,23.16s-12,10.8-13,14.92A15.07,15.07,0,0,1,338.82,427.65Z" transform="translate(-18.89 -11.32)"/><path class="cls-4" d="M329.24,411.52s-6.86-5-21.83-7.14-28.15-3.22-35.07-2.77-22.07,4.63-24.1,4.82,11.39,4.52,16.14,5.32,14.6,1.3,27.7,0S324.46,410.65,329.24,411.52Z" transform="translate(-18.89 -11.32)"/><path class="cls-4" d="M329.24,409.8c2.08-4.41,9.09-13.41,13-18.95s9.4-9.15,20.93-30.81c10.05-19.17,11.65-35.45,11.66-35.43s-2.27,3.21-11.3,13.27-15.89,28.28-23.63,42.6A153.25,153.25,0,0,0,329,405.22C329.11,406.75,329.18,408.28,329.24,409.8Z" transform="translate(-18.89 -11.32)"/><path class="cls-4" d="M322.87,391.3c0-.11-23.81-7.82-35.87-9.67-12.07-2-20.77-4.09-34.06,1.86s-20.36,7.79-20.36,7.79,14.67,1.3,27.17,1.21,29.63.18,35.8-.4S320.79,393.4,322.87,391.3Z" transform="translate(-18.89 -11.32)"/><path class="cls-4" d="M314.36,381.72c1.08-5.77,3-11.41,8.23-23.48,5-11.44,10.29-24.94,14.25-31.35,4.14-6.36,16.39-27.34,16.6-27.88.44-.52-.11,20.24-5.27,31-5,10.73-8.83,20.39-19.12,32.47s-13.45,20-13,24.9S314.13,383.1,314.36,381.72Z" transform="translate(-18.89 -11.32)"/><path class="cls-4" d="M305.92,371.34s-10.86-3.58-19.1-1.65-28.67,2.19-34.85,1.81c-6.34-.59-31.93-.56-33.5-1s10-2.68,19.12-6.28S261.06,359.87,272,361s30.08,5.59,32.46,6.92A2.69,2.69,0,0,1,305.92,371.34Z" transform="translate(-18.89 -11.32)"/><path class="cls-4" d="M301.4,361.81s3.46-11.61,6.72-21.8,10.52-26.77,11.69-31.53c1.41-4.72,11.76-26,11.35-26.88-.24-.85,2,16.4-2.32,31.93s-9.94,25.1-16.08,34.44-9,15.75-8.56,18.79S301.42,361.8,301.4,361.81Z" transform="translate(-18.89 -11.32)"/><path class="cls-4" d="M284.21,342.88c0-.08-20.72-3.79-30.38-3.46s-20.44-.44-28.67,1.48-20.55,4.92-20.54,4.93,14.5,3,25.28,3.56,22.84,1.2,35.53-.16a187.72,187.72,0,0,0,23.17-4C287.14,344.44,285.68,343.65,284.21,342.88Z" transform="translate(-18.89 -11.32)"/><path class="cls-4" d="M285.83,339.57c.13,0,4.53-20.93,7.07-31.59,2.85-10.64,8-27.78,10.91-34.52a94.33,94.33,0,0,0,4.76-13.27c.34-.05.93,32.35-4.92,45-5.17,12.71-15.16,35.49-13.79,42.25C291.42,354.25,285.91,339.54,285.83,339.57Z" transform="translate(-18.89 -11.32)"/><path class="cls-4" d="M267.85,323.8c0-.1-21.91-4.3-29-4.87s-20.38,1-27.22,3.91-23,8.74-26,8.54,10.71,3.36,21.86,2.13,27.24-3.63,40.35-5,19.15-3.05,24.9.64S267.87,323.76,267.85,323.8Z" transform="translate(-18.89 -11.32)"/><path class="cls-4" d="M267.93,320.43s.95-12.37,2.78-21.48,6.08-21.69,7.39-28c1.52-6.29,8.86-27.07,8.3-28.64-.3-1.59,4.62,22.85-.44,38.66-4.8,15.75-10.63,25.78-12.33,31.81s-2.82,12.34-2.82,12.34Q269.39,322.76,267.93,320.43Z" transform="translate(-18.89 -11.32)"/><path class="cls-4" d="M246.82,304.45c0-.05-18.18-2.81-30.82-1.09s-28.3,9.58-34,12.22a51.66,51.66,0,0,0-8.63,4.89s10.37-.16,22.13-1.51,26.59-6.49,33.39-8.93,19.4-3.83,21.88-2.63S246.82,304.43,246.82,304.45Z" transform="translate(-18.89 -11.32)"/><path class="cls-4" d="M249.65,303.57c.07,0-.61-16.22,1.55-27.5s3.08-21.95,4.59-27.43S259,228.41,259,228.41s5.78,14,4.78,28c-.41,10.53-9.61,37.78-11.3,47.26C251.29,311.33,249.66,303.57,249.65,303.57Z" transform="translate(-18.89 -11.32)"/><path class="cls-4" d="M229.91,290.43c0-.05-17.7-6-33.43-2.13-11.2,2.64-24.34,8.88-31.09,13.11a80.44,80.44,0,0,1-14,7.22s10,.68,17.09-.87,19.33-4.66,29.53-7.65,29.45-10.43,35-7.51S229.91,290.41,229.91,290.43Z" transform="translate(-18.89 -11.32)"/><path class="cls-4" d="M227.68,288.13s-.15-7.6-.5-14.78-1.63-21.86-.37-30.11c1.57-8.27,3.54-30.34,2.83-31.52-.42-1.25,8.35,18.44,8.6,29.6.62,11.09-3.81,31.15-6.15,40.69S227.78,290.73,227.68,288.13Z" transform="translate(-18.89 -11.32)"/><path class="cls-4" d="M210,275.72c0-.1-24.31-3-35-.38a130.33,130.33,0,0,0-32.13,12.26c-9.8,5.32-12.26,7.33-12.28,7.32s19.93-1.44,29.26-3.8,18.76-4.45,28.51-8.13,20.75-6.88,26.24-3.84S210,275.7,210,275.72Z" transform="translate(-18.89 -11.32)"/><path class="cls-4" d="M211.52,275.63s-1.89-5.67-5.83-15.51-9-22-10.14-27.62c-.8-5.73-.21-29.75-.63-30.42-.08-.8,14.14,17.3,16.22,28.24,2.69,12.87.6,23.83,2.37,37s2.58,13.27,2.64,13.27Q213.86,278.06,211.52,275.63Z" transform="translate(-18.89 -11.32)"/><path class="cls-4" d="M190.71,264.07s-9.49-2.45-24.92-1.13-24.29,2.8-31.77,6.44-17.54,10.14-17.53,10.14,10.71.38,18.68-1.16,24.11-6.05,34.39-8.5,21.12-4.51,28.22-1.81S190.72,264,190.71,264.07Z" transform="translate(-18.89 -11.32)"/><path class="cls-4" d="M187.91,261.92s-9.7-8.78-14.08-21.3-8.24-17.65-8.73-23.16c-.32-5.55-4.07-24.25-4.22-24.22.27-.18,18.93,23.18,21.42,34.32,2.88,10.93,2.22,23,7.12,34C191.92,267.21,187.91,261.92,187.91,261.92Z" transform="translate(-18.89 -11.32)"/><path class="cls-4" d="M169.15,251.23s-14.88-1.6-24.24-.51-18.7,2.57-30.37,7.83-16.48,8.19-16.5,8.18,8.36,3,22.37,0,25.62-7.56,32.3-9.13,16.09-4.34,20.17-3.76S169.15,251.22,169.15,251.23Z" transform="translate(-18.89 -11.32)"/><path class="cls-4" d="M157,243.2c.18-.09-12.67-19-18.81-25.23-8.25-9.19-11.17-27.91-12.27-29.54-.81-1.8,19.55,15.79,23.43,24.09,2.52,4.44,9.42,23.16,12.41,30C164.9,249.29,160.87,247.58,157,243.2Z" transform="translate(-18.89 -11.32)"/><path class="cls-4" d="M147.92,240.74s-10.28-.21-19.44.37-25.28,2.8-31,6-15.26,9.48-15.25,9.48,7.34,3.37,18.27.55,21.06-5.81,28.48-8.55,20.15-6.3,24.7-4.73S147.93,240.7,147.92,240.74Z" transform="translate(-18.89 -11.32)"/><path class="cls-4" d="M133.43,233.21a114.5,114.5,0,0,1-12.89-11.72c-6-6.51-13.39-14-17.94-19s-10.44-14.08-10.48-14.06,16.85,8.23,23.66,15.34c7.07,6.91,16.4,24,22.2,30.79C143,240.34,133.45,233.18,133.43,233.21Z" transform="translate(-18.89 -11.32)"/><path class="cls-4" d="M127.78,232.54s-12.29-.37-19.13-2.26-21.94-1.73-29.19,1.24-16.34,6.69-16.33,6.7,10.15.74,15.75.68a195.91,195.91,0,0,0,25-1.6c13-1.57,28.1-2.69,31.11-2.4S127.78,232.52,127.78,232.54Z" transform="translate(-18.89 -11.32)"/><path class="cls-4" d="M123.12,229s-3.29-1.93-11.4-6.94S88.09,210.1,82.64,209.25c-5.52-1-26.27,1.12-27.9.82-1.65-.47,17.23,7.16,23,9.34s12.29,5.74,18.66,6.37,25.6,3.76,28.09,5.44S123.12,228.94,123.12,229Z" transform="translate(-18.89 -11.32)"/><path class="cls-4" d="M361.71,515.88c.38,0-4.37-46.24-15.92-77.72-10.15-34.29-49-89.66-61.68-102.09-11.1-14.38-60-53.7-72.52-61.55-14-11.21-57.7-34.82-77.65-42.34-11.7-4.85-21.48-5.6-22.37-6.11s13.23,6,17.87,8c4.71,1.76,26.62,11.83,39,18.25,12.56,6.1,32.13,19.07,40.31,24.75,8.54,5,50.6,37.67,71,62,11.26,9.38,55.5,81.07,61.4,109.6,6.29,21,7.39,39.79,6.83,48.64S356.57,516.06,361.71,515.88Z" transform="translate(-18.89 -11.32)"/><path class="cls-4" d="M413.14,444.92c-.13-.44-12.7,20.37-10.76,34.61,1.27,9.54,8.86,22.12,8.86,22.11a38.54,38.54,0,0,0,4.6-15.34C416.4,477.57,412,452,413.14,444.92Z" transform="translate(-18.89 -11.32)"/><path class="cls-4" d="M408.45,446.17s-10.23-7.24-18.67-14.51-14.24-12.43-20.23-18.91a101.46,101.46,0,0,1-7.63-8.9c-.06-.07,16.68,6.59,26.7,16.13S407.7,442.37,408.45,446.17Z" transform="translate(-18.89 -11.32)"/><path class="cls-4" d="M385.73,451.85c-.06-.37-8.16,25.9-6.77,37.25,1.62,13.07,10.67,31.85,12.12,35.84,0,0,1-16.08,1.38-30.09S391.19,459.06,385.73,451.85Z" transform="translate(-18.89 -11.32)"/><path class="cls-4" d="M382.45,451s-3-1.41-10.05-5.15S346,431.56,339.45,426.38s-17.68-17.77-21.37-22.21c-1.43-1.69,13.18,5.79,22.32,11.19,6.88,4,17.19,10,22.93,15.48,2.66,2.53,13.82,15.27,21.28,17.73S382.43,450.94,382.45,451Z" transform="translate(-18.89 -11.32)"/><path class="cls-4" d="M369.35,457.84c-.05-.24-9.58,19.22-10.08,30a107.94,107.94,0,0,0,3.45,33.93c3.27,11.67,6.1,22.05,6.1,22.05s3.67-15.44,4-26.78,1.62-21.73-.34-33.66S369.35,457.81,369.35,457.84Z" transform="translate(-18.89 -11.32)"/><path class="cls-4" d="M363,459.38c-3.85.25-7.74,0-16.05-4.68s-28.19-13.64-37.19-21.78-22.27-19.78-23-20.16,23.58,7.3,36.09,15.7C333.09,435.4,343.26,444,349.3,449s12.75,9.27,17.4,9.59A21.2,21.2,0,0,1,363,459.38Z" transform="translate(-18.89 -11.32)"/><path class="cls-4" d="M346.3,471s-4.78,7.36-6.43,23.08-2.83,30.5-2.4,38.05,4.72,23.33,4.84,25.65,5.43-14.88,6.32-20.28,1.53-16.43-.26-29.61S345.77,475.65,346.3,471Z" transform="translate(-18.89 -11.32)"/><path class="cls-4" d="M344.47,471.34c-4.87-1.14-14.77-6.24-20.67-9.09s-10.21-7.4-32-15.95c-19.12-7.54-33.88-8.21-33.89-8.2s3,2.17,12.89,10.4,27.68,12.73,42.62,17.88a123,123,0,0,0,26.19,6.05C341.23,472.06,342.85,471.69,344.47,471.34Z" transform="translate(-18.89 -11.32)"/><path class="cls-4" d="M325.4,481.39c0-.19-7.08,26.2-9.21,40.5-2.14,14-4.64,24.92,1.11,38.81s7.25,22,7.25,22,2.52-18.75,2.75-33.14.59-33.48-.17-39.85C326.38,503.14,327.76,482.92,325.4,481.39Z" transform="translate(-18.89 -11.32)"/><path class="cls-4" d="M315.88,492.27c-5.94.15-11.79-.55-23.85-3.86-11.43-3.12-24.39-7-30.47-10.65s-25.54-15.51-26-15.87,18.27-.75,28.58,3.38,19.56,6.82,31.84,15.48,20.54,10.05,25.62,8.48S317.28,492.2,315.88,492.27Z" transform="translate(-18.89 -11.32)"/><path class="cls-4" d="M305.46,503.69s-3.51,12.72-1.66,21.64,1.51,32.7.63,40.56c-.82,7.62-3.23,40.41-4.08,42.94-.79,2.38-1.71-12.26-4.75-22.64s-2.68-28.13-1.15-41.38c1.54-13.43,6.28-36,7.52-38.77S305.46,503.7,305.46,503.69Z" transform="translate(-18.89 -11.32)"/><path class="cls-4" d="M295.87,510.84s-11.69-1.21-21.57-3.18-25.55-8.16-29.94-9.22-23.78-12.06-24.49-11.82,14.8-2,29.28,1.28,23.77,8,32.94,13.15,15.68,6.73,18.75,5.57S295.85,510.81,295.87,510.84Z" transform="translate(-18.89 -11.32)"/><path class="cls-4" d="M276.6,534.69c0-.08-4.7,25.46-5.37,37.69s-2.55,26.14-1.7,36.59,2,26.44,2,26.46,5.73-20.72,7.55-34.88,3.65-29.69,3-44.79a190.94,190.94,0,0,0-3-26.71C278.27,530.92,277.43,532.8,276.6,534.69Z" transform="translate(-18.89 -11.32)"/><path class="cls-4" d="M273.38,533.44c-.05,0-20.46-1.51-30.41-3.83s-25.75-8.1-31.73-11.94a103.86,103.86,0,0,0-11.82-6.39c-.07.14,29.56.84,41.43,6,11.67,5.34,33.62,13.16,40.52,9.9S273.35,533.4,273.38,533.44Z" transform="translate(-18.89 -11.32)"/><path class="cls-4" d="M256.69,557.9c0-.07-6.26,27.89-8,37.33s-2.07,26.55-.38,35.43,4.56,30.16,3.56,34.56,6.3-15.89,7-30.84.69-35.88.65-52.27-1.23-23.44,2.83-31.08S256.7,557.88,256.69,557.9Z" transform="translate(-18.89 -11.32)"/><path class="cls-4" d="M253.37,558.3s-12.15.57-20.78-1.27-20.2-7-26-9.1-24.24-13.56-25.7-13.43c-1.48.31,21.49-1.37,35.94,4.42s23.72,11.92,29.47,13.36a74.89,74.89,0,0,0,11.91,1.79Z" transform="translate(-18.89 -11.32)"/><path class="cls-4" d="M235.2,586.51s-5.38,23.37-6.33,40.17,3.53,37.87,4.83,45.68a63.9,63.9,0,0,0,2.9,11.79,303.85,303.85,0,0,0,4.18-30.92c1.3-16.11-1.29-35.39-2.66-44s-.92-24.74.54-27.93S235.2,586.52,235.2,586.51Z" transform="translate(-18.89 -11.32)"/><path class="cls-4" d="M234.7,583s-16.21,1.8-26.83-1.83-20.72-6.29-25.69-9.23-18.58-8.74-18.57-8.79,14.19-2.55,27.36.57c9.8,2.55,34.92,14.79,44.25,15.74C242.64,580.3,234.71,583,234.7,583Z" transform="translate(-18.89 -11.32)"/><path class="cls-4" d="M218.4,608.68s-9.39,22.59-9.87,43.83a203,203,0,0,0,4.44,43.3,99.7,99.7,0,0,1,2.95,20.1s4.56-14.22,5.13-24.27.93-27,.33-40.8-4.07-39.14-.22-46.2S218.41,608.69,218.4,608.68Z" transform="translate(-18.89 -11.32)"/><path class="cls-4" d="M215.65,611.52s-7.68,0-14.94-.38-22.19-1.4-30-5.48c-7.81-3.79-28.69-14.95-30-15-1.26.23,20-1.48,30.84.7,10.84,2.53,29.64,11,38.79,14.27S218.32,611.38,215.65,611.52Z" transform="translate(-18.89 -11.32)"/><path class="cls-4" d="M199.06,633.51c.1,0-9.67,31.06-11.1,45.73a251.29,251.29,0,0,0,.46,45.82c1.52,14.62,2.56,18.56,2.57,18.56s7.82-28,8.53-41.11,2-26.2,1-39.64-1.25-28.14,3.14-34.9S199.09,633.54,199.06,633.51Z" transform="translate(-18.89 -11.32)"/><path class="cls-4" d="M199.36,631.48s-6.25,1.95-17.42,4.69-25.25,4.5-31.45,3.21c-6.19-1-30.19-15-31-15.47-.68,0,22.6-5.13,34-3.89,13.65,1.87,24,7.56,37.87,7.68,13.8,0,14.14-1.74,14.14-1.69C203.46,627.85,201.42,629.68,199.36,631.48Z" transform="translate(-18.89 -11.32)"/><path class="cls-4" d="M181.42,656.16s-5.47,11.47-10.36,31.56-7.95,32-7.72,43,1.95,26.86,1.94,26.86,6.74-13.87,8.92-25,4.62-33.72,5.84-47.7,2.82-28.42,7.74-37S181.48,656.23,181.42,656.16Z" transform="translate(-18.89 -11.32)"/><path class="cls-4" d="M178.24,659.18s-12.56,10.28-27.7,9.71-22.28.12-28.31-2.8c-6-2.73-27.39-13.23-27.42-13.43.25.62,33.39-1.58,45.57-.1,12.43,2.24,24.82,7.87,38,4.6C185.12,655.43,178.25,659.19,178.24,659.18Z" transform="translate(-18.89 -11.32)"/><path class="cls-4" d="M159.86,679.17c0,.05-8.05,17.65-11.81,29.43s-7.25,23.75-8.6,40.74-1.54,24.6-1.52,24.61,9.86-8.15,14.71-27.22,5.41-35.53,6.86-44.5,2.47-21.82,4.69-26.67S159.89,679.2,159.86,679.17Z" transform="translate(-18.89 -11.32)"/><path class="cls-4" d="M145.8,690.27c.12.36-26.85,4.25-37.47,4.9-15,1.93-37.42-14.06-39.84-15.06-2.16-.31,29.77-1.62,40.36-.67,6.17,1.31,29.76,5.64,38.42,4.81C156,683.67,152.39,687.79,145.8,690.27Z" transform="translate(-18.89 -11.32)"/><path class="cls-4" d="M138.61,699.65s-5.52,11.88-10.47,22.58c-4.8,10.84-13.36,29.83-14.14,38.38s-.73,23.77-.74,23.77,10.38-5.13,14.89-19.63a221.87,221.87,0,0,0,8.69-38.39c1.31-10.3,4.17-27.2,8-31.79S138.66,699.73,138.61,699.65Z" transform="translate(-18.89 -11.32)"/><path class="cls-4" d="M122.27,711.38a70,70,0,0,1-21.22,4.56c-11.26.6-25.19-.13-34.39-1.9-9.12-1.53-24.35-8.32-24.37-8.4.16.3,23.33-1.8,35.77-1.41,12.8,1.22,37.61,5.62,48.4,3C135.69,705.31,122.32,711.48,122.27,711.38Z" transform="translate(-18.89 -11.32)"/><path class="cls-4" d="M118.1,717.08s-8.15,13-15.4,18.18c-7,5.43-18.93,19.41-22.12,28.6-3,9.39-7.37,20.85-7.38,20.83s10.94-7.58,15.71-12.9S99.47,760.56,107.32,746s15.75-32,17.75-35.18S118.15,717.15,118.1,717.08Z" transform="translate(-18.89 -11.32)"/><path class="cls-4" d="M111.11,719.34a110.63,110.63,0,0,1-15.61,5.72c-11.3,3.78-32,9.3-38.16,11.9-5.67,3.32-24.3,18.88-26.89,18.92-2.05.9,26.82-.72,34.24-3.64,7.82-2.18,17.69-3.93,23.51-9.25,6.09-4.92,23.18-21.67,26.34-23.38C117.91,718.2,111.12,719.37,111.11,719.34Z" transform="translate(-18.89 -11.32)"/><path class="cls-4" d="M465.35,443.16c-.76-1.43-58.69-6.49-91.46,8.73-37.06,10.68-90.8,66.52-104,84.26-13.56,16.09-58.95,81.31-71.6,95.1-13.66,18-55,64.53-76.8,78.86-12.29,9.42-20.26,18.13-21.44,18.65s16-8.34,20.84-12.4c5.23-3.36,28.3-22.49,39.92-35.92,12.06-12.71,31.69-35,39.39-45.24,8.32-9.38,48.33-64.75,72.51-94.48,5.83-6.3,25.09-29.08,48.31-47.73,23-19.22,49.89-34.31,65.31-38.24,23.16-7.37,46.24-6.81,57.65-5.37C455.24,450.54,466.67,446.5,465.35,443.16Z" transform="translate(-18.89 -11.32)"/><path class="cls-3" d="M163.36,518.65,125.83,518a384.94,384.94,0,0,0-22,82.54,318.71,318.71,0,0,0,78.76,15.75c134.07,9.41,242.88-171.87,146.11-318.4C273.53,315,213.49,364.19,167,436.86a459.11,459.11,0,0,0-31.33,57.63Z" transform="translate(-18.89 -11.32)"/><path class="cls-5" d="M103.78,600.51s227.49-63.13,224.87-302.65" transform="translate(-18.89 -11.32)"/><line class="cls-5" x1="144.18" y1="603.02" x2="151.46" y2="559.18"/><line class="cls-5" x1="188.49" y1="603.83" x2="193.22" y2="531.87"/><line class="cls-5" x1="231.7" y1="592.47" x2="230.34" y2="498.44"/><line class="cls-5" x1="277.35" y1="563.7" x2="259.26" y2="461.9"/><line class="cls-5" x1="309.71" y1="525.98" x2="279.77" y2="427.92"/><line class="cls-5" x1="335.86" y1="472.75" x2="297.86" y2="379.07"/><line class="cls-5" x1="346.48" y1="412.44" x2="307.4" y2="330.48"/><line class="cls-5" x1="95.14" y1="543.32" x2="150.7" y2="560.66"/><line class="cls-5" x1="193.22" y1="531.87" x2="105.4" y2="510.63"/><line class="cls-5" x1="230.34" y1="498.44" x2="125.95" y2="465.21"/><line class="cls-5" x1="259.26" y1="461.9" x2="150.88" y2="420.88"/><line class="cls-5" x1="279.77" y1="427.92" x2="177.31" y2="385.09"/><line class="cls-5" x1="297.86" y1="379.07" x2="212.44" y2="346.85"/><line class="cls-5" x1="307.4" y1="330.48" x2="252.5" y2="315.49"/><path class="cls-6" d="M311.81,688.64s-6,125.4,47,166.45c39.6,30.67,46.68,21.73,75.87-1.27s37-8.63,56.23,1.3,82.73-11.2,20.42-45S355.23,741.52,311.81,688.64Z" transform="translate(-18.89 -11.32)"/><path class="cls-6" d="M515.54,345.72s121,243,227.22,275.62,264.29-37,84.28-142.46S576,420.55,515.54,345.72Z" transform="translate(-18.89 -11.32)"/><path class="cls-7" d="M854.68,583S623.2,523.1,515.54,345.72" transform="translate(-18.89 -11.32)"/><path class="cls-8" d="M241.64,562.8S310.13,367,396.8,320.18s128.48-30.38,115.53,89.7,6.94,173.94,53.07,229.86,37.17,141-18,177c-62.55,40.85-128-2.58-177.65-59.87s-76.59-20.05-57.33,36.33S172.63,838.44,241.64,562.8Z" transform="translate(-18.89 -11.32)"/><path class="cls-4" d="M585,298.17c-57.49,18.44-100.14,59.71-118.31,107.68,43,28.37,101.88,37.07,159.37,18.63s100.14-59.71,118.3-107.68C701.41,288.43,642.52,279.73,585,298.17Z" transform="translate(-18.89 -11.32)"/><line class="cls-9" x1="703.37" y1="311.75" x2="458.13" y2="390.4"/><line class="cls-9" x1="652.87" y1="328.22" x2="688.91" y2="346.54"/><line class="cls-9" x1="611.05" y1="341.63" x2="655.47" y2="364.22"/><line class="cls-9" x1="569.24" y1="355.05" x2="643.5" y2="392.8"/><line class="cls-9" x1="527.42" y1="368.45" x2="599.67" y2="405.19"/><line class="cls-9" x1="485.6" y1="381.87" x2="525.83" y2="402.32"/><line class="cls-9" x1="657.71" y1="325.97" x2="676.16" y2="290.17"/><line class="cls-9" x1="615.89" y1="339.38" x2="644.66" y2="283.57"/><line class="cls-9" x1="574.08" y1="352.8" x2="610.08" y2="282.93"/><line class="cls-9" x1="532.26" y1="366.21" x2="569.24" y2="294.44"/><line class="cls-9" x1="490.44" y1="379.62" x2="522.21" y2="317.96"/><path class="cls-10" d="M962.7,705.26s4.44,10.88,14.3,16.07c3.58,1.88,11.33,2.15,13.3-1.55s-1-9.06-6.18-11.79C974.26,702.79,962.7,705.26,962.7,705.26Z" transform="translate(-18.89 -11.32)"/><path class="cls-10" d="M946.91,695.42s9.67,3.63,18.71.33c3.27-1.21,7.87-6.1,6.58-9.58s-6.51-4.79-11.26-3C951.9,686.43,946.91,695.42,946.91,695.42Z" transform="translate(-18.89 -11.32)"/><path class="cls-10" d="M926.59,687.72s10.32-.61,17.21-7.29c2.49-2.43,4.68-8.76,2.07-11.41s-7.9-1.73-11.53,1.79C927.45,677.49,926.59,687.72,926.59,687.72Z" transform="translate(-18.89 -11.32)"/><path class="cls-10" d="M946.32,695.44s-4.41,8.44-3.09,17.91c.48,3.44,3.77,9,6.79,8.6s4.88-5.12,4.18-10.11C952.88,702.37,946.32,695.44,946.32,695.44Z" transform="translate(-18.89 -11.32)"/><path class="cls-10" d="M927.12,686.44s-4.74,8.49-3.41,18c.48,3.43,3.91,9,7.12,8.56s5.18-5.17,4.48-10.16C934,693.33,927.12,686.44,927.12,686.44Z" transform="translate(-18.89 -11.32)"/><path class="cls-10" d="M898.81,679.05s-5,6.66-4,13.89c.36,2.62,3.59,6.79,6.8,6.35s5.33-4.13,4.8-7.95C905.43,684.11,898.81,679.05,898.81,679.05Z" transform="translate(-18.89 -11.32)"/><path class="cls-10" d="M899.23,678s8,.23,14.31-4.31c2.3-1.65,5-6.24,3.43-8.4s-5.76-1.81-9.1.58C901.53,670.37,899.23,678,899.23,678Z" transform="translate(-18.89 -11.32)"/><path class="cls-11" d="M795.8,621.77s-18.74,30,97.25,55.43c47.2,10.35,63.36,25.35,74.49,30.86" transform="translate(-18.89 -11.32)"/><path class="cls-12" d="M869.85,427.9S703.64,379.45,523,482.69" transform="translate(-18.89 -11.32)"/><path class="cls-8" d="M864.86,426s12-4,23.92,0c4.3,1.43,10.65,7.13,9.31,11.1s-7.89,5.36-14.15,3.28C872.06,436.43,864.86,426,864.86,426Z" transform="translate(-18.89 -11.32)"/><path class="cls-8" d="M843.42,422.57s10.81,3.37,17.67,12.39c2.49,3.27,4.43,10.68,1.53,12.85s-8.41-.21-12-5C843.73,433.82,843.42,422.57,843.42,422.57Z" transform="translate(-18.89 -11.32)"/><path class="cls-8" d="M806.6,419.9s9.73,3.69,14.22,12.17c1.61,3.07,1.69,9.8-1.68,11.56s-8.17-.73-10.52-5.2C804.13,430,806.6,419.9,806.6,419.9Z" transform="translate(-18.89 -11.32)"/><path class="cls-8" d="M844.53,424s-.15-10.28,6.08-17.5c2.27-2.62,8.49-5.16,11.35-2.72s2.33,7.76-1,11.56C854.77,422.57,844.53,424,844.53,424Z" transform="translate(-18.89 -11.32)"/><path class="cls-8" d="M614.2,441.27s-3.69-9.88-.69-19.83c1.09-3.6,5.7-9,9.09-8s4.74,6.4,3.15,11.64C622.76,435,614.2,441.27,614.2,441.27Z" transform="translate(-18.89 -11.32)"/><path class="cls-8" d="M806.88,417.62s.76-11.77,8.38-20.6c2.76-3.2,10-6.66,12.94-4.12s1.9,8.67-2.12,13.33C818.46,415.07,806.88,417.62,806.88,417.62Z" transform="translate(-18.89 -11.32)"/><path class="cls-8" d="M767.56,415.12s-1-11.71,5.65-19.43c2.41-2.79,9.44-5.19,13-2.18s3.33,9-.18,13.07C779.35,414.3,767.56,415.12,767.56,415.12Z" transform="translate(-18.89 -11.32)"/><path class="cls-8" d="M768.23,418s11.47,2,17.78,10.39c2.28,3,3.39,10.38-.13,13s-9.27.89-12.58-3.51C767,429.56,768.23,418,768.23,418Z" transform="translate(-18.89 -11.32)"/><path class="cls-8" d="M613.05,442.8a31.91,31.91,0,0,1,19.72,3c3.66,1.86,9.35,7.9,8.56,11.39s-6.08,4-11.4,1.26C619.83,453.29,613.05,442.8,613.05,442.8Z" transform="translate(-18.89 -11.32)"/><path class="cls-8" d="M691.79,422.54s6.9,3.27,11.21,12.23c1.57,3.24,2.74,10.63.86,12.83s-5.39-.14-7.66-4.85C691.89,433.8,691.79,422.54,691.79,422.54Z" transform="translate(-18.89 -11.32)"/><path class="cls-8" d="M727,417A22.64,22.64,0,0,1,734,403.64c2.33-2.25,8.42-5.18,11-4s1.71,4.95-1.66,8.22C736.89,414,727,417,727,417Z" transform="translate(-18.89 -11.32)"/><path class="cls-8" d="M650.18,432.48s12.17-2.08,20.59,1.44c3.06,1.28,5.94,5.68,3,8.41s-9.22,3.3-13.65,1.45A16.7,16.7,0,0,1,650.18,432.48Z" transform="translate(-18.89 -11.32)"/><path class="cls-8" d="M690.51,423.66S690,409.34,695.24,399c1.91-3.75,7.34-7.56,10-4.29s2.36,10.69-.41,16.14C699.56,421.2,690.51,423.66,690.51,423.66Z" transform="translate(-18.89 -11.32)"/><path class="cls-8" d="M648.21,431.32s-.48-13.57,4.63-22.73c1.85-3.31,7.12-6.29,9.66-2.91s2.25,10.36-.43,15.18A20.77,20.77,0,0,1,648.21,431.32Z" transform="translate(-18.89 -11.32)"/><path class="cls-8" d="M831.06,541.89s-3.7-9.88-.7-19.82c1.1-3.61,5.71-9,9.09-8s4.74,6.4,3.15,11.63C839.61,535.66,831.06,541.89,831.06,541.89Z" transform="translate(-18.89 -11.32)"/><path class="cls-8" d="M579.3,454.93s7.63-.77,16,4.74c3,2,7.82,7.79,7.34,10.68s-4.73,2.69-9.11-.21C585.16,464.63,579.3,454.93,579.3,454.93Z" transform="translate(-18.89 -11.32)"/><path class="cls-8" d="M738.1,461.09s11.21,2.46,17.95,8.52c2.45,2.2,4.09,7.07.92,8.43s-8.85-.36-12.4-3.55A18.56,18.56,0,0,1,738.1,461.09Z" transform="translate(-18.89 -11.32)"/><path class="cls-8" d="M724.74,418.45a40.12,40.12,0,0,1,18.2,10.5c3.14,3.09,7.45,10.69,6.06,13.45s-6.51,1.06-11.07-3.46C729.25,430.39,724.74,418.45,724.74,418.45Z" transform="translate(-18.89 -11.32)"/><path class="cls-4" d="M782,837.8c-5.53,1.25-5.92,4.71-5.33,9.66s2.34,11.38,3,18.41,1.24,12.92,3.35,18.42A30.26,30.26,0,0,0,795.24,899c6.22,4,14.4,5.52,21.15,1.49,6.65-3.79,11.86-13.17,9.87-25.57-1.65-12.37-10.46-23.61-19.78-29.94C797.11,838.41,787.21,836.73,782,837.8Z" transform="translate(-18.89 -11.32)"/><path class="cls-6" d="M48.71,359.37S42.4,369.2,31.83,372.5c-3.83,1.19-11.46.05-12.71-3.9s2.62-8.67,8.18-10.41C37.88,354.89,48.71,359.37,48.71,359.37Z" transform="translate(-18.89 -11.32)"/><path class="cls-6" d="M65.91,352.59s-10.1,1.81-18.32-3c-3-1.76-6.58-7.36-4.68-10.53s7.22-3.51,11.55-.95C62.68,342.92,65.91,352.59,65.91,352.59Z" transform="translate(-18.89 -11.32)"/><path class="cls-6" d="M87.16,348.71s-10-2.44-15.48-10.2c-2-2.81-3-9.39,0-11.52s8-.27,10.94,3.82C88.18,338.57,87.16,348.71,87.16,348.71Z" transform="translate(-18.89 -11.32)"/><path class="cls-6" d="M66.34,356.52s2.77,9-.24,18c-1.1,3.27-5.32,8.14-8.2,7.18s-3.82-5.87-2.24-10.62C58.68,362.11,66.34,356.52,66.34,356.52Z" transform="translate(-18.89 -11.32)"/><path class="cls-6" d="M87.53,351.92s3.07,9.13.06,18.14c-1.1,3.27-5.45,8.09-8.5,7.08s-4.13-6-2.54-10.72C79.56,357.4,87.53,351.92,87.53,351.92Z" transform="translate(-18.89 -11.32)"/><path class="cls-6" d="M116.37,347.72s3.65,7.4,1.35,14.28c-.84,2.5-4.75,6-7.8,5s-4.45-5-3.24-8.62C109,351.48,116.37,347.72,116.37,347.72Z" transform="translate(-18.89 -11.32)"/><path class="cls-6" d="M115.65,344.09s-7.83-1.21-13.19-6.78c-1.95-2-3.75-7-1.83-8.81s6-.74,8.78,2.2C114.78,336.26,115.65,344.09,115.65,344.09Z" transform="translate(-18.89 -11.32)"/><path class="cls-6" d="M142.06,345.5C77,348.15,29.26,367.26,28.78,367.45l-.84-2c.48-.2,48.56-19.45,114-22.11Z" transform="translate(-18.89 -11.32)"/><path class="cls-8" d="M195.92,745.71c-4.19,1.4-24.28,17.33-18.74,34.72s23,15.73,25.95,0S209.15,741.3,195.92,745.71Z" transform="translate(-18.89 -11.32)"/><path class="cls-13" d="M299.1,419.45C354.54,400.61,395.21,359.88,412,313c-42.17-26.8-99.44-34.25-154.88-15.41S161,357.21,144.23,404.05C186.39,430.84,243.66,438.29,299.1,419.45Z" transform="translate(-18.89 -11.32)"/><line class="cls-7" x1="146.7" y1="386.27" x2="383.22" y2="305.89"/><line class="cls-7" x1="195.4" y1="369.45" x2="160.14" y2="352.28"/><line class="cls-7" x1="235.73" y1="355.74" x2="192.27" y2="334.58"/><line class="cls-7" x1="276.06" y1="342.04" x2="203.4" y2="306.66"/><line class="cls-7" x1="316.39" y1="328.33" x2="245.7" y2="293.92"/><line class="cls-7" x1="356.72" y1="314.63" x2="317.35" y2="295.46"/><line class="cls-7" x1="190.74" y1="371.71" x2="173.46" y2="406.74"/><line class="cls-7" x1="231.07" y1="358" x2="204.12" y2="412.62"/><line class="cls-7" x1="271.41" y1="344.3" x2="237.67" y2="412.66"/><line class="cls-7" x1="311.73" y1="330.59" x2="277.08" y2="400.82"/><line class="cls-7" x1="352.06" y1="316.89" x2="322.29" y2="377.22"/><path class="cls-10" d="M514.39,818.07c23.61,45,64.28,74.44,107.11,82.68,17.71-39.59,16.66-89.58-7-134.56s-64.28-74.45-107.1-82.68C489.74,723.11,490.78,773.09,514.39,818.07Z" transform="translate(-18.89 -11.32)"/><line class="cls-14" x1="496.95" y1="689.62" x2="597.68" y2="881.5"/><line class="cls-14" x1="517.93" y1="729.09" x2="528.2" y2="696.66"/><line class="cls-14" x1="535.11" y1="761.81" x2="547.76" y2="721.84"/><line class="cls-14" x1="552.28" y1="794.52" x2="573.44" y2="727.7"/><line class="cls-14" x1="569.46" y1="827.25" x2="590.04" y2="762.23"/><line class="cls-14" x1="586.63" y1="859.96" x2="598.1" y2="823.76"/><line class="cls-14" x1="515.36" y1="725.4" x2="482.71" y2="715.21"/><line class="cls-14" x1="532.54" y1="758.12" x2="481.63" y2="742.22"/><line class="cls-14" x1="549.71" y1="790.84" x2="485.99" y2="770.93"/><line class="cls-14" x1="566.89" y1="823.56" x2="501.44" y2="803.11"/><line class="cls-14" x1="584.07" y1="856.27" x2="527.83" y2="838.71"/><path class="cls-3" d="M286.39,302.87c40,24.41,87.77,25.89,128,8.19a136.43,136.43,0,0,0-65.24-109.73c-40-24.41-87.78-25.9-128-8.19A136.44,136.44,0,0,0,286.39,302.87Z" transform="translate(-18.89 -11.32)"/><line class="cls-5" x1="217.11" y1="191.72" x2="387.82" y2="295.87"/><line class="cls-5" x1="252.45" y1="213" x2="246.94" y2="179.67"/><line class="cls-5" x1="281.56" y1="230.76" x2="274.76" y2="189.68"/><line class="cls-5" x1="310.66" y1="248.51" x2="299.3" y2="179.85"/><line class="cls-5" x1="339.77" y1="266.27" x2="328.72" y2="199.47"/><line class="cls-5" x1="368.88" y1="284.03" x2="362.73" y2="246.84"/><line class="cls-5" x1="248.62" y1="211.36" x2="216.21" y2="221.54"/><line class="cls-5" x1="277.73" y1="229.12" x2="227.19" y2="245"/><line class="cls-5" x1="306.84" y1="246.88" x2="243.58" y2="266.75"/><line class="cls-5" x1="335.95" y1="264.63" x2="270.96" y2="285.05"/><line class="cls-5" x1="365.05" y1="282.4" x2="309.23" y2="299.94"/><path class="cls-15" d="M665.56,173.6c0,89.62-74.7,162.27-166.83,162.27S331.9,263.22,331.9,173.6,406.59,11.32,498.73,11.32,665.56,84,665.56,173.6Z" transform="translate(-18.89 -11.32)"/><path class="cls-15" d="M456,271.59c0,34-28.37,61.63-63.36,61.63s-63.36-27.59-63.36-61.63S357.6,210,392.6,210,456,237.56,456,271.59Z" transform="translate(-18.89 -11.32)"/><path class="cls-15" d="M496.88,33.24C447.91,28,399.36,104.88,388.45,205c-3.34,30.69-2.74,60,1.09,86,27.75,18.22,56.33,45.63,81.18,79.87,4.77,6.57,9.22,13.19,13.42,19.81,38.81-18.74,72.78-85,81.68-166.66C576.72,124,545.86,38.51,496.88,33.24Z" transform="translate(-18.89 -11.32)"/><path class="cls-10" d="M562.32,191.69c10.54-1.74,17.26,10.26,23.53-5.3,7.77-19.31,12.56-28.06-1.57-42.67-32.35-33.45-73.76-52.33-73.76-52.33-4.62.76-25.53.08-30.21,0-22.67-.41-60.6,7.85-73.77,52.33-11,37.14,11.42,46.23,22,48s-7.91,6.11-17.57,10.47-14,22.05-10.53,31.65,19.31,42.49,22,50.34,2.64,19.19,26.34,36.63c13.66,10.06,23.23,15.75,30.58,19,6.93,3.87,25.35,3.87,32.28,0,7.35-3.2,16.92-8.89,30.58-19,23.71-17.44,23.71-28.78,26.34-36.63s18.44-40.74,21.95-50.34-.87-27.29-10.53-31.65S551.79,193.44,562.32,191.69Z" transform="translate(-18.89 -11.32)"/><path class="cls-8" d="M515.23,279.24c-3.76-5.27-6.54-11.26-12-11.35-2.71-.05-7.21,3.51-10.6,6.6-3.39-3.09-7.88-6.65-10.59-6.6-5.47.09-8.25,6.08-12,11.35a52,52,0,0,1-8.69,9.34h62.58A52,52,0,0,1,515.23,279.24Z" transform="translate(-18.89 -11.32)"/><path class="cls-8" d="M489.55,288.54H461.34a117.78,117.78,0,0,1,10.54,10.09c4.3,4.85,9.39,10.08,18.36,10.86a22.26,22.26,0,0,0,2.47.13c.46,0,1.17,0,2.31-.13,9-.79,14.06-6,18.36-10.86a117.78,117.78,0,0,1,10.54-10.09Z" transform="translate(-18.89 -11.32)"/><path class="cls-15" d="M392.22,175a53.85,53.85,0,0,1,17.46-10.26,27,27,0,0,1,10.56-1.51l2.52.37,3.22.63,6.6,1.33c4.72,1.07,9.48,2.41,14,3.83a114.17,114.17,0,0,1,11.89,4.43,3.64,3.64,0,0,0,1.9.37,8.7,8.7,0,0,0,1.94-.43,34.71,34.71,0,0,0,4.55-1.82,5,5,0,0,0,2.82-4.15,7.25,7.25,0,0,0-3.12-5.87c-5.06-3.6-10.47-5.38-15.87-6.64a115.3,115.3,0,0,0-16.16-2.34c-2.45-.24-4.85-.39-7.22-.47l-3.54-.05c-1.41.08-2.79.13-4.13.3a30.54,30.54,0,0,0-13.35,5.7A51.07,51.07,0,0,0,392.22,175Z" transform="translate(-18.89 -11.32)"/><path class="cls-15" d="M597.51,175a51.2,51.2,0,0,0-14-16.58,30.47,30.47,0,0,0-13.35-5.69c-1.34-.18-2.73-.23-4.13-.31l-3.54.05c-2.37.08-4.79.23-7.22.47a116,116,0,0,0-15.93,2.28,44,44,0,0,0-15.66,6.4,8.93,8.93,0,0,0-2.51,2.73,6.63,6.63,0,0,0-.86,3.12,5,5,0,0,0,2.57,4.44,25.61,25.61,0,0,0,4.5,1.91c1.35.46,2.49.73,3.67.12a110.1,110.1,0,0,1,12-4.48c4.56-1.46,9.39-2.82,14.17-3.9l6.61-1.33,3.21-.63,2.53-.37A26.78,26.78,0,0,1,580,164.71,53.71,53.71,0,0,1,597.51,175Z" transform="translate(-18.89 -11.32)"/><path class="cls-15" d="M569.06,181.2A37.92,37.92,0,0,0,522.26,206a46.51,46.51,0,0,1,5-1.33c4.91-.57,13.45,5.18,30.36,4.19,14.7-.88,27.3-8.92,33.59-21.08-.49-.16-1-.33-1.5-.48Z" transform="translate(-18.89 -11.32)"/><path class="cls-15" d="M572.74,176.81A37.9,37.9,0,0,0,526,201.56a46.17,46.17,0,0,1,5-1.33c4.92-.57,13.46,5.18,30.36,4.19,14.71-.88,27.31-8.93,33.6-21.08l-1.51-.49Z" transform="translate(-18.89 -11.32)"/><path class="cls-10" d="M528.84,201.46l5.22,1.53c17.62,5.16,35.27.49,44.43-10.5l-5.2-1.53C555.66,185.81,538,190.47,528.84,201.46Z" transform="translate(-18.89 -11.32)"/><path class="cls-15" d="M590.46,154s.12.46.34,1.27a26.25,26.25,0,0,1,.87,4.05c.15,1.08.32,2.28.45,3.51s.09,2.24.15,3.43a30,30,0,0,1-.08,3.66,36,36,0,0,1-.3,3.74A59.25,59.25,0,0,1,588.61,187c-.63,1.75-1.33,3.14-1.76,4.15s-.71,1.56-.71,1.56l-4.36-2.48s.31-.48.83-1.34,1.33-2.06,2.12-3.61a54.23,54.23,0,0,0,4.68-12,32.9,32.9,0,0,0,.75-3.52,26.71,26.71,0,0,0,.51-3.49c.1-1.16.2-2.28.29-3.34s0-2.37-.07-3.44c-.08-2.43-.23-3.17-.3-4.11S590.46,154,590.46,154Z" transform="translate(-18.89 -11.32)"/><path class="cls-15" d="M582.83,157.47l.28,1.29a23.8,23.8,0,0,1,.6,3.42,38.45,38.45,0,0,1-.23,10.73,46.84,46.84,0,0,1-3,10.5c-.55,1.4-1.18,2.5-1.54,3.3s-.61,1.25-.61,1.25l-4.23-2.7.73-1c.43-.66,1.16-1.56,1.87-2.73a44.19,44.19,0,0,0,4.32-9.17,37,37,0,0,0,1.88-10.09,22.45,22.45,0,0,0,0-3.46C582.86,158,582.83,157.47,582.83,157.47Z" transform="translate(-18.89 -11.32)"/><path class="cls-15" d="M574,162.8s.08.48.2,1.31a27.65,27.65,0,0,1,.35,2.8c0,.36.08.74.14,1.19s0,1.2-.05,1.84a10.63,10.63,0,0,1-.17,2,14.2,14.2,0,0,1-.31,2.1,34.56,34.56,0,0,1-2.51,7.73c-.45,1-1,1.85-1.26,2.45s-.5.94-.5.94l-4-3s.21-.26.6-.71,1-1.06,1.57-1.87a32.75,32.75,0,0,0,3.75-6.31,18.07,18.07,0,0,0,.72-1.82,11.68,11.68,0,0,0,.59-1.79c.16-.59.31-1.16.46-1.69a9.84,9.84,0,0,1,.24-1.09,10.5,10.5,0,0,0,.22-2.78C574,163.29,574,162.8,574,162.8Z" transform="translate(-18.89 -11.32)"/><path class="cls-15" d="M568.18,166.53s-.06.4-.16,1.1-.26,2-.39,2.39-.11.62-.17,1-.32,1-.5,1.57a13.42,13.42,0,0,1-.63,1.71c-.26.58-.44,1.2-.78,1.81a44.17,44.17,0,0,1-4,6.69c-.65.91-1.29,1.62-1.69,2.15s-.65.82-.65.82l-2.72-2.38.68-.62c.42-.4,1.09-.94,1.8-1.66a44,44,0,0,0,4.75-5.54c.43-.53.7-1.07,1.06-1.59a14,14,0,0,0,.94-1.55l.81-1.46c.15-.34.3-.64.46-.93a11.09,11.09,0,0,0,.88-2.4C568.05,166.94,568.18,166.53,568.18,166.53Z" transform="translate(-18.89 -11.32)"/><path class="cls-15" d="M563.76,192.57a11.05,11.05,0,0,1-14.21,10.94,11,11,0,0,1-7.9-9.59,11.28,11.28,0,0,0,22,4.63A11.06,11.06,0,0,0,563.76,192.57Z" transform="translate(-18.89 -11.32)"/><path class="cls-15" d="M558.87,195.35A5.51,5.51,0,0,1,552,199a5.47,5.47,0,1,1,6.83-3.69Z" transform="translate(-18.89 -11.32)"/><path class="cls-10" d="M561.07,193.57a3.62,3.62,0,1,1-2.45-4.47A3.59,3.59,0,0,1,561.07,193.57Z" transform="translate(-18.89 -11.32)"/><path class="cls-15" d="M418.73,181.2A37.92,37.92,0,0,1,465.53,206a46.51,46.51,0,0,0-5-1.33c-4.91-.57-13.46,5.18-30.36,4.19-14.71-.88-27.3-8.92-33.59-21.08.49-.16,1-.33,1.5-.48Z" transform="translate(-18.89 -11.32)"/><path class="cls-15" d="M413.57,176.81a37.91,37.91,0,0,1,46.8,24.75,46.51,46.51,0,0,0-5-1.33c-4.91-.57-13.46,5.18-30.36,4.19-14.71-.88-27.3-8.93-33.6-21.08l1.51-.49Z" transform="translate(-18.89 -11.32)"/><path class="cls-10" d="M458.94,201.46,453.73,203c-17.62,5.16-35.26.49-44.43-10.5l5.21-1.53C432.13,185.81,449.78,190.47,458.94,201.46Z" transform="translate(-18.89 -11.32)"/><path class="cls-15" d="M397.33,154l-.33,1.27a23.6,23.6,0,0,0-.88,4.05c-.15,1.08-.32,2.28-.45,3.51s-.1,2.24-.15,3.43a30,30,0,0,0,.08,3.66,36,36,0,0,0,.3,3.74A59.25,59.25,0,0,0,399.18,187c.64,1.75,1.33,3.14,1.75,4.15l.72,1.56,4.35-2.48-.83-1.34c-.5-.87-1.32-2.06-2.11-3.61a54.72,54.72,0,0,1-4.68-12,32.9,32.9,0,0,1-.75-3.52,28.57,28.57,0,0,1-.52-3.49c-.1-1.16-.18-2.28-.27-3.34s0-2.37.06-3.44c.08-2.43.23-3.17.31-4.11S397.33,154,397.33,154Z" transform="translate(-18.89 -11.32)"/><path class="cls-15" d="M405,157.47l-.28,1.29a23.8,23.8,0,0,0-.6,3.42,38.45,38.45,0,0,0,.23,10.73,46.84,46.84,0,0,0,3,10.5c.56,1.4,1.17,2.5,1.53,3.3l.61,1.25,4.23-2.7-.72-1c-.43-.66-1.16-1.56-1.87-2.73a43.68,43.68,0,0,1-4.32-9.17,36.62,36.62,0,0,1-1.88-10.09,21.24,21.24,0,0,1,0-3.46C404.94,158,405,157.47,405,157.47Z" transform="translate(-18.89 -11.32)"/><path class="cls-15" d="M413.78,162.8s-.07.48-.2,1.31a27.65,27.65,0,0,0-.35,2.8c0,.36-.08.74-.15,1.19s0,1.2.05,1.84a12.68,12.68,0,0,0,.18,2,14.2,14.2,0,0,0,.31,2.1,35.09,35.09,0,0,0,2.5,7.73c.46,1,1,1.85,1.28,2.45s.48.94.48.94l4.06-3-.59-.71c-.37-.45-1-1.06-1.57-1.87A32.25,32.25,0,0,1,416,173.3a16,16,0,0,1-.72-1.82,11.68,11.68,0,0,1-.59-1.79c-.16-.59-.31-1.16-.46-1.69a9.84,9.84,0,0,0-.24-1.09,10.5,10.5,0,0,1-.22-2.78C413.79,163.29,413.78,162.8,413.78,162.8Z" transform="translate(-18.89 -11.32)"/><path class="cls-15" d="M419.61,166.53s.06.4.15,1.1.27,2,.4,2.39a10.06,10.06,0,0,1,.17,1c.16.49.32,1,.49,1.57a15.29,15.29,0,0,0,.64,1.71,18.3,18.3,0,0,0,.78,1.81,43.39,43.39,0,0,0,4,6.69c.64.91,1.28,1.62,1.68,2.15s.66.82.66.82l2.7-2.38-.67-.62c-.42-.4-1.1-.94-1.8-1.66a44.86,44.86,0,0,1-4.75-5.54c-.43-.53-.7-1.07-1.05-1.59a14.1,14.1,0,0,1-.95-1.55l-.81-1.46c-.16-.34-.3-.64-.47-.93a11.68,11.68,0,0,1-.86-2.4Z" transform="translate(-18.89 -11.32)"/><path class="cls-15" d="M424,192.57a10.56,10.56,0,0,0,.44,3.49,11.09,11.09,0,0,0,21.66-2.14,11.2,11.2,0,0,1-8,12.22,11.32,11.32,0,0,1-14-7.59A11.06,11.06,0,0,1,424,192.57Z" transform="translate(-18.89 -11.32)"/><path class="cls-15" d="M428.92,195.35a5.52,5.52,0,0,0,6.84,3.69,5.45,5.45,0,0,0,3.71-6.79,5.5,5.5,0,0,0-10.55,3.1Z" transform="translate(-18.89 -11.32)"/><path class="cls-10" d="M426.72,193.57a3.62,3.62,0,1,0,2.45-4.47A3.62,3.62,0,0,0,426.72,193.57Z" transform="translate(-18.89 -11.32)"/><path class="cls-10" d="M422.21,316.82s11.23,66.94,2.81,89.25-14,33.47-22.47,35.33c-4.18.93,8.82,92,50.55,85.54,47.73-7.44,80.63,17.72,107.63,11.15,45.87-11.15,79.56-25.1,96.4,13.95,5.9,13.67,23.85-92.88-5.61-103.2-31.82-11.16-94.19-12.6-126.35-23.24-14-4.65-5.62-67.88-5.62-67.88s-16.85,27-27.14,27S422.21,316.82,422.21,316.82Z" transform="translate(-18.89 -11.32)"/><path class="cls-15" d="M339.37,162.3a141.77,141.77,0,0,0,43.1,6.74C458.42,169,521.75,108.88,536.23,29a141.79,141.79,0,0,0-43.11-6.74C417.18,22.24,353.84,82.41,339.37,162.3Z" transform="translate(-18.89 -11.32)"/><path class="cls-15" d="M349.39,207.24s12-37.13,32-50.39,77.43-33.16,116.15-70.29" transform="translate(-18.89 -11.32)"/><path class="cls-16" d="M349.39,207.24a149.27,149.27,0,0,1,23.47-33.64,61.49,61.49,0,0,1,8.39-7.26,42,42,0,0,1,4.47-2.77l5.52-2.48c3.54-1.74,7.84-3.34,11.93-5.09l12.8-5.45c4.31-1.79,8.74-3.7,13.18-5.65s8.9-3.85,13.27-6.09,8.71-4.39,12.93-6.67c4.15-2.51,8.19-5.07,12-7.68,1.92-1.34,3.84-2.58,5.62-4s3.48-3,5.13-4.46a117.21,117.21,0,0,0,9-9.14c5.08-6.69,8.7-13.59,10.42-20.27a69.87,69.87,0,0,0-21.08,6.65,108.06,108.06,0,0,0-10.89,5c-1.8,1-3.61,2-5.41,3l-5.68,3c-3.82,2.07-7.64,4.32-11.47,6.69-4,2.2-8,4.5-12,6.88s-8.09,4.7-12.15,7.06-8.13,4.7-12.25,7-8.2,4.47-12.27,6.91-7.93,4.59-11.9,7.49c-2,1.37-3.86,2.68-5.76,4.1a50.41,50.41,0,0,0-5.45,5.23,64.59,64.59,0,0,0-7.93,11,112.62,112.62,0,0,0-9.2,21.56A160.92,160.92,0,0,0,349.39,207.24Z" transform="translate(-18.89 -11.32)"/><path class="cls-16" d="M645.77,232.43a176.73,176.73,0,0,0,7.28-21.32,132.33,132.33,0,0,0,4.6-26.38c.54-9.63.15-20.39-4.39-31.59a44.7,44.7,0,0,0-10.74-15.71c-4.24-3.74-8.67-7.65-13.16-10.86a540.24,540.24,0,0,0-54.21-36.83c-18-10.27-35-17.93-50.87-19.1,6.68,14.2,20.78,27.42,37.91,39.23s37.25,22.63,55.07,33.7c4.61,2.81,8.51,5.68,12.57,8.44a29.72,29.72,0,0,1,7.94,8.71c4.38,7.06,6.77,15.91,8.11,24.48A168,168,0,0,1,645.77,232.43Z" transform="translate(-18.89 -11.32)"/><path class="cls-16" d="M367.08,248.67a45.82,45.82,0,0,0-15.79,8.24A30.67,30.67,0,0,0,340,278.51a66.15,66.15,0,0,0-.18,7.63,53.19,53.19,0,0,0,1.37,7.84,47.78,47.78,0,0,0,3.17,7.21,29.08,29.08,0,0,0,4.77,5.55,15,15,0,0,0,5.86,3.37,15.75,15.75,0,0,0,6.59.87c4.61-.64,9.52-3,14.48-7.6a120,120,0,0,0,3.22-15.16c.23-1.76.58-3.25.6-4.4s-.2-2-.11-2.74a2.3,2.3,0,0,0-.69-1.57,2,2,0,0,0-1.13-1,10,10,0,0,0-1.52-1c-.55-.41-1-.94-1.59-1.5a45.44,45.44,0,0,1-5.35-11.87A54.68,54.68,0,0,1,367.08,248.67Z" transform="translate(-18.89 -11.32)"/><path class="cls-10" d="M389.59,393.81S379.2,399.22,375,409.4c-1.53,3.69-1,11.33,2.82,12.91s8.92-1.84,11.14-7.21C393.16,404.92,389.59,393.81,389.59,393.81Z" transform="translate(-18.89 -11.32)"/><path class="cls-10" d="M397.86,377.37s-2.68,9.84,1.49,18.39c1.51,3.1,6.82,7.14,10.16,5.54s4.14-6.85,1.94-11.36C407.29,381.39,397.86,377.37,397.86,377.37Z" transform="translate(-18.89 -11.32)"/><path class="cls-10" d="M403.57,356.67s1.6,10.07,8.91,16.19c2.65,2.22,9.16,3.75,11.56.93s.95-7.92-2.9-11.15C413.82,356.53,403.57,356.67,403.57,356.67Z" transform="translate(-18.89 -11.32)"/><path class="cls-10" d="M394,376.61s-8.82-3.51-18.12-1.3c-3.37.8-8.61,4.57-7.9,7.5s5.56,4.29,10.46,3.12C387.7,383.71,394,376.61,394,376.61Z" transform="translate(-18.89 -11.32)"/><path class="cls-10" d="M400.38,356s-8.89-3.82-18.19-1.6c-3.37.8-8.58,4.7-7.83,7.81s5.64,4.59,10.54,3.42C394.2,363.45,400.38,356,400.38,356Z" transform="translate(-18.89 -11.32)"/><path class="cls-10" d="M407.05,327.85s-7.11-4.25-14.21-2.56c-2.57.62-6.4,4.19-5.65,7.29s4.62,4.84,8.36,3.95C402.65,334.84,407.05,327.85,407.05,327.85Z" transform="translate(-18.89 -11.32)"/><path class="cls-10" d="M410.64,328.87s.54,7.85,5.67,13.64c1.86,2.09,6.69,4.3,8.68,2.55s1.26-5.83-1.45-8.88C418.41,330.4,410.64,328.87,410.64,328.87Z" transform="translate(-18.89 -11.32)"/><path class="cls-10" d="M411.47,302.61C403.26,366.8,380,412.4,379.79,412.85l2,1c.23-.46,23.65-46.41,31.91-111Z" transform="translate(-18.89 -11.32)"/><path class="cls-4" d="M424.18,517.64c4.91,7.24,58.45,57.08,46.16,108.12-9.76,40.49,11.56,41.44,29.3,35.48s31.84-19.45,41,2.1C570.86,734.26,639.84,769,641.4,716.62c.85-28.31,35.3-22.92,43.37-5.15,17.11,37.69,45.88,55.42,56.09,26.32,10-28.61,26.46-40.19,39.27-27.11s21.86,47.88,50.43,27.05c11.25-8.21,11.66-43.2-8.32-63.93-11.38-11.82-56.38-38.35-16.45-50.62,41.15-12.63,17.25-38.18-6.4-39.64-8.81-.55-90-11.93-69.21-29.14,24.51-20.31,8.43-42.77-32-37.58-18.37,2.36-56.71,19.54-57.54,3.71s-23.15-56.17-45.68-39C530.94,530.24,434.36,532.68,424.18,517.64Z" transform="translate(-18.89 -11.32)"/><path class="cls-17" d="M824.88,713.11s-72.26-87.85-199-131.43C495.32,536.77,416,568.08,406.28,460.07" transform="translate(-18.89 -11.32)"/><path class="cls-17" d="M723.41,704.88s-.06-63.76-30.67-96.62" transform="translate(-18.89 -11.32)"/><path class="cls-17" d="M799.72,601.89s-60.07,18.23-116.53,1.77" transform="translate(-18.89 -11.32)"/><path class="cls-17" d="M615,706.53s-18-24.67-37.78-138.63" transform="translate(-18.89 -11.32)"/><path class="cls-17" d="M726.1,532.55s-86.91,43.65-110.36,46" transform="translate(-18.89 -11.32)"/><path class="cls-17" d="M617.52,504.48S551,548.28,500.61,545.24" transform="translate(-18.89 -11.32)"/></g></g></g></g></svg>