<svg xmlns="http://www.w3.org/2000/svg" xmlns:xlink="http://www.w3.org/1999/xlink" viewBox="0 0 606.01 465.51"><defs><style>.cls-1,.cls-11,.cls-4,.cls-9{fill:none;}.cls-2{fill:#e6bfec;}.cls-3{fill:#d6a4de;}.cls-4{stroke:#c21561;stroke-width:2.86px;}.cls-11,.cls-4,.cls-9{stroke-miterlimit:10;}.cls-5{fill:#ff586b;}.cls-6{fill:#0c1153;}.cls-7{fill:#fff;}.cls-8{clip-path:url(#clip-path);}.cls-9{stroke:#ff586b;}.cls-11,.cls-9{stroke-width:2px;}.cls-10{fill:#b22097;}.cls-11{stroke:#0c1153;}</style><clipPath id="clip-path"><rect class="cls-1" x="55.87" y="158.81" width="312" height="204"/></clipPath></defs><title>Asset 7</title><g id="Layer_2" data-name="Layer 2"><g id="dizajn"><path class="cls-2" d="M559,296.06c-45.83-6.7-89.62-2.14-125.64,6.17,85-41.17,184-99,93.58-105.67-28.21-2.09-71.57,11.57-119.81,32.9C461,185.67,490.56,149.68,458,143c-30.26-6.21-92,29.4-157.67,76.68,37.43-39.62,59.11-74.19,42.29-90.51-13.71-13.31-43,2-76.66,30.28,1.5-24.89-9-39.92-32.83-36.9-22.44,2.83-40.63,31.64-53.62,66.2C159.46,139,109,107.13,55.87,115.9V317.69q2.41,5.07,4.69,9.67H603.17C612,313.77,601,302.21,559,296.06Z"/><path class="cls-3" d="M88.7,300c.29,0,6.51-18.53,3.92-25.89-1.52-5.14-6.75-9.56-6.74-9.56a39.66,39.66,0,0,0-.61,10.4C86,280.13,89.49,294.6,88.7,300Z"/><path class="cls-3" d="M91.26,297.22A95.2,95.2,0,0,1,101.93,299a65.36,65.36,0,0,1,12,3.68,22.13,22.13,0,0,1,4.64,2.49c0,.05-10.34,3.34-16.06,1.21S91.75,299.41,91.26,297.22Z"/><path class="cls-3" d="M103.52,284.38c.29,0,2.5-18.86,0-24.25-2.51-6.57-10-13.06-11.4-14.58,0,0,2.25,8.39,3.8,16.28C97.67,269.53,100.21,282,103.52,284.38Z"/><path class="cls-3" d="M105.38,283.59s1.74-.33,5.93-1,16.12-2.54,20.51-2.48,12,2.59,14.62,3.52c1,.38-8.76,3-14.6,3.81-4.45.69-10.91,1.56-14.51.61-1.68-.42-8.77-3.62-13-2.13S105.39,283.6,105.38,283.59Z"/><path class="cls-3" d="M112.1,274.16c.17,0,3.38-15,1.93-20.77a36.7,36.7,0,0,0-7.38-15.94c-3.78-4.5-7.3-8.29-7.3-8.3s1.34,8.35,3.07,14.19,2.68,11.7,5.22,17.51A92.2,92.2,0,0,1,112.1,274.16Z"/><path class="cls-3" d="M115.48,270.67c2.12-1.72,4.28-3.15,9.5-4s17.85-4.7,24.35-4.59c6.45.26,16.08,0,16.63-.21.56-.07-15.9,8.43-24.18,9.2a87.2,87.2,0,0,1-17.59-.1c-4-.34-8.1,0-10.7,1.65A25,25,0,0,1,115.48,270.67Z"/><path class="cls-3" d="M123.39,257.27a34.43,34.43,0,0,0,.06-14.81c-1.72-8.69-4.14-16-6-19.27s-7.52-8.56-8.14-9.48.71,8.39,1.32,11.25a62.88,62.88,0,0,0,5.88,13.95C119.9,244.71,123.14,254.45,123.39,257.27Z"/><path class="cls-3" d="M124.36,256.33c2.84-1.39,9.13-2.89,12.94-4s6.82-.36,21.22-6.84a92.3,92.3,0,0,0,22.15-14.55,93,93,0,0,1-9.73,2c-7.43,1.28-18.85,8.28-28.27,12.45a132.15,132.15,0,0,0-15.76,8.39C126.06,254.59,125.21,255.46,124.36,256.33Z"/><path class="cls-3" d="M133.5,242.86c.16,0-.55-16.44-2.69-23.72-1.88-7.34-3.24-13-9.63-16.37a50.52,50.52,0,0,1-9.26-5.88s3.69,8.29,6.89,14.62,7.06,15.22,8.66,18C129.24,232.23,132,243,133.5,242.86Z"/><path class="cls-3" d="M136.91,233.13c3.28-2.77,6.64-5,14.13-9.38,7.1-4.11,15.4-9.37,19.71-11.16,4.3-1.62,18.34-7.93,18.7-8.17.41-.06-10.68,12.24-17.64,15.91s-12.89,7.46-21.56,9.2-13.45,4.64-16,7.68S136.15,233.8,136.91,233.13Z"/><path class="cls-3" d="M140.45,222.84s-.72-7.64-3.79-10.75c-2.91-3.19-8.6-13.47-10.31-16.88-1.44-3.62-9.61-16.77-10.1-17.83-.33-1.18,4.48,3.55,8.91,6.1s9.23,9.52,11.75,15.85c2.71,6.23,5.16,18.8,5,20.78A3.39,3.39,0,0,1,140.45,222.84Z"/><path class="cls-3" d="M144.2,215s6.67-5,12.59-9.43,16.13-10.66,18.83-13c2.71-2.11,16.28-9.87,16.61-10.65s-7.62,11.33-16.67,18.47A72,72,0,0,1,154,212.66c-6.26,2.34-10.15,4.64-11.6,6.64S144.22,215,144.2,215Z"/><path class="cls-3" d="M148.87,194.83c.11-.06-4.27-13.05-7.68-17.87-3.23-4.91-6.71-10.85-10.49-13.92s-9.65-7.55-9.67-7.53,4.42,9.2,7.85,15.11,7.12,12.52,11.54,18.28a85.27,85.27,0,0,0,8.56,9.62C149,197.29,148.92,196.06,148.87,194.83Z"/><path class="cls-3" d="M150.9,193.68c0,.09,11.21-10.28,17-15.56,5.88-5.06,15.59-13.13,19.75-15.87a67.36,67.36,0,0,0,7.85-5.95c.17.24-15.11,21.11-23,25.76-7.69,5.16-21.41,13.74-24.27,18.45C145.43,205.37,151,193.72,150.9,193.68Z"/><path class="cls-3" d="M152.69,174.73c.14-.07-5.38-14.06-7.9-18.08-2.3-4.16-8.14-9.87-12-11.59s-12.81-6.3-14.08-7.92,3.44,7.41,8.28,12.36,11.9,11.74,17,17.7,7.76,8.1,7.9,13.34S152.76,174.73,152.69,174.73Z"/><path class="cls-3" d="M154.24,172.72s5.86-7.12,10.56-11.87S176.63,150.38,180,147c3.36-3.19,15.44-12.8,16-14.16.65-1.17-8.7,17.42-17.73,24.69-8.86,7.44-15.33,10.58-18.62,13.43s-6.5,6.1-6.5,6.1C153.46,175.63,153.86,174.17,154.24,172.72Z"/><path class="cls-3" d="M153.85,151.81c.07,0-5.62-11.21-11.65-16.6s-15.85-8.38-19.4-9.57a22.66,22.66,0,0,0-5.72-1.27s4.9,5,10.45,10.12S141.08,144,144.71,146s9,7.65,9.33,9.7S153.87,151.8,153.85,151.81Z"/><path class="cls-3" d="M155.27,152.74s6.69-10.47,12.32-16.59,10.59-12.55,13.56-15.36,10-11.66,10-11.72-3.64,12.42-10.19,21c-4.8,6.7-20.07,19.21-24.72,24.19C152.53,158.42,155.28,152.74,155.27,152.74Z"/><path class="cls-3" d="M153.11,134.23c.09,0-4.84-12.94-13.6-18.4a54.22,54.22,0,0,0-19.59-7.15,43,43,0,0,1-9.52-2.24s4.86,5.17,8.83,7.71,10.86,6.62,16.52,9.9,16.75,8.44,17.74,13.17S153.14,134.21,153.11,134.23Z"/><path class="cls-3" d="M153.13,131.62s3-4.89,5.79-9.69,8.14-15,12.05-19.82c4.05-4.6,14-18.51,14.17-19.73.36-1-3.73,16.92-8.31,24.39-4.36,7.7-14.53,18.4-19.39,23.23S152.13,133.32,153.13,131.62Z"/><path class="cls-3" d="M150.45,114.63c.15-.13-10-14.22-16.48-17.75a64,64,0,0,0-21.11-7.59c-7.15-1.2-9.22-1.05-9.21-1.06s11.53,8.25,17,11.31c5.6,2.88,11,6.3,17,8.81s12.26,6.06,13.46,10.81S150.5,114.62,150.45,114.63Z"/><path class="cls-3" d="M151.19,115.36s1.4-4.58,3.39-13,4.15-19,5.76-23.38c1.79-4.17,11.41-20.36,11.47-21.1.34-.58.47,19.17-2.95,27.54-3.83,10-9.14,16.16-13.5,25.57s-4.1,9.84-4.07,9.87C151.28,119,151.25,117.2,151.19,115.36Z"/><path class="cls-3" d="M145.92,97.4s-3.61-6.37-12.2-13-14.2-9.69-19.7-10.77a106.2,106.2,0,0,0-13.59-1.35,100.85,100.85,0,0,0,11.26,7.62c5,2.57,15.38,7.36,21.51,10.8s12.29,7.47,14.61,12.8S146,97.36,145.92,97.4Z"/><path class="cls-3" d="M145.36,94.61a68,68,0,0,1,.73-21c2.29-10.55,2-15.91,3.81-19.9s6.71-18.85,6.61-18.94c.34,0,2,25.54-1.08,34.24-2.64,8.82-7.49,16.49-9.18,26.06C145.34,100.05,145.37,94.61,145.36,94.61Z"/><path class="cls-3" d="M139.72,78.4c.05,0-7.35-8.26-13.11-11.87A53.44,53.44,0,0,0,106,58a108.27,108.27,0,0,0-13-1.69s4.46,5.35,13.84,9.57,17.43,6.72,21.67,8.85,10.25,4.84,12.16,7.22S139.75,78.39,139.72,78.4Z"/><path class="cls-3" d="M136,67.25c.19,0-.3-18.73-1.83-25.9-1.7-10.07,3.1-24.74,3-26.48.24-1.66,6.41,20.36,5.51,27.93-.12,4.31-3,20.33-3.83,26.26S136.63,72,136,67.25Z"/><path class="cls-3" d="M131.83,61.32a121.87,121.87,0,0,0-11.5-8.68c-5.66-3.86-16.55-9.21-21.36-9.43a129.93,129.93,0,0,0-13.1.13,26.78,26.78,0,0,0,11.8,7.74c7.92,2.7,15.06,5.2,20.41,6.73s13.93,5,15.89,8.27S131.87,61.3,131.83,61.32Z"/><path class="cls-3" d="M126,49.57a133.91,133.91,0,0,1-3.8-13.79c-1.45-7.13-3.66-15.63-5-21.13S115.16,0,115.13,0s8.48,13.23,10.24,21.31c2.12,8.08,1.86,24.06,2.86,31.28C129.2,58.78,126.06,49.56,126,49.57Z"/><path class="cls-3" d="M122.85,46.56s-7.35-5.75-11.12-9.94C108,32.26,98,26.22,92,25.47s-13.55-1.61-13.55-1.59,7,4.23,10.76,6.39,8.23,4.66,17.11,9.08,18.38,10.49,20,12.08S122.88,46.53,122.85,46.56Z"/><path class="cls-3" d="M121.24,42s-1.32-2.78-4.75-9.76-11.42-18.35-14.94-21.13C98.22,8.08,82.69,1.73,81.51,1c-1-1,10.12,11.51,13.28,15.36,3.38,3.73,6.52,8.89,10.5,12s15.18,13.52,16,15.83S121.25,42,121.24,42Z"/><path class="cls-3" d="M59.51,324.08c.3.39,33.23-22.2,50.56-44.53,9.64-11.25,21.11-29.57,28.69-47.25a209.42,209.42,0,0,0,13.3-41.63c1.5-7,3.47-23.32,3.09-39.07a242.8,242.8,0,0,0-3.5-36.91c-1.16-14.43-15-51.55-25-65.58C121.4,40.48,115.4,35.72,115,35s6.27,9.89,8.31,13.35C125.68,51.62,134.9,68.51,139,78.8c4.58,10.08,9.1,28.3,10.43,36.1,2.53,7.48,6.24,50.1,0,75.35A204.8,204.8,0,0,1,133.94,235c-9,19.65-22.81,39.1-30.9,47.78A156.77,156.77,0,0,1,72,309.8C66,313.71,59.26,322,59.51,324.08Z"/><path class="cls-4" d="M412.15,54.14S302.28,133,214.59,355.06"/><path class="cls-4" d="M303.8,83.12S225.08,193,202.2,328.85"/><path class="cls-4" d="M368.13,191.37S273.69,221.62,252.24,346"/><path class="cls-5" d="M426.39,37.2c17.53,14.74,26.9,32.44,20.92,39.54s-25,.91-42.54-13.82-26.89-32.45-20.92-39.54S408.87,22.46,426.39,37.2Z"/><path class="cls-6" d="M419,46c5.56,4.68,8.53,10.3,6.64,12.55s-7.94.29-13.51-4.39-8.54-10.3-6.64-12.55S413.45,41.3,419,46Z"/><path class="cls-5" d="M309.73,76.06c7.3,6.14,11.2,13.51,8.72,16.47s-10.42.37-17.72-5.76S289.53,73.26,292,70.3,302.44,69.92,309.73,76.06Z"/><path class="cls-6" d="M306.66,79.71c2.32,2,3.56,4.29,2.77,5.23s-3.31.12-5.63-1.82-3.55-4.29-2.76-5.23S304.35,77.77,306.66,79.71Z"/><path class="cls-5" d="M375.54,186.22c7,10.09,9.39,20.58,5.3,23.42s-13.09-3-20.11-13.12-9.39-20.58-5.3-23.42S368.52,176.13,375.54,186.22Z"/><path class="cls-6" d="M370.48,189.74c2.23,3.2,3,6.53,1.69,7.43s-4.16-1-6.39-4.17-3-6.53-1.68-7.43S368.26,186.53,370.48,189.74Z"/><path class="cls-5" d="M55.87,363.52V192.61c28.73-17.11,64.72-20.3,100.07,10.93,23.84,21.07,30,51.86,60.62,69.81,32,18.78,90.82-34.31,168.12-1.67,32.11,13.55,77.29,45.05,111.2,91.84Z"/><path class="cls-7" d="M435,255.3c.32-.26.65-.5,1-.73l-.51-.18c-4.49-1.76-7.39-5.09-6.47-7.44s5.31-2.82,9.8-1.06c.39.15.75.32,1.11.49,0-.18-.07-.36-.09-.54-.72-4.77.71-8.94,3.2-9.32s5.09,3.19,5.82,7.95c.06.41.1.81.13,1.21l.42-.35c3.77-3,8.1-3.86,9.68-1.89s-.21,6-4,9c-.32.26-.65.49-1,.72l.51.19c4.49,1.75,7.39,5.08,6.47,7.43s-5.31,2.82-9.79,1.06c-.39-.15-.76-.31-1.12-.49,0,.18.07.36.09.55.73,4.76-.71,8.93-3.2,9.31s-5.1-3.18-5.81-8c-.07-.41-.11-.81-.14-1.21l-.42.35c-3.77,3-8.09,3.86-9.67,1.89S431.23,258.3,435,255.3Zm10.75,3.25a4.72,4.72,0,1,0-5.39-4A4.73,4.73,0,0,0,445.75,258.55Z"/><g class="cls-8"><path class="cls-6" d="M213.09,325.06l15.75.17a163.6,163.6,0,0,0,9-34.94,132.58,132.58,0,0,0-33.11-6.41c-56.3-3.57-101.4,73.37-60.33,135,23.08-7.39,48.13-28.38,67.41-59.23a193.26,193.26,0,0,0,13-24.45Z"/><path class="cls-9" d="M237.84,290.29s-95.29,27.38-93.44,128.57"/><line class="cls-9" x1="212.92" y1="284.62" x2="209.99" y2="303.17"/><line class="cls-9" x1="194.31" y1="284.42" x2="192.55" y2="314.84"/><line class="cls-9" x1="176.21" y1="289.36" x2="177.08" y2="329.08"/><line class="cls-9" x1="157.14" y1="301.65" x2="165.05" y2="344.61"/><line class="cls-9" x1="143.67" y1="317.69" x2="156.54" y2="359.03"/><line class="cls-9" x1="132.86" y1="340.26" x2="149.1" y2="379.73"/><line class="cls-9" x1="128.6" y1="365.78" x2="145.25" y2="400.29"/><line class="cls-9" x1="233.68" y1="309.7" x2="210.31" y2="302.55"/><line class="cls-9" x1="192.55" y1="314.84" x2="229.48" y2="323.55"/><line class="cls-9" x1="177.08" y1="329.08" x2="220.99" y2="342.8"/><line class="cls-9" x1="165.05" y1="344.61" x2="210.67" y2="361.61"/><line class="cls-9" x1="156.54" y1="359.03" x2="199.69" y2="376.81"/><line class="cls-9" x1="149.1" y1="379.73" x2="185.06" y2="393.08"/><line class="cls-9" x1="145.25" y1="400.29" x2="168.34" y2="406.45"/><path class="cls-10" d="M205,444.16c-4.82-.85-42.41-16.71-65.73,1.14-18.51,14.17-23.81,3.56-24.78-6.81s2.76-20.6-10.34-20.36c-43.1.78-76.46-26.36-50-39.07,14.29-6.87,3.74-23.15-7.17-23.2-23.14-.12-38.72-10.71-26.14-22.51,12.37-11.61,14.58-22.59,5-26.12S-3.63,307,.58,287.76C2.23,280.17,20,272,35.15,277.44c8.62,3.1,32.36,19.92,29.61-3.16-2.84-23.78,15.63-17.45,21.72-5.77,2.27,4.35,26.44,43,30.55,28.54,4.85-17.08,20-14,26.46,7.73,2.95,9.87,2.83,33.26,11.11,30.08s20.83-4.93,25.09,10.27C187.05,371.36,195,442.4,205,444.16Z"/><path class="cls-11" d="M14.45,285S78,299.69,126.64,356.23s65.75,82.21,103.19,108.46"/><path class="cls-11" d="M41.59,334.72s32.63-14.47,56.35-6.39"/><path class="cls-11" d="M77,272.52s4.25,34.67,25.43,59.61"/><path class="cls-11" d="M65.25,390.19s16.69,3.54,79.45-12.35"/><path class="cls-11" d="M129.13,294.15s-2.69,54.09,1.39,66.55"/><path class="cls-11" d="M168,342.93s-7.36,43.76,5.58,68.68"/><path class="cls-7" d="M254.71,425.56a290.51,290.51,0,0,0,29.39-76.09,285.26,285.26,0,0,0,7.27-64.4c-.05-36.82-7.42-61.09-7.49-61.33l-2.17.67c.08.24,7.35,24.25,7.39,60.75A282.58,282.58,0,0,1,281.87,349a288.36,288.36,0,0,1-29.14,75.45Z"/><path class="cls-7" d="M283.93,226.94s2.22-7-.18-13.83c-.87-2.47-4.23-6.09-6.53-5.29s-3.06,4.61-1.8,8.21C277.82,222.86,283.93,226.94,283.93,226.94Z"/><path class="cls-7" d="M286.11,239.31a22.87,22.87,0,0,0-7.35-10.12c-1.92-1.41-6.25-2.47-7.49-.78s.19,4.86,3,6.92A22.86,22.86,0,0,0,286.11,239.31Z"/><path class="cls-7" d="M288,260.57s-2.23-5.6-7.19-8.12c-1.8-.91-5.72-.9-6.71,1.07s.49,4.71,3.1,6C282.13,262.08,288,260.57,288,260.57Z"/><path class="cls-7" d="M285.27,238.68s6,0,10.14-3.66c1.51-1.33,2.93-5,1.49-6.58s-4.53-1.29-6.72.64C286,232.75,285.27,238.68,285.27,238.68Z"/><path class="cls-7" d="M277.09,372a20.31,20.31,0,0,0,11.54.24c2.09-.66,5.19-3.37,4.58-5.32s-3.76-2.69-6.8-1.73A20.24,20.24,0,0,0,277.09,372Z"/><path class="cls-7" d="M289.29,260.39a22.84,22.84,0,0,0,11.92-5c1.84-1.63,3.8-5.81,2.29-7.52s-5.06-1-7.74,1.34A22.78,22.78,0,0,0,289.29,260.39Z"/><path class="cls-7" d="M291.06,283.1s6.83.49,11.26-3.43c1.61-1.41,2.95-5.5,1.17-7.52s-5.27-1.85-7.61.21C291.44,276.27,291.06,283.1,291.06,283.1Z"/><path class="cls-7" d="M289.36,282.74s-1.28-6.62-6.19-10.2c-1.78-1.3-6.07-1.87-7.56.18s-.45,5.37,2.14,7.25C282.67,283.55,289.36,282.74,289.36,282.74Z"/><path class="cls-7" d="M276.2,372.64a18.34,18.34,0,0,0-1.88-11.38c-1.12-2.1-4.68-5.34-6.7-4.85S265.36,360,267,363C270.05,368.81,276.2,372.64,276.2,372.64Z"/><path class="cls-7" d="M287.35,327a15.43,15.43,0,0,0-7.2-6.37c-1.9-.88-6.21-1.5-7.47-.4s.12,3.12,2.88,4.39A32,32,0,0,0,287.35,327Z"/><path class="cls-7" d="M290.32,306.54a13.28,13.28,0,0,0,7.7-4.12c1.28-1.36,2.94-4.9,2.25-6.38s-2.89-1-4.77,1C292,300.82,290.32,306.54,290.32,306.54Z"/><path class="cls-7" d="M281.91,351.09s1.11-7-1-11.89c-.76-1.76-3.35-3.39-4.91-1.66s-1.85,5.36-.73,7.9A9.68,9.68,0,0,0,281.91,351.09Z"/><path class="cls-7" d="M286.72,327.71s8.33.19,14.3-2.94c2.17-1.13,4.34-4.3,2.41-5.81s-6.24-1.28-9.38.37A14.51,14.51,0,0,0,286.72,327.71Z"/><path class="cls-7" d="M282.6,352.22s7.9.16,13.18-2.86c1.92-1.1,3.62-4.16,1.62-5.61s-6-1.22-8.83.37A12,12,0,0,0,282.6,352.22Z"/><path class="cls-7" d="M297.67,203a20.21,20.21,0,0,0,11.54.24c2.09-.66,5.19-3.37,4.58-5.32s-3.77-2.68-6.8-1.73A20.32,20.32,0,0,0,297.67,203Z"/><path class="cls-7" d="M269.42,392.24a15.32,15.32,0,0,0-2.89-9.17c-1.18-1.73-4.59-4.46-6.27-4.16s-1.53,2.75.19,5.26A32,32,0,0,0,269.42,392.24Z"/><path class="cls-7" d="M264.55,300.5S263,294,259.44,290.19c-1.29-1.39-4.14-2.3-4.91-.46s.28,5.12,2.17,7.14A10.82,10.82,0,0,0,264.55,300.5Z"/><path class="cls-7" d="M289.47,307.88a23.06,23.06,0,0,0-6.26-10.44c-1.82-1.79-6.28-4.22-7.87-3.39s-.57,3.77,2.1,6.37A38,38,0,0,0,289.47,307.88Z"/></g></g></g></svg>